<?xml version="1.0" encoding="UTF-8"?>
<svg width="28px" height="18px" viewBox="0 0 28 18" version="1.1" xmlns="http://www.w3.org/2000/svg" xmlns:xlink="http://www.w3.org/1999/xlink">
    <!-- Generator: Sketch 47.1 (45422) - http://www.bohemiancoding.com/sketch -->
    <title>версия для слабовидящих</title>
    <desc>Created with Sketch.</desc>
    <defs></defs>
    <g id="Symbols" stroke="none" stroke-width="1" fill="none" fill-rule="evenodd" opacity="0.800000012">
        <g id="версия-для-слабовидящих" fill-rule="nonzero" fill="#24BEB1">
            <g transform="translate(0.000000, 1.000000)" id="visible">
                <g>
                    <path d="M27.9171074,7.24997238 C24.4767151,2.64247045 19.4041735,0 14.0000068,0 C8.59584013,0 3.52324391,2.64252569 0.082851603,7.24997238 C-0.027617201,7.39796708 -0.027617201,7.60192244 0.082851603,7.74997238 C3.52324391,12.3574743 8.59584013,15 14.0000068,15 C19.4041735,15 24.4767151,12.3575296 27.9171074,7.75002762 C28.0276309,7.60197768 28.0276309,7.39796708 27.9171074,7.24997238 Z M14.0000068,14.1697602 C8.95437156,14.1697602 4.20743955,11.7430671 0.928922329,7.5 C4.20743955,3.25693294 8.95437156,0.830239753 14.0000068,0.830239753 C19.0455874,0.830239753 23.7925194,3.25693294 27.0710913,7.5 C23.7925194,11.7430671 19.0455874,14.1697602 14.0000068,14.1697602 Z" id="Shape"></path>
                    <path d="M18.9167664,3.06238551 C18.7647346,2.8900034 18.5033148,2.87491439 18.332905,3.02881109 C18.1625502,3.18270778 18.1476937,3.4472386 18.2997254,3.61962071 C19.2421793,4.68810029 19.7612772,6.06626633 19.7612772,7.5 C19.7612772,10.7145701 17.1767374,13.3298116 13.9999725,13.3298116 C10.8231526,13.3298116 8.23866779,10.7145144 8.23866779,7.5 C8.23866779,4.2854856 10.8231526,1.67013268 13.9999725,1.67013268 C14.9301009,1.67013268 15.8177506,1.88739205 16.6381059,2.3157861 C16.8409249,2.42163184 17.0904044,2.34117572 17.1951705,2.13583165 C17.2998814,1.93048758 17.2202615,1.67809478 17.0173324,1.57213768 C16.091771,1.08878848 15.0484028,0.833333333 14.0000275,0.833333333 C10.3672224,0.833333333 7.41176471,3.82396256 7.41176471,7.5 C7.41176471,11.1760374 10.3671674,14.1666667 13.9999725,14.1666667 C17.6327776,14.1666667 20.5882353,11.1759818 20.5882353,7.5 C20.5882353,5.86036548 19.9945796,4.2844277 18.9167664,3.06238551 Z" id="Shape"></path>
                    <path d="M14,0.833333333 C10.3673551,0.833333333 7.41176471,3.82396921 7.41176471,7.5 C7.41176471,11.1758907 10.3673551,14.1666667 14,14.1666667 C17.6326449,14.1666667 20.5882353,11.1758907 20.5882353,7.5 C20.5882353,3.82410929 17.6326449,0.833333333 14,0.833333333 Z M14,13.3333333 C10.821481,13.3333333 8.23529412,10.7165377 8.23529412,7.5 C8.23529412,4.28346231 10.821481,1.66666667 14,1.66666667 C17.1786961,1.66666667 19.7647059,4.28346231 19.7647059,7.5 C19.7647059,10.7165377 17.1786961,13.3333333 14,13.3333333 Z" id="Shape-Copy-2"></path>
                    <path d="M14,9.49557533 C12.9125996,9.49557533 12.0278415,8.60034564 12.0278415,7.49993872 C12.0278415,6.39953179 12.9125996,5.5043021 14,5.5043021 C15.087461,5.5043021 15.9721585,6.39953179 15.9721585,7.49993872 C15.9721585,8.60034564 15.087461,9.49557533 14,9.49557533 Z" id="Shape"></path>
                </g>
            </g>
        </g>
    </g>
</svg>