<?xml version="1.0" encoding="utf-8"?>
<!-- Generator: Adobe Illustrator 21.1.0, SVG Export Plug-In . SVG Version: 6.00 Build 0)  -->
<svg version="1.1" id="Слой_1" xmlns="http://www.w3.org/2000/svg" xmlns:xlink="http://www.w3.org/1999/xlink" x="0px" y="0px"
	 viewBox="0 0 300 152" style="enable-background:new 0 0 300 152;" xml:space="preserve">
<style type="text/css">
	.st0{display:none;}
	.st1{display:inline;fill:#FFFFFF;}
	.st2{filter:url(#Adobe_OpacityMaskFilter);}
	.st3{fill:#FFFFFF;}
	.st4{mask:url(#mask-2);}
	.st5{filter:url(#filter-4);}
	.st6{fill:#022A4C;}
</style>
<filter  filterUnits="objectBoundingBox" height="109.2%" id="filter-4" width="100.8%" x="-0.4%" y="-3.3%">
	<feOffset  dx="0" dy="2" in="SourceAlpha" result="shadowOffsetOuter1"></feOffset>
	<feGaussianBlur  in="shadowOffsetOuter1" result="shadowBlurOuter1" stdDeviation="2"></feGaussianBlur>
	
		<feColorMatrix  in="shadowBlurOuter1" type="matrix" values="0 0 0 0 0.00784313725   0 0 0 0 0.164705882   0 0 0 0 0.298039216  0 0 0 0.5 0">
		</feColorMatrix>
</filter>
<title>Rectangle Copy 7</title>
<desc>Created with Sketch.</desc>
<g id="Page-1">
	<g id="Header">
		<g id="header">
			<g id="Rectangle-Copy-7">
				<g id="Mask" class="st0">
					<rect id="path-1_1_" y="0" class="st1" width="300" height="152"/>
				</g>
				<defs>
					<filter id="Adobe_OpacityMaskFilter" filterUnits="userSpaceOnUse" x="-7.7" y="-4.9" width="1865" height="166">
						<feColorMatrix  type="matrix" values="1 0 0 0 0  0 1 0 0 0  0 0 1 0 0  0 0 0 1 0"/>
					</filter>
				</defs>
				<mask maskUnits="userSpaceOnUse" x="-7.7" y="-4.9" width="1865" height="166" id="mask-2">
					<g class="st2">
						<rect id="path-1" y="0" class="st3" width="300" height="152"/>
					</g>
				</mask>
				<g id="Rectangle-Copy-2" class="st4">
					<g class="st5">
						<path id="path-3_2_" d="M-0.3,0.2h1850c-66.6,32.8-143.9,57.8-232,75c-152.4,29.8-326.4,26.1-656.8,12.7
							c-287.7-11.6-540.8,9.3-660.8,32.2c-36.4,6.9-64.4,29.8-72.5,32.1c-4.2,0-80.2,0-227.9,0V0.2z"/>
					</g>
					<g>
						<path id="path-3_1_" class="st6" d="M-1.3,0.3h1850c-66.6,32.8-143.9,57.8-232,75c-152.4,29.8-326.4,26.1-656.8,12.7
							C618.2,59.1,759.9-55.7,375,77.4c-0.3,0.1-34.1,32.6-76.3,43c-36.5,9-57.4,27.7-72.2,31.9c-4.2,0-80.2,0-227.9,0V0.3z"/>
					</g>
				</g>
			</g>
		</g>
	</g>
</g>
</svg>
