<?xml version="1.0" encoding="UTF-8"?>
<svg width="155px" height="48px" viewBox="0 0 155 48" version="1.1" xmlns="http://www.w3.org/2000/svg" xmlns:xlink="http://www.w3.org/1999/xlink">
    <!-- Generator: Sketch 47.1 (45422) - http://www.bohemiancoding.com/sketch -->
    <title>logo_colored</title>
    <desc>Created with Sketch.</desc>
    <defs>
        <linearGradient x1="0%" y1="100%" x2="100%" y2="100%" id="linearGradient-1">
            <stop stop-color="#3FC6AD" offset="0%"></stop>
            <stop stop-color="#25B78B" offset="100%"></stop>
        </linearGradient>
        <linearGradient x1="0%" y1="100%" x2="100%" y2="100%" id="linearGradient-2">
            <stop stop-color="#3EC6AD" offset="0%"></stop>
            <stop stop-color="#25B78C" offset="100%"></stop>
        </linearGradient>
        <linearGradient x1="100%" y1="100%" x2="0%" y2="100%" id="linearGradient-3">
            <stop stop-color="#29B890" offset="0%"></stop>
            <stop stop-color="#3CC4AA" offset="100%"></stop>
        </linearGradient>
        <linearGradient x1="0%" y1="100%" x2="100%" y2="100%" id="linearGradient-4">
            <stop stop-color="#3FC6AE" offset="0%"></stop>
            <stop stop-color="#3EC5AC" offset="100%"></stop>
        </linearGradient>
        <linearGradient x1="0%" y1="100%" x2="100%" y2="100%" id="linearGradient-5">
            <stop stop-color="#3EC5AC" offset="0%"></stop>
            <stop stop-color="#3CC4AA" offset="100%"></stop>
        </linearGradient>
        <linearGradient x1="0%" y1="100%" x2="100%" y2="100%" id="linearGradient-6">
            <stop stop-color="#3CC4A9" offset="0%"></stop>
            <stop stop-color="#3AC3A7" offset="100%"></stop>
        </linearGradient>
        <linearGradient x1="0%" y1="100%" x2="100%" y2="100%" id="linearGradient-7">
            <stop stop-color="#39C3A7" offset="0%"></stop>
            <stop stop-color="#37C1A4" offset="100%"></stop>
        </linearGradient>
        <linearGradient x1="0%" y1="100%" x2="100%" y2="100%" id="linearGradient-8">
            <stop stop-color="#37C0A2" offset="0%"></stop>
            <stop stop-color="#35C0A1" offset="100%"></stop>
        </linearGradient>
        <linearGradient x1="0%" y1="100%" x2="100%" y2="100%" id="linearGradient-9">
            <stop stop-color="#3DC5AC" offset="0%"></stop>
            <stop stop-color="#3CC4AA" offset="100%"></stop>
        </linearGradient>
        <linearGradient x1="0%" y1="100%" x2="100%" y2="100%" id="linearGradient-10">
            <stop stop-color="#3CC4A9" offset="0%"></stop>
            <stop stop-color="#39C3A7" offset="100%"></stop>
        </linearGradient>
        <linearGradient x1="0%" y1="100%" x2="100%" y2="100%" id="linearGradient-11">
            <stop stop-color="#3AC2A6" offset="0%"></stop>
            <stop stop-color="#4DC8AE" offset="100%"></stop>
        </linearGradient>
        <linearGradient x1="0%" y1="100%" x2="100%" y2="100%" id="linearGradient-12">
            <stop stop-color="#36C1A3" offset="0%"></stop>
            <stop stop-color="#35C09F" offset="100%"></stop>
        </linearGradient>
        <linearGradient x1="0%" y1="100%" x2="100%" y2="100%" id="linearGradient-13">
            <stop stop-color="#34BF9F" offset="0%"></stop>
            <stop stop-color="#3AC1A0" offset="100%"></stop>
        </linearGradient>
        <linearGradient x1="0%" y1="0%" x2="100%" y2="0%" id="linearGradient-14">
            <stop stop-color="#31BD9B" offset="0%"></stop>
            <stop stop-color="#2FBC98" offset="100%"></stop>
        </linearGradient>
        <linearGradient x1="0%" y1="100%" x2="100%" y2="100%" id="linearGradient-15">
            <stop stop-color="#2FBB97" offset="0%"></stop>
            <stop stop-color="#2CBB94" offset="100%"></stop>
        </linearGradient>
        <linearGradient x1="0%" y1="100%" x2="100%" y2="100%" id="linearGradient-16">
            <stop stop-color="#2BBA94" offset="0%"></stop>
            <stop stop-color="#29B891" offset="100%"></stop>
        </linearGradient>
        <linearGradient x1="0%" y1="100%" x2="100%" y2="100%" id="linearGradient-17">
            <stop stop-color="#29B890" offset="0%"></stop>
            <stop stop-color="#28B78E" offset="100%"></stop>
        </linearGradient>
        <linearGradient x1="0%" y1="0%" x2="100%" y2="0%" id="linearGradient-18">
            <stop stop-color="#28B890" offset="0%"></stop>
            <stop stop-color="#28B78E" offset="100%"></stop>
        </linearGradient>
        <linearGradient x1="0%" y1="100%" x2="100%" y2="100%" id="linearGradient-19">
            <stop stop-color="#3EC6AD" offset="0%"></stop>
            <stop stop-color="#3EC6AC" offset="100%"></stop>
        </linearGradient>
        <linearGradient x1="0%" y1="100%" x2="100%" y2="100%" id="linearGradient-20">
            <stop stop-color="#3DC5AC" offset="0%"></stop>
            <stop stop-color="#3BC4A9" offset="100%"></stop>
        </linearGradient>
        <linearGradient x1="0%" y1="100%" x2="100%" y2="100%" id="linearGradient-21">
            <stop stop-color="#3BC3A9" offset="0%"></stop>
            <stop stop-color="#39C2A6" offset="100%"></stop>
        </linearGradient>
        <linearGradient x1="0%" y1="100%" x2="100%" y2="100%" id="linearGradient-22">
            <stop stop-color="#39C3A6" offset="0%"></stop>
            <stop stop-color="#37C1A2" offset="100%"></stop>
        </linearGradient>
        <linearGradient x1="0%" y1="100%" x2="100%" y2="100%" id="linearGradient-23">
            <stop stop-color="#36C0A2" offset="0%"></stop>
            <stop stop-color="#34BF9F" offset="100%"></stop>
        </linearGradient>
        <linearGradient x1="0%" y1="100%" x2="100%" y2="100%" id="linearGradient-24">
            <stop stop-color="#33BF9E" offset="0%"></stop>
            <stop stop-color="#30BD9A" offset="100%"></stop>
        </linearGradient>
        <linearGradient x1="0%" y1="100%" x2="100%" y2="100%" id="linearGradient-25">
            <stop stop-color="#30BD9A" offset="0%"></stop>
            <stop stop-color="#2EBB97" offset="100%"></stop>
        </linearGradient>
        <linearGradient x1="0%" y1="100%" x2="100%" y2="100%" id="linearGradient-26">
            <stop stop-color="#2DBB96" offset="0%"></stop>
            <stop stop-color="#2BBA93" offset="100%"></stop>
        </linearGradient>
        <linearGradient x1="0%" y1="100%" x2="100%" y2="100%" id="linearGradient-27">
            <stop stop-color="#2AB993" offset="0%"></stop>
            <stop stop-color="#29B890" offset="100%"></stop>
        </linearGradient>
        <linearGradient x1="0%" y1="100%" x2="100%" y2="100%" id="linearGradient-28">
            <stop stop-color="#28B88F" offset="0%"></stop>
            <stop stop-color="#27B78D" offset="100%"></stop>
        </linearGradient>
        <linearGradient x1="0%" y1="100%" x2="100%" y2="100%" id="linearGradient-29">
            <stop stop-color="#26B68D" offset="0%"></stop>
            <stop stop-color="#25B68B" offset="100%"></stop>
        </linearGradient>
    </defs>
    <g id="Page-1" stroke="none" stroke-width="1" fill="none" fill-rule="evenodd">
        <g id="logo_colored" fill-rule="nonzero">
            <g id="tooth">
                <path d="M0,19.9480522 C4.29186344,25.3730385 13.1251968,28.0053339 26.5,27.8449384 C38.2633218,27.7038683 46.9617401,24.6874477 52.5952548,18.7956767 C52.7737778,19.7897342 52.8822019,20.7839732 52.9205272,21.7783936 C52.9523077,22.6029972 52.9139894,23.4277822 52.8055723,24.2527486 C46.0459901,30.7632072 37.2026867,34.0184365 26.2756621,34.0184365 C13.9371288,34.0184365 5.24868058,31.2590932 0.21031746,25.7404065 C0.0701058201,24.7130167 1.83206132e-16,23.7548715 0,22.8659706 C0,21.8933508 0,20.9207113 0,19.9480522 Z" id="path-1" fill="url(#linearGradient-1)"></path>
                <path d="M1.051587,30.1298705 C7.10477806,34.5908928 15.3135119,36.8161427 25.6777885,36.8056202 C37.0765173,36.7940475 46.0205883,33.7532918 52.5100015,27.6833532 C50.997885,31.9725011 48.1869554,35.4483689 44.0772126,38.1109566 C39.7183908,40.9349158 33.4557065,42.1818185 26.1025889,42.1818185 C19.5066061,42.1818185 14.0146136,40.753864 8.66491813,38.1109566 C5.38058318,36.4883983 2.84280614,33.8280362 1.051587,30.1298705 Z" id="path-3" fill="url(#linearGradient-2)"></path>
                <path d="M8.412698,40.1038956 C14.1030947,43.1751927 20.2562641,44.683574 26.8722063,44.6290394 C33.3278032,44.5758266 39.4108668,42.9255803 45.1213972,39.6783004 C43.5294439,41.6643716 41.0905882,43.4054691 37.8048301,44.9015929 C34.6336186,46.3455595 31.2223286,47.5894892 26.8722063,47.5894892 C21.0713655,47.5894892 18.8670818,46.5128952 15.27141,44.9015929 C12.8465282,43.8149482 10.5602909,42.2157158 8.412698,40.1038956 Z" id="path-5" fill="url(#linearGradient-3)"></path>
                <path d="M15.7625499,1.53201025 C17.5082765,1.53201025 19.8575142,2.35983732 22.8102629,4.01549145 L30.1773561,8.09746626 C26.2280855,7.27132482 23.0094329,7.27132482 20.5213983,8.09746626 C17.7704468,9.01090812 15.7842682,10.7504914 14.5628624,13.3162161 C17.1541416,11.050381 19.5239597,9.61125549 21.6723167,8.9988395 C25.6852634,7.85489893 27.0912723,8.71801209 28.7596033,8.9988395 C31.0442502,9.38341036 31.7453867,9.56454852 33.9409531,9.19108703 C36.4713117,8.76067804 36.7476013,8.27419758 39.4512071,7.58334607 C40.7991463,7.23890762 42.430914,6.96981515 44.3465105,6.77606867 C43.0612697,6.38056708 41.626111,6.27635864 40.0410344,6.46344335 C36.8208736,6.84351509 34.5430958,8.70600676 31.8430598,7.76164146 C28.7499503,6.67979465 26.4620161,5.43107798 24.9792573,4.01549145 C28.7395757,1.27593005 32.2667163,-0.000799058162 35.5606791,0.18530412 C41.3390075,0.511769637 44.7138388,3.50607605 46.6815169,5.39853804 C49.9637502,8.55530523 51.7929481,12.0647015 52.1691106,15.9267267 C46.6637969,21.9030029 38.2270671,24.9916718 26.8589211,25.1927333 C13.5630231,25.4278898 4.73980756,22.7848783 0.389274498,17.2636988 C1.10674438,13.4407039 2.68273691,10.2139196 5.11725211,7.58334607 C8.35970265,4.07977188 11.9923848,1.53201025 15.7625499,1.53201025 Z" id="Rectangle-2" fill="#FFFFFF"></path>
            </g>
            <g id="letters" transform="translate(60.000000, 4.000000)">
                <polygon id="path-7" fill="url(#linearGradient-4)" points="0.835165 0.209677 2.29670346 0.209677 2.29670346 7.33870926 5.6373628 7.33870926 5.6373628 0.209677 7.09890126 0.209677 7.09890126 7.33870926 8.14285731 7.33870926 8.14285731 10.9032254 6.89011005 10.9032254 6.89011005 8.59677377 0.835165 8.59677377"></polygon>
                <polygon id="path-9" fill="url(#linearGradient-5)" points="9.395604 0.209677 15.2417578 0.209677 15.2417578 1.46774152 11.0659337 1.46774152 11.0659337 3.56451571 13.9890106 3.56451571 13.9890106 4.61290281 11.0659337 4.61290281 11.0659337 7.33870926 15.0329666 7.33870926 15.0329666 8.59677377 9.395604 8.59677377"></polygon>
                <polygon id="path-11" fill="url(#linearGradient-6)" points="16.912088 0.209677 18.3736265 0.209677 18.3736265 3.56451571 22.1318682 3.56451571 22.1318682 0.209677 23.5934067 0.209677 23.5934067 8.59677377 22.1318682 8.59677377 22.1318682 4.82258023 18.3736265 4.82258023 18.3736265 8.59677377 16.912088 8.59677377"></polygon>
                <polygon id="path-13" fill="url(#linearGradient-7)" points="25.054945 0.209677 32.3626373 0.209677 32.3626373 1.46774152 29.4393282 1.46774152 29.4393282 8.59677377 27.9780219 8.59677377 27.9780219 1.46774152 25.054945 1.46774152"></polygon>
                <path d="M33.824176,0.209677419 L35.4945057,0.209677419 L36.7472529,0.209677419 C37.8816272,0.194515015 38.647195,0.404192434 39.0439562,0.838709677 C39.4127628,1.24261211 39.621554,1.66167694 39.6703298,2.09590418 C39.7125608,2.72382784 39.7208634,3.16257552 39.6952379,3.41214724 C39.6409557,3.9408111 39.2841523,4.54981623 39.0439562,4.82258065 C38.7280394,5.18133278 38.2408599,5.3910102 37.5824178,5.4516129 L35.4945057,5.4516129 L35.4945057,4.19354839 L37.1648353,4.19354839 C37.5542311,4.13242486 37.8326194,3.99622738 38.0000002,3.78495595 C38.179103,3.55888873 38.2487001,3.20554889 38.2087914,2.72493644 C38.2087914,2.35917463 38.1391943,2.07989475 38.0000002,1.88709677 C37.7859304,1.59058849 37.5075421,1.45080354 37.1648353,1.46774194 L35.4945057,1.46774194 L35.4945057,4.19354839 L35.4945057,5.4516129 L35.4945057,8.59677419 L33.824176,8.59677419 L33.824176,0.209677419 Z" id="path-15" fill="url(#linearGradient-8)"></path>
                <path d="M0,21.3870973 L6.26373626,21.3870973 L6.26373626,15.5161295 L4.59340659,15.5161295 C4.41904918,16.6057073 4.15476911,17.603213 3.80056637,18.5086469 C3.38920134,19.5602023 2.88791365,20.5196858 2.2967033,21.3870973 L0.806197841,21.3870973 C1.52414085,20.3729988 2.10337787,19.2935343 2.54390889,18.1487036 C3.01779544,16.9171902 3.35297599,15.6203107 3.54945055,14.258065 L6.26373626,14.258065 L7.72527473,14.258065 L7.7254814,21.3870973 L8.76923077,21.3870973 L8.76923077,24.9516134 L7.51648352,24.9516134 L7.51648352,22.6451618 L1.25274725,22.6451618 L1.25274725,24.9516134 L0,24.9516134 L0,21.3870973 Z" id="path-17" fill="url(#linearGradient-4)"></path>
                <polygon id="path-19" fill="url(#linearGradient-9)" points="10.021978 14.258065 15.8681319 14.258065 15.8681319 15.5161295 11.6923077 15.5161295 11.6923077 17.6129037 14.6153846 17.6129037 14.6153846 18.6612908 11.6923077 18.6612908 11.6923077 21.3870973 15.6593406 21.3870973 15.6593406 22.6451618 10.021978 22.6451618"></polygon>
                <polygon id="path-21" fill="url(#linearGradient-10)" points="17.538462 14.258065 19.0000005 14.258065 19.0000005 17.6129037 22.7582422 17.6129037 22.7582422 14.258065 24.2197807 14.258065 24.2197807 22.6451618 22.7582422 22.6451618 22.7582422 18.8709682 19.0000005 18.8709682 19.0000005 22.6451618 17.538462 22.6451618"></polygon>
                <polygon id="path-23" fill="url(#linearGradient-11)" points="25.681319 14.258065 32.9890113 14.258065 32.9890113 15.5161295 30.0657021 15.5161295 30.0657021 22.6451618 28.6043959 22.6451618 28.6043959 15.5161295 25.681319 15.5161295"></polygon>
                <polygon id="path-25" fill="url(#linearGradient-12)" points="37.1648356 14.258065 38.0000004 14.258065 41.5494509 22.6451618 39.8791213 22.6451618 37.582418 16.774194 36.3296707 19.9193553 38.8126002 19.9193553 39.223126 20.9677424 35.9120883 20.9677424 35.2857147 22.6451618 33.615385 22.6451618"></polygon>
                <path d="M48.0219781,14.258065 L49.4835165,14.258065 L49.4835165,22.6451618 L48.0219781,22.6451618 L48.0219781,15.5161295 L46.1428572,15.5161295 C45.932577,17.8880264 45.3758004,19.8450156 44.4725275,21.3870973 C43.983859,22.2213597 43.1486942,22.6407146 41.967033,22.6451618 L41.967033,21.3870973 C42.7795652,21.3870973 43.4059388,20.8279575 43.8461539,19.7096779 C44.4001524,18.3023539 44.8177348,16.4851496 45.0989011,14.258065 L48.0219781,14.258065 Z" id="path-27" fill="url(#linearGradient-13)"></path>
                <path d="M51.571429,14.2580637 L53.2417587,14.2580637 L54.4945059,14.2580637 C55.6288802,14.2429013 56.394448,14.4525787 56.7912092,14.8870959 C57.1600158,15.2909984 57.368807,15.7100632 57.4175828,16.1442904 C57.4598138,16.7722141 57.4681164,17.2109618 57.4424909,17.4605335 C57.3882087,17.9891974 57.0314053,18.5982025 56.7912092,18.8709669 C56.4752924,19.229719 55.9881129,19.4393965 55.3296708,19.4999992 L53.2417587,19.4999992 L53.2417587,18.2419347 L54.9120883,18.2419347 C55.3014841,18.1808111 55.5798724,18.0446136 55.7472532,17.8333422 C55.926356,17.607275 55.9959531,17.2539352 55.9560444,16.7733227 C55.9560444,16.4075609 55.8864473,16.128281 55.7472532,15.935483 C55.5331834,15.6389748 55.2547951,15.4991898 54.9120883,15.5161282 L53.2417587,15.5161282 L53.2417587,18.2419347 L53.2417587,19.4999992 L53.2417587,22.6451605 L51.571429,22.6451605 L51.571429,14.2580637 Z" id="path-29" fill="url(#linearGradient-14)" transform="translate(54.514218, 18.451229) scale(-1, 1) rotate(-180.000000) translate(-54.514218, -18.451229) "></path>
                <polygon id="path-31" fill="url(#linearGradient-15)" points="59.296703 14.258065 60.7582415 14.258065 60.7582415 17.6129037 64.5164832 17.6129037 64.5164832 14.258065 65.9780217 14.258065 65.9780217 22.6451618 64.5164832 22.6451618 64.5164832 18.8709682 60.7582415 18.8709682 60.7582415 22.6451618 59.296703 22.6451618"></polygon>
                <path d="M71.615385,22.6451618 C69.2156619,22.6451618 67.648352,21.3966785 67.648352,18.4516134 C67.648352,15.5065483 69.0068707,14.258065 71.615385,14.258065 C74.2238992,14.258065 75.5824179,15.5065483 75.5824179,18.4516134 C75.5824179,21.3966785 74.015108,22.6451618 71.615385,22.6451618 Z M71.615385,21.3870973 C73.1720997,21.3870973 73.9120883,20.5131589 73.9120883,18.4516134 C73.9120883,16.3900678 73.1720997,15.5161295 71.615385,15.5161295 C70.0586703,15.5161295 69.3186817,16.3900678 69.3186817,18.4516134 C69.3186817,20.5131589 70.0586703,21.3870973 71.615385,21.3870973 Z" id="path-33" fill="url(#linearGradient-16)"></path>
                <polygon id="path-35" fill="url(#linearGradient-17)" points="77.043956 14.258065 78.5054945 14.258065 78.5054945 19.9193553 83.3076923 14.258065 83.9340659 14.258065 83.9340659 22.6451618 82.4725274 22.6451618 82.4725274 16.9838715 77.8791208 22.6451618 77.043956 22.6451618"></polygon>
                <path d="M78.5054942,11.741935 L79.7582415,11.741935 C79.9507436,12.3010748 80.298729,12.5806447 80.8021975,12.5806447 C81.305666,12.5806447 81.6536514,12.3010748 81.8461535,11.741935 L83.0989008,11.741935 C83.1527824,12.2018726 82.9439912,12.6212274 82.4725272,12.9999995 C82.1357672,13.270551 81.6189783,13.4193544 80.8021975,13.4193544 C79.9854167,13.4193544 79.5261246,13.2879487 79.1318678,12.9999995 C78.6291379,12.6328259 78.4203467,12.213471 78.5054942,11.741935 Z" id="path-37" fill="url(#linearGradient-18)"></path>
                <polygon id="path-39" fill="url(#linearGradient-19)" points="0.835165 28.306452 2.29670346 28.306452 2.29670346 33.9677423 7.09890126 28.306452 7.72527489 28.306452 7.72527489 36.6935488 6.26373643 36.6935488 6.26373643 31.0322585 1.67032983 36.6935488 0.835165 36.6935488"></polygon>
                <polygon id="path-41" fill="url(#linearGradient-20)" points="10.8571427 28.306452 11.6923075 28.306452 13.675824 33.7580649 15.6593405 28.306452 16.4945053 28.306452 18.3736262 36.6935488 16.9120877 36.6935488 15.7637361 32.290323 14.197802 36.6935488 13.3626372 36.6935488 11.5879119 32.290323 10.6483515 36.6935488 9.186813 36.6935488"></polygon>
                <polygon id="path-43" fill="url(#linearGradient-21)" points="19.835165 28.306452 26.0989013 28.306452 26.0989013 36.6935488 24.6373628 36.6935488 24.6373628 29.5645165 21.2967035 29.5645165 21.2967035 36.6935488 19.835165 36.6935488"></polygon>
                <path d="M33.6153851,28.306452 L35.0769235,28.306452 L35.0769235,36.6935488 L33.6153851,36.6935488 L33.6153851,29.5645165 L31.7362642,29.5645165 C31.525984,31.9364134 30.9692074,33.8934026 30.0659345,35.4354843 C29.577266,36.2697467 28.7421012,36.6891016 27.56044,36.6935488 L27.56044,35.4354843 C28.3729722,35.4354843 28.9993458,34.8763445 29.4395609,33.7580649 C29.9935594,32.3507409 30.4111418,30.5335366 30.6923081,28.306452 L33.6153851,28.306452 Z" id="path-45" fill="url(#linearGradient-22)"></path>
                <polygon id="path-47" fill="url(#linearGradient-23)" points="39.6703296 28.306452 40.5054944 28.306452 44.0549449 36.6935488 42.3846153 36.6935488 40.087912 30.822581 38.8351647 33.9677423 41.3180942 33.9677423 41.72862 35.0161294 38.4175823 35.0161294 37.7912087 36.6935488 36.120879 36.6935488"></polygon>
                <polygon id="path-49" fill="url(#linearGradient-24)" points="45.307692 28.306452 46.7692305 28.306452 46.7692305 31.6612907 50.5274722 31.6612907 50.5274722 28.306452 51.9890107 28.306452 51.9890107 36.6935488 50.5274722 36.6935488 50.5274722 32.9193552 46.7692305 32.9193552 46.7692305 36.6935488 45.307692 36.6935488"></polygon>
                <polygon id="path-51" fill="url(#linearGradient-25)" points="53.450549 28.306452 60.7582413 28.306452 60.7582413 29.5645165 57.8349321 29.5645165 57.8349321 36.6935488 56.3736259 36.6935488 56.3736259 29.5645165 53.450549 29.5645165"></polygon>
                <polygon id="path-53" fill="url(#linearGradient-26)" points="64.9340655 28.306452 65.7692304 28.306452 69.3186809 36.6935488 67.6483513 36.6935488 65.351648 30.822581 64.0989007 33.9677423 66.5818302 33.9677423 66.992356 35.0161294 63.6813183 35.0161294 63.0549447 36.6935488 61.384615 36.6935488"></polygon>
                <polygon id="path-55" fill="url(#linearGradient-27)" points="70.362637 28.306452 71.8241755 28.306452 71.8241755 35.4354843 75.1648348 35.4354843 75.1648348 28.306452 76.6263733 28.306452 76.6263733 35.4354843 77.6703293 35.4354843 77.6703293 39.0000004 76.4175821 39.0000004 76.4175821 36.6935488 70.362637 36.6935488"></polygon>
                <polygon id="path-57" fill="url(#linearGradient-28)" points="79.340659 28.306452 80.8021975 28.306452 80.8021975 33.9677423 85.6043953 28.306452 86.2307689 28.306452 86.2307689 36.6935488 84.7692304 36.6935488 84.7692304 31.0322585 80.1758238 36.6935488 79.340659 36.6935488"></polygon>
                <polygon id="path-59" fill="url(#linearGradient-29)" points="88.10989 28.306452 89.5714285 28.306452 89.5714285 33.9677423 94.3736263 28.306452 94.9999999 28.306452 94.9999999 36.6935488 93.5384614 36.6935488 93.5384614 31.0322585 88.9450548 36.6935488 88.10989 36.6935488"></polygon>
            </g>
        </g>
    </g>
</svg>