<?xml version="1.0" encoding="utf-8"?>
<!-- Generator: Adobe Illustrator 21.1.0, SVG Export Plug-In . SVG Version: 6.00 Build 0)  -->
<svg version="1.1" id="Слой_1" xmlns="http://www.w3.org/2000/svg" xmlns:xlink="http://www.w3.org/1999/xlink" x="0px" y="0px"
	 viewBox="0 0 12 18" style="enable-background:new 0 0 12 18;" xml:space="preserve">
<style type="text/css">
	.st0{opacity:0.8001;}
	.st1{fill:#24BEB1;}
</style>
<title>маркер</title>
<desc>Created with Sketch.</desc>
<g id="Symbols" class="st0">
	<g id="маркер">
		<g id="location-pin" transform="translate(2.000000, 0.000000)">
			<g>
				<path id="Shape" class="st1" d="M4,0C0.7,0-2,2.7-2,6.1c0,1.4,0.8,3.4,2.5,6.5c1.1,2.1,2.3,3.9,2.3,3.9l0.8,1.3
					C3.7,17.9,3.8,18,4,18s0.3-0.1,0.4-0.2l0.8-1.3c0-0.1,1.2-1.8,2.3-3.9C9.2,9.5,10,7.5,10,6.1C10,2.7,7.3,0,4,0z M6.8,12.3
					c-1.2,2.1-2.3,3.9-2.4,4L4,17l-0.5-0.7c0-0.1-1.2-1.9-2.4-4c-1.6-2.9-2.4-5-2.4-6.2c0-2.9,2.4-5.3,5.3-5.3s5.3,2.4,5.3,5.3
					C9.3,7.3,8.4,9.4,6.8,12.3z"/>
				<path id="Shape_1_" class="st1" d="M4,3C2.3,3,1,4.3,1,6s1.3,3,3,3s3-1.3,3-3S5.7,3,4,3z M4,8.2c-1.2,0-2.3-1-2.3-2.3
					s1-2.2,2.3-2.2c1.2,0,2.3,1,2.3,2.2S5.2,8.2,4,8.2z"/>
			</g>
		</g>
	</g>
</g>
</svg>
