<?xml version="1.0" encoding="UTF-8"?>
<svg width="17px" height="18px" viewBox="0 0 17 18" version="1.1" xmlns="http://www.w3.org/2000/svg" xmlns:xlink="http://www.w3.org/1999/xlink">
    <!-- Generator: Sketch 47.1 (45422) - http://www.bohemiancoding.com/sketch -->
    <title>телефон</title>
    <desc>Created with Sketch.</desc>
    <defs></defs>
    <g id="Symbols" stroke="none" stroke-width="1" fill="none" fill-rule="evenodd">
        <g id="телефон" fill-rule="nonzero" fill="#24BEB1">
            <g id="phone-call-copy-2">
                <path d="M13.6632426,17 C12.9559293,17 12.101664,16.8227437 11.162201,16.4682311 C9.10258698,15.6917341 6.86171321,14.1570376 4.85241735,12.1477516 C2.8425497,10.1378939 1.30784564,7.89645933 0.530773055,5.83685544 C-0.17539666,3.96422837 -0.177112052,2.42724468 0.526770474,1.72393741 C0.627978603,1.62272978 0.730902124,1.51408882 0.837256429,1.40201709 C1.47938484,0.726727752 2.20499567,-0.0331871747 3.16675879,0.0011204969 C3.82947191,0.0285666342 4.47160032,0.440258694 5.12916727,1.25849666 C7.07213463,3.67490034 6.1961411,4.53602289 5.18234442,5.53437614 L5.00337185,5.71163244 C4.83755062,5.87745285 4.52420568,6.6453729 7.43922852,9.5603814 C8.39069929,10.5118475 9.20207972,11.2082932 9.8504979,11.6297058 C10.2587612,11.8950185 10.9889464,12.2964182 11.2885682,11.9967979 L11.4686844,11.8149672 C12.4658989,10.8034627 13.3270257,9.93033246 15.7417259,11.8715749 C16.5599679,12.5291386 16.9710902,13.1706921 16.9985365,13.8345455 C17.0379905,14.7957321 16.2723538,15.5230547 15.5964894,16.1646082 C15.4849889,16.270962 15.3763474,16.373885 15.2751393,16.4745208 C14.9257711,16.8244591 14.3671251,17 13.6632426,17 Z M3.09814311,0.571771435 C2.41484529,0.571771435 1.79787596,1.22133002 1.2518095,1.79598352 C1.14202441,1.91148601 1.03567011,2.02355774 0.931031193,2.12819614 C0.406693032,2.65195993 0.459870185,4.02826935 1.06597537,5.63558377 C1.81502988,7.62085437 3.30341836,9.7902428 5.25724987,11.7440647 C7.21050958,13.696743 9.3787651,15.1851242 11.3646173,15.9336032 C12.9719396,16.540849 14.3482558,16.5923105 14.8714503,16.0691185 C14.9760893,15.9644801 15.0881615,15.8581263 15.2036646,15.7489136 C15.7909005,15.1908421 16.4570444,14.5584374 16.4278827,13.8568455 C16.4078698,13.3748227 16.0567862,12.8562051 15.3843526,12.3158592 C13.3721977,10.6976807 12.8095491,11.2689035 11.8763759,12.2152234 L11.6934007,12.399913 C11.2473988,12.8464846 10.5229316,12.7475641 9.53944015,12.1082978 C8.85728592,11.6645853 8.01445664,10.9429806 7.0355396,9.96349655 C4.61626505,7.5448057 3.84262325,6.06442966 4.59968293,5.30565833 L4.78208628,5.12554305 C5.73069807,4.19237438 6.30306721,3.62915677 4.68430893,1.61586824 C4.14281685,0.944009672 3.62476846,0.592927833 3.14274331,0.57234323 C3.12787657,0.571771435 3.11300984,0.571771435 3.09814311,0.571771435 Z" id="Shape"></path>
            </g>
        </g>
    </g>
</svg>