<?xml version="1.0" encoding="UTF-8"?>
<svg width="17px" height="18px" viewBox="0 0 17 18" version="1.1" xmlns="http://www.w3.org/2000/svg" xmlns:xlink="http://www.w3.org/1999/xlink">
    <!-- Generator: Sketch 47.1 (45422) - http://www.bohemiancoding.com/sketch -->
    <title>время</title>
    <desc>Created with Sketch.</desc>
    <defs></defs>
    <g id="Symbols" stroke="none" stroke-width="1" fill="none" fill-rule="evenodd" opacity="0.800000012">
        <g id="время" fill-rule="nonzero" fill="#24BEB1">
            <g id="clock-copy">
                <g transform="translate(0.000000, 0.500000)">
                    <path d="M16.3214444,5.18932126 C15.4251667,3.09859008 13.9021111,1.57806083 11.7950833,0.678928301 C10.7419722,0.22954269 9.63866667,0 8.48602778,0 C7.33358333,0 6.23841667,0.227374833 5.18647222,0.678928301 C3.09688889,1.57567063 1.56708333,3.09522712 0.669222222,5.18932126 C0.219305556,6.23845281 0,7.33758403 0,8.49066154 C0,9.64396139 0.219305556,10.7522087 0.669222222,11.8015626 C1.56708333,13.8956568 3.09708333,15.4243294 5.18647222,16.321294 C6.23861111,16.7728475 7.33355556,17 8.48602778,17 C9.6385,17 10.7419722,16.7704573 11.7949167,16.321294 C13.9019444,15.4221337 15.425,13.8920993 16.3214722,11.8015626 C16.77275,10.7488458 17,9.64396139 17,8.49066154 C17,7.33758403 16.7729444,6.24201032 16.3214444,5.18932126 Z M14.9645556,12.2479744 C14.2973056,13.3929085 13.3831944,14.3012128 12.2319167,14.9727759 C11.0876111,15.6403924 9.83380556,15.9770773 8.48622222,15.9770773 C7.47316667,15.9770773 6.5065,15.781859 5.58622222,15.3818894 C4.66597222,14.9821144 3.87141667,14.456548 3.20675,13.7917108 C2.54208333,13.126679 2.01305556,12.3239327 1.61747222,11.401593 C1.22305556,10.4826163 1.03191667,9.50449593 1.03191667,8.49068933 C1.03191667,7.14217119 1.36305556,5.8940415 2.02655556,4.75227576 C2.69241667,3.60634106 3.60672222,2.69706407 4.74986111,2.02744644 C5.89280556,1.3578566 7.13847222,1.02295051 8.48602778,1.02295051 C9.83380556,1.02295051 11.0873889,1.35982991 12.2317222,2.02744644 C13.383,2.69903738 14.2951389,3.60828658 14.9643611,4.75224797 C15.6335833,5.89601481 15.9681111,7.14217119 15.9681111,8.49066154 C15.9681111,9.83920747 15.6357778,11.0958418 14.9645556,12.2479744 Z" id="Shape"></path>
                    <path d="M9.10331758,8.44355736 L9.10331758,3.53107185 C9.10331758,3.23710893 8.83963364,3 8.53696754,3 C8.25390923,3 8,3.23710893 8,3.53107185 L8,8.51940047 C8,8.52892338 8.01957861,8.5669583 8.01957861,8.59530027 C8,8.76603231 8.04896112,8.90828066 8.1660243,9.02218704 L11.0853968,11.8576879 C11.2807453,12.0474374 11.6419138,12.0474374 11.8371164,11.8576879 C12.0616139,11.6395964 12.0468497,11.3231583 11.8371164,11.1179908 L9.10331758,8.44355736 Z" id="Shape"></path>
                </g>
            </g>
        </g>
    </g>
</svg>