<?xml version="1.0" encoding="UTF-8"?>
<svg width="54px" height="15px" viewBox="0 0 54 15" version="1.1" xmlns="http://www.w3.org/2000/svg" xmlns:xlink="http://www.w3.org/1999/xlink">
    <!-- Generator: Sketch 48.2 (47327) - http://www.bohemiancoding.com/sketch -->
    <title>flamp</title>
    <desc>Created with Sketch.</desc>
    <defs></defs>
    <g id="Главная" stroke="none" stroke-width="1" fill="none" fill-rule="evenodd" transform="translate(-1329.000000, -127.000000)">
        <g id="главная" transform="translate(50.000000, 115.000000)" fill="#FFFFFF">
            <g id="отзывы" transform="translate(1155.000000, 0.000000)">
                <path d="M173.092623,21.7274231 C174.365366,21.7274231 174.865531,20.6819385 174.865531,19.5 C174.865531,18.3180615 174.410519,17.3182269 173.092623,17.3182269 C171.865035,17.3182269 171.319716,18.3180615 171.319716,19.5 C171.365366,20.6819385 171.865035,21.7274231 173.092623,21.7274231 Z M171.456169,16.3635461 C172.047139,15.2724115 173.138273,14.9087 174.183262,14.9087 C176.456335,14.9087 177.819881,16.8180615 177.819881,19.5 C177.819881,22.2275885 176.410685,24.0913 174.183262,24.0913 C173.138273,24.0913 172.092292,23.7732385 171.546973,22.9093616 L171.546973,27 L168.546973,27 L168.546973,15.1816077 L171.456169,15.1816077 L171.456169,16.3635461 Z M161.455839,16.45435 C162.046808,15.3632153 162.910189,14.95435 164.046973,14.95435 C166.228746,14.95435 167.183427,16.3178961 167.183427,18.5001654 L167.183427,23.8183923 L164.228581,23.8183923 L164.228581,19.0911346 C164.228581,18.0908038 164.046973,17.4998346 163.183096,17.4998346 C162.228415,17.4998346 161.956004,18.2272577 161.956004,19.1819385 L161.956004,23.8183923 L159.001158,23.8183923 L159.001158,19.0911346 C159.001158,18.0908038 158.7739,17.4998346 157.864869,17.4998346 C156.910189,17.4998346 156.591631,18.3180615 156.591631,19.3183923 L156.591631,23.8640423 L153.545981,23.8640423 L153.545981,15.1816077 L156.410023,15.1816077 L156.410023,16.45435 C157.000992,15.2272577 158.046477,14.9087 159.001158,14.9087 C160.137942,14.9087 160.955673,15.3632153 161.455839,16.45435 Z M149.318889,20.4998346 L149.318889,20.0001654 L148.000992,20.0001654 C147.227919,20.0001654 146.63695,20.4090308 146.63695,21 C146.63695,21.6366193 147.091465,21.9546808 147.864042,21.9546808 C148.773073,21.9546808 149.318889,21.3180615 149.318889,20.4998346 Z M148.13695,14.9087 C150.500827,14.9087 152.182435,16.0454846 152.182435,18.4093616 L152.182435,23.8183923 L149.500496,23.8183923 L149.500496,22.9093616 C149.000331,23.8183923 147.864042,24.0913 146.773404,24.0913 C144.864042,24.0913 143.772908,22.7272577 143.772908,21.1816077 C143.772908,19.8637115 144.818889,18.2729077 147.409527,18.2729077 L149.273239,18.2729077 L149.273239,18.1364539 C149.273239,17.1366193 148.910023,16.7729077 148.0913,16.7729077 C147.363877,16.7729077 146.909362,17.1366193 146.864208,17.8183923 L144.137115,17.8183923 C144.273073,16.1362885 145.637115,14.9087 148.13695,14.9087 Z M139.455012,23.8183923 L142.636619,23.8183923 L142.636619,12 L139.455012,12 L139.455012,23.8183923 Z M126.863546,19.4091962 C125.227092,18.9546808 124,17.6362885 124,15.7269269 C124,13.3635461 125.954019,12 128.045485,12 L138.000165,12 L138.000165,14.8635461 L132.181773,14.8635461 L132.181773,17.0909692 L136.681773,17.0909692 L136.681773,19.8637115 L132.181773,19.8637115 L132.181773,23.8183923 L129.090473,23.8183923 L129.090473,14.7722461 L127.999835,14.7722461 C127.499669,14.7722461 126.9087,15.0908038 126.9087,15.7269269 C126.9087,16.2270923 127.226761,16.5451538 127.636123,16.7272577 L126.863546,19.4091962 Z" id="flamp"></path>
            </g>
        </g>
    </g>
</svg>