<?xml version="1.0" encoding="UTF-8"?>
<svg width="43px" height="13px" viewBox="0 0 43 13" version="1.1" xmlns="http://www.w3.org/2000/svg" xmlns:xlink="http://www.w3.org/1999/xlink">
    <!-- Generator: Sketch 48.2 (47327) - http://www.bohemiancoding.com/sketch -->
    <title>hh.ru</title>
    <desc>Created with Sketch.</desc>
    <defs></defs>
    <g id="Главная" stroke="none" stroke-width="1" fill="none" fill-rule="evenodd" transform="translate(-1338.000000, -189.000000)">
        <g id="главная" transform="translate(50.000000, 115.000000)" fill="#FFFFFF">
            <g id="вакансии" transform="translate(1155.000000, 62.000000)">
                <path d="M138.384,15.264 C139.450672,15.264 140.311997,15.5839968 140.968,16.224 C141.624003,16.8640032 141.952,17.813327 141.952,19.072 L141.952,24 L139.456,24 L139.456,19.456 C139.456,18.7733299 139.306668,18.2640017 139.008,17.928 C138.709332,17.5919983 138.277336,17.424 137.712,17.424 C137.082664,17.424 136.581335,17.6186647 136.208,18.008 C135.834665,18.3973353 135.648,18.9759962 135.648,19.744 L135.648,24 L133.152,24 L133.152,12.128 L135.648,12.128 L135.648,16.288 C135.978668,15.9573317 136.378664,15.7040009 136.848,15.528 C137.317336,15.3519991 137.829331,15.264 138.384,15.264 Z M149.44,15.264 C150.506672,15.264 151.367997,15.5839968 152.024,16.224 C152.680003,16.8640032 153.008,17.813327 153.008,19.072 L153.008,24 L150.512,24 L150.512,19.456 C150.512,18.7733299 150.362668,18.2640017 150.064,17.928 C149.765332,17.5919983 149.333336,17.424 148.768,17.424 C148.138664,17.424 147.637335,17.6186647 147.264,18.008 C146.890665,18.3973353 146.704,18.9759962 146.704,19.744 L146.704,24 L144.208,24 L144.208,12.128 L146.704,12.128 L146.704,16.288 C147.034668,15.9573317 147.434664,15.7040009 147.904,15.528 C148.373336,15.3519991 148.885331,15.264 149.44,15.264 Z M156.208,24.128 C155.770664,24.128 155.402668,23.9786682 155.104,23.68 C154.805332,23.3813318 154.656,23.0080022 154.656,22.56 C154.656,22.101331 154.805332,21.7306681 155.104,21.448 C155.402668,21.1653319 155.770664,21.024 156.208,21.024 C156.645336,21.024 157.013332,21.1653319 157.312,21.448 C157.610668,21.7306681 157.76,22.101331 157.76,22.56 C157.76,23.0080022 157.610668,23.3813318 157.312,23.68 C157.013332,23.9786682 156.645336,24.128 156.208,24.128 Z M161.84,16.528 C162.138668,16.1119979 162.541331,15.7973344 163.048,15.584 C163.554669,15.3706656 164.138663,15.264 164.8,15.264 L164.8,17.568 C164.522665,17.5466666 164.336,17.536 164.24,17.536 C163.52533,17.536 162.965335,17.735998 162.56,18.136 C162.154665,18.536002 161.952,19.135996 161.952,19.936 L161.952,24 L159.456,24 L159.456,15.392 L161.84,15.392 L161.84,16.528 Z M175.024,15.392 L175.024,24 L172.656,24 L172.656,22.976 C172.325332,23.3493352 171.930669,23.6346657 171.472,23.832 C171.013331,24.0293343 170.517336,24.128 169.984,24.128 C168.853328,24.128 167.957337,23.8026699 167.296,23.152 C166.634663,22.5013301 166.304,21.5360064 166.304,20.256 L166.304,15.392 L168.8,15.392 L168.8,19.888 C168.8,21.2746736 169.381328,21.968 170.544,21.968 C171.141336,21.968 171.621332,21.7733353 171.984,21.384 C172.346668,20.9946647 172.528,20.4160038 172.528,19.648 L172.528,15.392 L175.024,15.392 Z" id="hh.ru"></path>
            </g>
        </g>
    </g>
</svg>