<?xml version="1.0" encoding="UTF-8"?>
<svg width="22px" height="26px" viewBox="0 0 22 26" version="1.1" xmlns="http://www.w3.org/2000/svg" xmlns:xlink="http://www.w3.org/1999/xlink">
    <!-- Generator: Sketch 48.2 (47327) - http://www.bohemiancoding.com/sketch -->
    <title>pdf</title>
    <desc>Created with Sketch.</desc>
    <defs></defs>
    <g id="Главная" stroke="none" stroke-width="1" fill="none" fill-rule="evenodd" transform="translate(-1136.000000, -712.000000)">
        <g id="главная" transform="translate(50.000000, 115.000000)" fill="#FFFFFF" fill-rule="nonzero">
            <g id="pdf" transform="translate(1086.000000, 597.000000)">
                <path d="M20.7320455,6.56854545 L14.4524545,0.498136364 C14.1215455,0.178454545 13.6801364,0 13.2204091,0 L1.77272727,0 C0.793590909,0 0,0.793590909 0,1.77272727 L0,24.2272727 C0,25.2064091 0.793590909,26 1.77272727,26 L19.5,26 C20.4791364,26 21.2727273,25.2064091 21.2727273,24.2272727 L21.2727273,7.84313636 C21.2727273,7.36213636 21.0777273,6.90240909 20.7320455,6.56854545 Z M14.5280909,2.21472727 L18.9610909,6.5 L14.5280909,6.5 L14.5280909,2.21472727 Z M20.0909091,24.2272727 C20.0909091,24.5528636 19.8255909,24.8181818 19.5,24.8181818 L1.77272727,24.8181818 C1.44713636,24.8181818 1.18181818,24.5528636 1.18181818,24.2272727 L1.18181818,1.77272727 C1.18181818,1.44713636 1.44713636,1.18181818 1.77272727,1.18181818 L13.2204091,1.18181818 C13.2641364,1.18181818 13.3043182,1.19718182 13.3462727,1.20604545 L13.3462727,6.5 C13.3462727,7.15177273 13.8763182,7.68181818 14.5280909,7.68181818 L20.0578182,7.68181818 C20.0731818,7.73440909 20.0909091,7.787 20.0909091,7.84313636 L20.0909091,24.2272727 Z" id="Shape"></path>
                <path d="M6.39659091,12.3121818 C5.72531818,12.3121818 5.07827273,12.3121818 4.40109091,12.3121818 L4.40109091,16.5454545 L5.34418182,16.5454545 L5.34418182,15.3476818 L6.39659091,15.3476818 C7.47263636,15.3358636 8.01745455,14.677 8.01745455,13.8296364 C8.01745455,13.0135909 7.47913636,12.3121818 6.39659091,12.3121818 Z M6.39659091,14.4837727 L5.34418182,14.4837727 L5.34418182,13.2074091 L6.39659091,13.2074091 C6.84390909,13.2074091 7.07377273,13.5099545 7.07377273,13.8485455 C7.07377273,14.1871364 6.85040909,14.4837727 6.39659091,14.4837727 Z" id="Shape"></path>
                <path d="M10.6665,12.3121818 L8.931,12.3121818 L8.931,16.5454545 C9.46281818,16.5454545 10.1340909,16.5454545 10.6665,16.5454545 C12.1479091,16.5454545 12.7713182,15.5054545 12.7713182,14.3986818 C12.7707273,13.2925 12.1236818,12.3121818 10.6665,12.3121818 Z M10.6665,15.6744545 L9.86227273,15.6744545 L9.86227273,13.1648636 L10.6665,13.1648636 C11.5493182,13.1648636 11.8400455,13.7758636 11.8400455,14.3862727 C11.8400455,14.9966818 11.5859545,15.6744545 10.6665,15.6744545 Z" id="Shape"></path>
                <polygon id="Shape" points="13.7876818 16.5454545 14.7307727 16.5454545 14.7307727 15.0274091 16.7386818 15.0274091 16.7386818 14.1865455 14.7307727 14.1865455 14.7307727 13.1831818 16.8716364 13.1831818 16.8716364 12.3186818 13.7876818 12.3186818"></polygon>
            </g>
        </g>
    </g>
</svg>