<?xml version="1.0" encoding="UTF-8"?>
<svg width="12px" height="13px" viewBox="0 0 12 13" version="1.1" xmlns="http://www.w3.org/2000/svg" xmlns:xlink="http://www.w3.org/1999/xlink">
    <!-- Generator: Sketch 48.2 (47327) - http://www.bohemiancoding.com/sketch -->
    <title></title>
    <desc>Created with Sketch.</desc>
    <defs></defs>
    <g id="Портфолио" stroke="none" stroke-width="1" fill="none" fill-rule="evenodd" transform="translate(-336.000000, -1989.000000)">
        <g id="форма" transform="translate(305.000000, 1496.000000)" fill="#252525">
            <g id="отправить" transform="translate(0.000000, 477.000000)">
                <g id="Group-2" transform="translate(31.000000, 15.000000)">
                    <path d="M11.8125,1.78794643 C11.9598222,1.89508982 12.0200894,2.03794554 11.9933036,2.21651786 L10.2790179,12.5022321 C10.2566963,12.6316971 10.1852685,12.7321425 10.0647321,12.8035714 C10.0022318,12.8392859 9.93303609,12.8571429 9.85714286,12.8571429 C9.80803547,12.8571429 9.75446458,12.8459823 9.69642857,12.8236607 L6.66294643,11.5848214 L5.04241071,13.5602679 C4.96205317,13.6629469 4.85267926,13.7142857 4.71428571,13.7142857 C4.65624971,13.7142857 4.60714306,13.7053572 4.56696429,13.6875 C4.48214243,13.6562498 4.41406276,13.603795 4.36272321,13.5301339 C4.31138367,13.4564728 4.28571429,13.3750004 4.28571429,13.2857143 L4.28571429,10.9486607 L10.0714286,3.85714286 L2.91294643,10.0513393 L0.267857143,8.96651786 C0.102677746,8.90401754 0.0133929241,8.78125092 3.25260652e-19,8.59821429 C-0.00892861607,8.41964196 0.0624992411,8.28794685 0.214285714,8.203125 L11.3571429,1.77455357 C11.4241075,1.7343748 11.4955353,1.71428571 11.5714286,1.71428571 C11.6607147,1.71428571 11.7410711,1.73883904 11.8125,1.78794643 Z" id=""></path>
                </g>
            </g>
        </g>
    </g>
</svg>