<?xml version="1.0" encoding="UTF-8"?>
<svg width="17px" height="18px" viewBox="0 0 17 18" version="1.1" xmlns="http://www.w3.org/2000/svg" xmlns:xlink="http://www.w3.org/1999/xlink">
    <!-- Generator: Sketch 47.1 (45422) - http://www.bohemiancoding.com/sketch -->
    <title>календарь</title>
    <desc>Created with Sketch.</desc>
    <defs></defs>
    <g id="Symbols" stroke="none" stroke-width="1" fill="none" fill-rule="evenodd">
        <g id="календарь" fill="#B3BFC9">
            <path d="M14.1429401,2.1500001 L15.5000008,2.1500001 C16.1627425,2.1500001 16.7000008,2.6872584 16.7000008,3.3500001 L16.7000008,16.3699997 C16.7000008,17.0327414 16.1627425,17.5699997 15.5000008,17.5699997 L1.2,17.5699997 C0.5372583,17.5699997 -3.6292676e-16,17.0327414 -4.4408921e-16,16.3699997 L0,3.3500001 L2.22044605e-16,3.3500001 C1.40882155e-16,2.6872584 0.5372583,2.1500001 1.2,2.1500001 L1.2,2.1500001 L2.57229412,2.1500001 L2.57229412,1.16740075 L2.57229412,1.16740075 C2.57229412,0.283745155 3.28863852,-0.432599245 4.17229412,-0.432599245 L4.17229412,-0.432599245 L4.83523449,-0.432599245 L4.83523449,-0.432599245 C5.71889009,-0.432599245 6.43523449,0.283745155 6.43523449,1.16740075 L6.43523449,2.1500001 L10.2799997,2.1500001 L10.2799997,1.16740075 L10.2799997,1.16740075 C10.2799997,0.283745155 10.9963441,-0.432599245 11.8799997,-0.432599245 L11.8799997,-0.432599245 L12.5429401,-0.432599245 L12.5429401,-0.432599245 C13.4265957,-0.432599245 14.1429401,0.283745155 14.1429401,1.16740075 L14.1429401,2.1500001 Z M1.27999997,6 L1.27999997,8.89999962 L4.17999983,8.89999962 L4.17999983,6 L1.27999997,6 Z M4.82000017,6 L4.82000017,8.89999962 L8.03999996,8.89999962 L8.03999996,6 L4.82000017,6 Z M8.68000031,6 L8.68000031,8.89999962 L11.9000001,8.89999962 L11.9000001,6 L8.68000031,6 Z M12.5299997,6 L12.5299997,8.89999962 L15.4299996,8.89999962 L15.4299996,6 L12.5299997,6 Z M1.27999997,9.53999996 L1.27999997,12.75 L4.17999983,12.75 L4.17999983,9.53999996 L1.27999997,9.53999996 Z M4.82000017,9.53999996 L4.82000017,12.75 L8.03999996,12.75 L8.03999996,9.53999996 L4.82000017,9.53999996 Z M8.68000031,9.53999996 L8.68000031,12.75 L11.9000001,12.75 L11.9000001,9.53999996 L8.68000031,9.53999996 Z M12.5299997,9.53999996 L12.5299997,12.75 L15.4299996,12.75 L15.4299996,9.53999996 L12.5299997,9.53999996 Z M1.27999997,13.3900003 L1.27999997,16.29 L4.17999983,16.29 L4.17999983,13.3900003 L1.27999997,13.3900003 Z M4.82000017,13.3900003 L4.82000017,16.29 L8.03999996,16.29 L8.03999996,13.3900003 L4.82000017,13.3900003 Z M8.68000031,13.3900003 L8.68000031,16.29 L11.9000001,16.29 L11.9000001,13.3900003 L8.68000031,13.3900003 Z M12.5299997,13.3900003 L12.5299997,16.29 L15.4299996,16.29 L15.4299996,13.3900003 L12.5299997,13.3900003 Z M4.1999999,0.850000024 C4.00670024,0.850000024 3.8499999,1.00670036 3.8499999,1.20000002 L3.8499999,4.0500001 C3.8499999,4.24329976 4.00670024,4.4000001 4.1999999,4.4000001 L4.8000001,4.4000001 C4.99329976,4.4000001 5.1500001,4.24329976 5.1500001,4.0500001 L5.1500001,1.20000002 C5.1500001,1.00670036 4.99329976,0.850000024 4.8000001,0.850000024 L4.8000001,0.850000024 L4.1999999,0.850000024 Z M11.9199997,0.850000024 C11.7267,0.850000024 11.5699997,1.00670036 11.5699997,1.20000002 L11.5699997,4.0500001 C11.5699997,4.24329976 11.7267,4.4000001 11.9199997,4.4000001 L12.5199999,4.4000001 C12.7132995,4.4000001 12.8699999,4.24329976 12.8699999,4.0500001 L12.8699999,1.20000002 C12.8699999,1.00670036 12.7132995,0.850000024 12.5199999,0.850000024 L11.9199997,0.850000024 Z" id="calendar"></path>
        </g>
    </g>
</svg>