<svg xmlns="http://www.w3.org/2000/svg" viewBox="0 0 78.78 77.95"><title>building</title><g id="Слой_2" data-name="Слой 2"><g id="Слой_10" data-name="Слой 10"><path d="M77.78,75.95h-2.7V21a2,2,0,0,0-2-2H55.23a2,2,0,0,0-2,2V75.95H50.08V2a2,2,0,0,0-2-2H30.23a2,2,0,0,0-2,2V75.95H25.08V31a2,2,0,0,0-2-2H5.23a2,2,0,0,0-2,2V75.95H1a1,1,0,0,0,0,2H77.78a1,1,0,0,0,0-2Zm-72.55,0V32a1,1,0,0,1,1-1H22.08a1,1,0,0,1,1,1V75.95Zm25,0V3a1,1,0,0,1,1-1H47.08a1,1,0,0,1,1,1V75.95Zm25,0V22a1,1,0,0,1,1-1H72.08a1,1,0,0,1,1,1V75.95Z"/><rect x="7.79" y="34.97" width="2.02" height="5.66" rx="1.01" ry="1.01"/><rect x="13.15" y="34.97" width="2.02" height="5.66" rx="1.01" ry="1.01"/><rect x="18.51" y="34.97" width="2.02" height="5.66" rx="1.01" ry="1.01"/><rect x="7.79" y="44.68" width="2.02" height="5.66" rx="1.01" ry="1.01"/><rect x="13.15" y="44.68" width="2.02" height="5.66" rx="1.01" ry="1.01"/><rect x="18.51" y="44.68" width="2.02" height="5.66" rx="1.01" ry="1.01"/><rect x="7.79" y="54.39" width="2.02" height="5.66" rx="1.01" ry="1.01"/><rect x="13.15" y="54.39" width="2.02" height="5.66" rx="1.01" ry="1.01"/><rect x="18.51" y="54.39" width="2.02" height="5.66" rx="1.01" ry="1.01"/><rect x="7.79" y="64.09" width="2.02" height="5.66" rx="1.01" ry="1.01"/><rect x="13.15" y="64.09" width="2.02" height="5.66" rx="1.01" ry="1.01"/><rect x="18.51" y="64.09" width="2.02" height="5.66" rx="1.01" ry="1.01"/><rect x="33.07" y="5.94" width="2.02" height="5.66" rx="1.01" ry="1.01"/><rect x="38.43" y="5.94" width="2.02" height="5.66" rx="1.01" ry="1.01"/><rect x="43.79" y="5.94" width="2.02" height="5.66" rx="1.01" ry="1.01"/><rect x="33.07" y="15.65" width="2.02" height="5.66" rx="1.01" ry="1.01"/><rect x="38.43" y="15.65" width="2.02" height="5.66" rx="1.01" ry="1.01"/><rect x="43.79" y="15.65" width="2.02" height="5.66" rx="1.01" ry="1.01"/><rect x="33.07" y="25.36" width="2.02" height="5.66" rx="1.01" ry="1.01"/><rect x="38.43" y="25.36" width="2.02" height="5.66" rx="1.01" ry="1.01"/><rect x="43.79" y="25.36" width="2.02" height="5.66" rx="1.01" ry="1.01"/><rect x="33.07" y="35.07" width="2.02" height="5.66" rx="1.01" ry="1.01"/><rect x="38.43" y="35.07" width="2.02" height="5.66" rx="1.01" ry="1.01"/><rect x="43.79" y="35.07" width="2.02" height="5.66" rx="1.01" ry="1.01"/><rect x="33.07" y="44.68" width="2.02" height="5.66" rx="1.01" ry="1.01"/><rect x="38.43" y="44.68" width="2.02" height="5.66" rx="1.01" ry="1.01"/><rect x="43.79" y="44.68" width="2.02" height="5.66" rx="1.01" ry="1.01"/><rect x="33.07" y="54.39" width="2.02" height="5.66" rx="1.01" ry="1.01"/><rect x="38.43" y="54.39" width="2.02" height="5.66" rx="1.01" ry="1.01"/><rect x="43.79" y="54.39" width="2.02" height="5.66" rx="1.01" ry="1.01"/><rect x="33.07" y="64.09" width="2.02" height="5.66" rx="1.01" ry="1.01"/><rect x="38.43" y="64.09" width="2.02" height="5.66" rx="1.01" ry="1.01"/><rect x="43.79" y="64.09" width="2.02" height="5.66" rx="1.01" ry="1.01"/><rect x="57.79" y="25.31" width="2.02" height="5.66" rx="1.01" ry="1.01"/><rect x="63.15" y="25.31" width="2.02" height="5.66" rx="1.01" ry="1.01"/><rect x="68.51" y="25.31" width="2.02" height="5.66" rx="1.01" ry="1.01"/><rect x="57.79" y="35.02" width="2.02" height="5.66" rx="1.01" ry="1.01"/><rect x="63.15" y="35.02" width="2.02" height="5.66" rx="1.01" ry="1.01"/><rect x="68.51" y="35.02" width="2.02" height="5.66" rx="1.01" ry="1.01"/><rect x="57.79" y="44.63" width="2.02" height="5.66" rx="1.01" ry="1.01"/><rect x="63.15" y="44.63" width="2.02" height="5.66" rx="1.01" ry="1.01"/><rect x="68.51" y="44.63" width="2.02" height="5.66" rx="1.01" ry="1.01"/><rect x="57.79" y="54.34" width="2.02" height="5.66" rx="1.01" ry="1.01"/><rect x="63.15" y="54.34" width="2.02" height="5.66" rx="1.01" ry="1.01"/><rect x="68.51" y="54.34" width="2.02" height="5.66" rx="1.01" ry="1.01"/><rect x="57.79" y="64.04" width="2.02" height="5.66" rx="1.01" ry="1.01"/><rect x="63.15" y="64.04" width="2.02" height="5.66" rx="1.01" ry="1.01"/><rect x="68.51" y="64.04" width="2.02" height="5.66" rx="1.01" ry="1.01"/></g></g></svg>