<svg xmlns="http://www.w3.org/2000/svg" viewBox="0 0 79.96 66.58"><defs><style>.cls-1{fill:#1d1d1b;}</style></defs><title>cards</title><g id="Слой_2" data-name="Слой 2"><g id="Слой_11" data-name="Слой 11"><path class="cls-1" d="M61.54,37.94h-2l2.61,13.44a3,3,0,0,1-2.37,3.52L11.08,64.35A3,3,0,0,1,7.56,62L2.23,34.56A3,3,0,0,1,4.6,31L20.38,28v-2L3.24,29.27A4,4,0,0,0,.07,34L5.79,63.35a4,4,0,0,0,4.69,3.16L61.1,56.67A4,4,0,0,0,64.27,52Z"/><path class="cls-1" d="M14.6,39.67,7.73,41a2,2,0,0,0-1.58,2.34l1,4.91a2,2,0,0,0,2.34,1.58l6.87-1.34a2,2,0,0,0,1.58-2.34l-1-4.91A2,2,0,0,0,14.6,39.67Zm1.14,5.89A1,1,0,0,1,15,46.73l-4.91,1a1,1,0,0,1-1.17-.79L8.3,43.95a1,1,0,0,1,.79-1.17l4.91-1a1,1,0,0,1,1.17.79Z"/><rect class="cls-1" x="8.71" y="55.04" width="11" height="2" rx="1" ry="1" transform="translate(-10.43 3.74) rotate(-11)"/><rect class="cls-1" x="21.48" y="52.56" width="11" height="2" rx="1" ry="1" transform="translate(-9.72 6.13) rotate(-11)"/><rect class="cls-1" x="34.24" y="50.08" width="11" height="2" rx="1" ry="1" transform="translate(-9.02 8.52) rotate(-11)"/><rect class="cls-1" x="47.98" y="47.41" width="11" height="2" rx="1" ry="1" transform="translate(-8.25 11.09) rotate(-11)"/><path class="cls-1" d="M76,0H24.38a4,4,0,0,0-4,4V33.94a4,4,0,0,0,4,4H76a4,4,0,0,0,4-4V4A4,4,0,0,0,76,0Zm2,32.94a3,3,0,0,1-3,3H25.38a3,3,0,0,1-3-3v-15H78Zm0-17H22.38v-7H78Zm0-9H22.38V5a3,3,0,0,1,3-3H75a3,3,0,0,1,3,3Z"/></g></g></svg>