<svg xmlns="http://www.w3.org/2000/svg" viewBox="0 0 56.88 80"><title>concept</title><g id="Слой_2" data-name="Слой 2"><g id="Слой_18" data-name="Слой 18"><path d="M53.5,36.87a4.69,4.69,0,0,0-4.69-4.69H5.07a4.68,4.68,0,0,0-1.55,9.09h0V73a7,7,0,0,0,7,7H43.38a7,7,0,0,0,7-7V41.28h0A4.67,4.67,0,0,0,53.5,36.87ZM42.88,78H11a5.5,5.5,0,0,1-5.5-5.5V41.56H48.38V72.5A5.5,5.5,0,0,1,42.88,78Zm5.94-38.44H5.07a2.69,2.69,0,1,1,0-5.37H48.82a2.69,2.69,0,0,1,0,5.38Z"/><path d="M34.32,0H22.69a2,2,0,0,0-2,2V32.19h2V2H34.32V7.26H29.5a1,1,0,0,0,0,2h4.81v4H29.5a1,1,0,0,0,0,2h4.81v5H29.5a1,1,0,1,0,0,2h4.81v5H29.5a1,1,0,1,0,0,2h4.81v2.93h2V2A2,2,0,0,0,34.32,0Z"/><path d="M14.64,11.76,5.55,1.07a1.5,1.5,0,0,0-2.44.61l-3,13.71a2,2,0,0,0-.05,1.14l4,16.1H6.14L2.47,17.93l1,.09a15,15,0,0,0,9.47-2.36l.83-.54,4.3,17.24,2-.17L15.22,12.74A2,2,0,0,0,14.64,11.76ZM3,16.07,2.09,16,4.7,2.82l8.49,10.42-.74.48A15,15,0,0,1,3,16.07Z"/><path d="M37.47,32.19,40.08,26A94.3,94.3,0,0,1,45,16a6.7,6.7,0,0,0,6.48,2.36A94.3,94.3,0,0,1,48.85,29.2l-1,3.32h2.1l.94-3.19a89.3,89.3,0,0,0,2.61-11.68A6.72,6.72,0,0,0,56.59,14c.93-2.55-.54-9-1.42-12.26A1.49,1.49,0,0,0,52.86.94c-2.79,2-8,5.93-9,8.48A6.72,6.72,0,0,0,44,14.19a89.3,89.3,0,0,0-5.51,10.63l-3.22,7.38Zm11.15-16a4.81,4.81,0,0,1-2.8-6.2c.92-2.53,7.61-7,7.61-7s2.24,7.74,1.32,10.27A4.81,4.81,0,0,1,48.62,16.19Z"/></g></g></svg>