<svg xmlns="http://www.w3.org/2000/svg" viewBox="0 0 80 63.72"><title>context_1</title><g id="Слой_2" data-name="Слой 2"><g id="Слой_15" data-name="Слой 15"><path d="M77,55H3a3,3,0,0,0-3,3v1.67a4,4,0,0,0,4,4H76a4,4,0,0,0,4-4V58A3,3,0,0,0,77,55Zm1,4.67a2,2,0,0,1-2,2H4a2,2,0,0,1-2-2V58a1,1,0,0,1,1-1H35v0a1,1,0,0,0,1,1h8a1,1,0,0,0,1-1v0H77a1,1,0,0,1,1,1Z"/><path d="M72.24,0H7.76a4,4,0,0,0-4,4V55h2V5a3,3,0,0,1,3-3H71.24a3,3,0,0,1,3,3V55h2V4A4,4,0,0,0,72.24,0Z"/><rect x="8.77" y="5.18" width="62.46" height="2" rx="1" ry="1"/><rect x="8.77" y="50.18" width="62.46" height="2" rx="1" ry="1"/><rect x="56.24" y="25.18" width="8.61" height="2" rx="1" ry="1"/><rect x="54.77" y="19.58" width="5.2" height="2" rx="1" ry="1" transform="translate(-2.61 31.44) rotate(-30)"/><rect x="54.77" y="30.86" width="5.2" height="2" rx="1" ry="1" transform="translate(23.62 -24.42) rotate(30)"/><path d="M50.33,21.84l-1.93-.37V16.25a2,2,0,0,0-2.71-1.87L30.84,20H25.17a4,4,0,0,0-4,4V28.4a4,4,0,0,0,2.45,3.69l3.95,10.83a3,3,0,0,0,2.82,2h3.16a2,2,0,0,0,1.88-2.68L32,32.89l13.66,5.2a2,2,0,0,0,2.71-1.87V31l1.93-.37a4,4,0,0,0,3.24-3.93v-.9A4,4,0,0,0,50.33,21.84ZM23.17,24a2,2,0,0,1,2-2H30V30.4H25.17a2,2,0,0,1-2-2Zm6.39,18.85L25.82,32.65h4.12l3.73,10.24Zm16.85-6.76L32,30.76v-9l14.38-5.37Zm5.17-9.52a2,2,0,0,1-1.78,2l-1.39.16V23.7l1.39.16a2,2,0,0,1,1.78,2Z"/></g></g></svg>