<svg xmlns="http://www.w3.org/2000/svg" viewBox="0 0 80 74.66"><title>landing</title><g id="Слой_2" data-name="Слой 2"><g id="Слой_13" data-name="Слой 13"><path d="M76,0H4A4,4,0,0,0,0,4V54.6a4,4,0,0,0,4,4H76a4,4,0,0,0,4-4V4A4,4,0,0,0,76,0Zm2,53.6a3,3,0,0,1-3,3H5a3,3,0,0,1-3-3V5A3,3,0,0,1,5,2H75a3,3,0,0,1,3,3Z"/><path d="M56.15,69.24a8.83,8.83,0,0,0-6.24-2.59H30.22A8.83,8.83,0,0,0,24,69.24a4.83,4.83,0,0,0-1.41,3.41,2,2,0,0,0,2,2h31a2,2,0,0,0,2-2A4.83,4.83,0,0,0,56.15,69.24Zm-1.09,2.41a1,1,0,0,1-1,1h-28a1,1,0,0,1-1-1h0a1.74,1.74,0,0,1,.86-1.5l.7-.41a8,8,0,0,1,4-1.09H49.48a8,8,0,0,1,4,1.09l.7.41a1.74,1.74,0,0,1,.86,1.5Z"/><polygon points="34.19 58.6 32.19 58.6 29.89 66.66 31.89 66.66 34.19 58.6"/><polygon points="48.03 58.6 46.03 58.6 48.04 66.66 50.04 66.66 48.03 58.6"/><rect x="2" y="45.67" width="76" height="2"/><path d="M31.33,5.33H14a2,2,0,0,0-2,2V24.67a2,2,0,0,0,2,2H31.33a2,2,0,0,0,2-2V7.33A2,2,0,0,0,31.33,5.33Zm0,18.33a1,1,0,0,1-1,1H15a1,1,0,0,1-1-1V8.33a1,1,0,0,1,1-1H30.33a1,1,0,0,1,1,1Z"/><rect x="38.66" y="6.52" width="22.67" height="2" rx="1" ry="1"/><rect x="45.66" y="14.52" width="22.67" height="2" rx="1" ry="1"/><rect x="38.66" y="22.67" width="6" height="2" rx="1" ry="1"/><rect x="51.66" y="22.67" width="16.67" height="2" rx="1" ry="1"/><rect x="11.99" y="30.67" width="16.67" height="2" rx="1" ry="1"/><rect x="38.66" y="30.67" width="22.67" height="2" rx="1" ry="1"/><rect x="18.66" y="38.67" width="22.67" height="2" rx="1" ry="1"/><rect x="45.66" y="38.67" width="22.67" height="2" rx="1" ry="1"/></g></g></svg>