<svg xmlns="http://www.w3.org/2000/svg" viewBox="0 0 80 67.5"><title>media</title><g id="Слой_2" data-name="Слой 2"><g id="Слой_13" data-name="Слой 13"><path d="M76,2a2,2,0,0,1,2,2V63.5a2,2,0,0,1-2,2H4a2,2,0,0,1-2-2V4A2,2,0,0,1,4,2H76m0-2H4A4,4,0,0,0,0,4V63.5a4,4,0,0,0,4,4H76a4,4,0,0,0,4-4V4a4,4,0,0,0-4-4Z"/><polygon points="16.01 2 14.01 2 14.01 16.75 2 16.75 2 18.75 14.01 18.75 14.01 32.75 2 32.75 2 34.75 14.01 34.75 14.01 48.75 2 48.75 2 50.75 14.01 50.75 14.01 65.5 16.01 65.5 16.01 2 16.01 2"/><polygon points="66.01 2 64.01 2 64.01 65.5 66.01 65.5 66.01 50.75 78.01 50.75 78.01 48.75 66.01 48.75 66.01 34.75 78.01 34.75 78.01 32.75 66.01 32.75 66.01 18.75 78.01 18.75 78.01 16.75 66.01 16.75 66.01 2 66.01 2"/><path d="M33.25,25l17.53,8.78L33.25,42.53V25m-1-2.62a1,1,0,0,0-1,1v20.8A1,1,0,0,0,32.7,45l20.76-10.4a1,1,0,0,0,0-1.79L32.7,22.45a1,1,0,0,0-.45-.11Z"/></g></g></svg>