<svg xmlns="http://www.w3.org/2000/svg" viewBox="0 0 80 67.5"><title>promo</title><g id="Слой_2" data-name="Слой 2"><g id="Слой_12" data-name="Слой 12"><path d="M76,0H4A4,4,0,0,0,0,4V63.5a4,4,0,0,0,4,4H76a4,4,0,0,0,4-4V4A4,4,0,0,0,76,0ZM28.73,2H40.47L37,15H25.25ZM23.18,15H11.44L14.92,2H26.66ZM42.54,2H54.28L50.8,15H39.06ZM56.35,2H68.09L64.61,15H52.87ZM2,5A3,3,0,0,1,5,2h7.85L9.37,15H2ZM78,62.5a3,3,0,0,1-3,3H5a3,3,0,0,1-3-3V17H78ZM78,15H66.68L70.16,2H75a3,3,0,0,1,3,3Z"/><path d="M33.25,31.22,50.78,40,33.25,48.78V31.22m-1-2.62a1,1,0,0,0-1,1V50.4a1,1,0,0,0,1.45.89L53.46,40.9a1,1,0,0,0,0-1.79L32.7,28.71a1,1,0,0,0-.45-.11Z"/></g></g></svg>