<svg xmlns="http://www.w3.org/2000/svg" viewBox="0 0 79.95 80"><title>support</title><g id="Слой_2" data-name="Слой 2"><g id="Слой_17" data-name="Слой 17"><path d="M40,24.43A15.57,15.57,0,1,1,24.38,40,15.59,15.59,0,0,1,40,24.43m0-2A17.57,17.57,0,1,0,57.53,40,17.57,17.57,0,0,0,40,22.43Z"/><path d="M70.25,30.3a31.67,31.67,0,0,0-2-4.84L73.68,20a2,2,0,0,0,0-2.83L62.79,6.3A2,2,0,0,0,60,6.3l-5.42,5.42a31.5,31.5,0,0,0-4.88-2h0V2a2,2,0,0,0-2-2H32.25a2,2,0,0,0-2,2V9.69h0a31.41,31.41,0,0,0-4.87,2L20,6.29a2,2,0,0,0-2.83,0L6.24,17.19a2,2,0,0,0,0,2.83l5.44,5.44a31.67,31.67,0,0,0-2,4.85H2a2,2,0,0,0-2,2V47.7a2,2,0,0,0,2,2H9.65a31.67,31.67,0,0,0,2,4.87h0L6.26,60a2,2,0,0,0,0,2.83L17.16,73.71a2,2,0,0,0,2.83,0l5.42-5.42h0a31.54,31.54,0,0,0,4.84,2V78a2,2,0,0,0,2,2H47.66a2,2,0,0,0,2-2V70.31h0v0a31.55,31.55,0,0,0,4.85-2l5.43,5.43a2,2,0,0,0,2.83,0L73.66,62.83a2,2,0,0,0,0-2.83l-5.44-5.44a31.67,31.67,0,0,0,2-4.86H78a2,2,0,0,0,2-2V32.3a2,2,0,0,0-2-2h-7.7m-20.6,37.9h0Zm3.38-55,.08,0,0,0,.41.21.05,0a2,2,0,0,0,2.32-.37l.4-.4h0l5-5L72.27,18.61l-5,5-.4.4a2,2,0,0,0-.37,2.32l0,.05.21.41.06.12h0a29.59,29.59,0,0,1,1.45,3.48l.15.44,0,.05a2,2,0,0,0,1.9,1.38H78V47.7h-7.7a2,2,0,0,0-1.9,1.38l0,.06-.15.44a29.64,29.64,0,0,1-1.46,3.51h0l-.29.58A2,2,0,0,0,66.8,56l.41.39,5,5L61.36,72.31l-5-5h0l-.4-.41a2,2,0,0,0-2.32-.37l-.58.29h0a29.62,29.62,0,0,1-3.36,1.4L49,68.4a2,2,0,0,0-1.38,1.9V78H32.25V70.88c-.34-.08-.67-.19-1-.28.33.09.66.2,1,.28h0V70.3a2,2,0,0,0-1.38-1.9l-.62-.21a29.61,29.61,0,0,1-3.35-1.39l-.13-.06-.41-.2-.05,0a2,2,0,0,0-2.32.37l-.39.39-5,5L7.68,61.41l5-5h0L13.1,56a2,2,0,0,0,.37-2.32l0-.05-.21-.41-.05-.11h0a29.65,29.65,0,0,1-1.46-3.52l-.15-.43,0-.06a2,2,0,0,0-1.9-1.38H2V32.3H9.66a2,2,0,0,0,1.9-1.38l0-.05.15-.44a29.56,29.56,0,0,1,1.45-3.48h0l.29-.58A2,2,0,0,0,13.09,24l-.4-.4h0l-5-5L18.54,7.71l5,5h0l.41.41a2,2,0,0,0,2.32.37l.1-.05.48-.25a29.62,29.62,0,0,1,3.37-1.41h0l.62-.21a2,2,0,0,0,1.38-1.9V2H47.66V9.7A2,2,0,0,0,49,11.6l.62.21h0A29.6,29.6,0,0,1,53,13.22"/></g></g></svg>