<svg xmlns="http://www.w3.org/2000/svg" viewBox="0 0 68.13 79.69"><title>support_smm</title><g id="Слой_2" data-name="Слой 2"><g id="Слой_19" data-name="Слой 19"><path d="M15.48,15.48A15.48,15.48,0,1,0,31,31,15.48,15.48,0,0,0,15.48,15.48Zm0,29A13.48,13.48,0,1,1,29,31,13.48,13.48,0,0,1,15.48,44.45Z"/><path d="M49.61,44.6a2.85,2.85,0,0,1,2,1.15V4a4,4,0,0,0-4-4H16.9a4,4,0,0,0-4,4V16.4a17.84,17.84,0,0,1,2-.18V10H49.61ZM14.9,8V4.5A2.5,2.5,0,0,1,17.4,2H47.11a2.5,2.5,0,0,1,2.5,2.5V8Z"/><path d="M26.9,66.72c0-.1-.09-.22-.14-.34H17.4a2.5,2.5,0,0,1-2.5-2.5V58.37h8.86c-.15-.79-.27-1.48-.36-2H14.9V45.71a17.84,17.84,0,0,1-2-.18V64.39a4,4,0,0,0,4,4H27.81A13.13,13.13,0,0,1,26.9,66.72Z"/><path d="M15.48,40.36,7.12,33.15a5.84,5.84,0,0,1-2-4.27,5.62,5.62,0,0,1,5.6-5.62,6.27,6.27,0,0,1,4.72,2,6.26,6.26,0,0,1,4.72-2,5.62,5.62,0,0,1,5.6,5.62,5.84,5.84,0,0,1-2,4.29Zm-4.72-15.1a3.62,3.62,0,0,0-3.6,3.62A3.85,3.85,0,0,0,8.4,31.62l7.08,6.1,7.06-6.08a3.8,3.8,0,0,0,1.26-2.75,3.62,3.62,0,0,0-3.6-3.62,4.36,4.36,0,0,0-3.82,1.92l-.9,1.19-.9-1.19A4.36,4.36,0,0,0,10.76,25.26Z"/><path d="M66.64,44.08a4.44,4.44,0,0,0-3.42-1.2,4.71,4.71,0,0,0-3.87,1.89A4.53,4.53,0,0,0,55.5,43a4.6,4.6,0,0,0-3.89,1.75,4.74,4.74,0,0,0-4-1.75,5.09,5.09,0,0,0-2.81.74V31a5.23,5.23,0,0,0-1.33-3.51,4.81,4.81,0,0,0-3.61-1.36,4.61,4.61,0,0,0-3.51,1.35A5.14,5.14,0,0,0,35.13,31V57.5c0,.11,0,.66-.81.76s-1-.21-1.08-.38l-2.17-7.24a4.36,4.36,0,0,0-5.66-2.56,4.48,4.48,0,0,0-3.17,5.27c.05.35,1.37,8.62,2.66,11.38a12.13,12.13,0,0,0,3.92,4.81c1.67,1.33,3.2,2.58,3.87,3.13v7h30l0-1s.15-3.57,2.18-5.62A10.47,10.47,0,0,0,68.13,66V47.82A5.66,5.66,0,0,0,66.64,44.08ZM66.13,66a8.52,8.52,0,0,1-2.58,5.67,10.83,10.83,0,0,0-2.7,6H34.69v-6l-.36-.3s-2-1.65-4.26-3.45a10.12,10.12,0,0,1-3.35-4.09c-1.17-2.5-2.48-10.76-2.5-10.89A2.55,2.55,0,0,1,26,50c2.33-.69,3.08,1,3.18,1.26l2.12,7.06a2.75,2.75,0,0,0,3.3,1.93,2.79,2.79,0,0,0,2.53-2.74V30.91a3.18,3.18,0,0,1,.7-2.06,2.7,2.7,0,0,1,2.05-.72,2.91,2.91,0,0,1,2.16.75A3.21,3.21,0,0,1,42.81,31V47.66s0,.06,0,.08V52.9h2V47.64a3,3,0,0,1,.71-1.9A2.8,2.8,0,0,1,47.63,45a2.67,2.67,0,0,1,3,2.69V52.9h2V47.7A2.66,2.66,0,0,1,55.5,45a2.69,2.69,0,0,1,2.85,2.81v5.09h2V47.82a2.85,2.85,0,0,1,2.93-2.94,2.56,2.56,0,0,1,2,.63,3.64,3.64,0,0,1,.89,2.31Z"/></g></g></svg>