<?xml version="1.0" standalone="no"?>
<!DOCTYPE svg PUBLIC "-//W3C//DTD SVG 20010904//EN"
 "http://www.w3.org/TR/2001/REC-SVG-20010904/DTD/svg10.dtd">
<svg version="1.0" xmlns="http://www.w3.org/2000/svg"
 width="260.000000pt" height="260.000000pt" viewBox="0 0 260.000000 260.000000"
 preserveAspectRatio="xMidYMid meet">
<metadata>
Created by potrace 1.11, written by Peter Selinger 2001-2013
</metadata>
<g transform="translate(0.000000,260.000000) scale(0.100000,-0.100000)"
fill="#000000" stroke="none">
<path d="M736 2313 c-13 -7 -26 -20 -30 -29 -8 -22 -8 -1946 0 -1968 13 -34
54 -43 199 -41 77 1 149 4 161 8 42 14 44 39 44 452 0 217 3 396 8 396 4 1
145 2 314 3 337 2 330 0 346 61 5 17 8 86 7 153 -3 181 27 167 -358 168 l-312
1 -3 217 -2 216 369 0 c203 0 377 3 386 6 34 13 44 57 44 183 0 129 -9 166
-43 178 -12 4 -265 7 -564 8 -409 0 -549 -3 -566 -12z"/>
</g>
</svg>
