<?xml version="1.0" encoding="UTF-8"?>
<svg width="28px" height="28px" viewBox="0 0 28 28" version="1.1" xmlns="http://www.w3.org/2000/svg" xmlns:xlink="http://www.w3.org/1999/xlink">
    <!-- Generator: Sketch 48.2 (47327) - http://www.bohemiancoding.com/sketch -->
    <title>analysis</title>
    <desc>Created with Sketch.</desc>
    <defs></defs>
    <g id="Проекты---бцкз" stroke="none" stroke-width="1" fill="none" fill-rule="evenodd" transform="translate(-513.000000, -1476.000000)">
        <g id="процесс-работы" transform="translate(0.000000, 1309.000000)" fill="#D91D00" fill-rule="nonzero">
            <g id="analysis" transform="translate(513.000000, 167.000000)">
                <path d="M9.34617138,0.424178462 C6.98250985,0.424178462 4.617156,1.31664 2.81734031,3.11648615 C-0.782259785,6.71614769 -0.782413631,12.5744985 2.81734031,16.1741908 C6.12143292,19.4783446 11.3174329,19.74336 14.9327252,16.9818831 L16.3077098,18.3472677 L16.0865714,18.5684369 C15.8229714,18.7900062 15.8958945,19.2420677 16.0865714,19.4434215 L24.3558022,27.7126523 C24.5836483,27.9404677 25.0029406,27.9404677 25.2307868,27.7126523 L27.4038637,25.5299754 C27.6316791,25.3021292 27.6316791,24.8924369 27.4038637,24.66456 L19.1346329,16.3953292 C18.9067868,16.1675446 18.4874945,16.1675446 18.2596483,16.3953292 L18.0384791,16.6164985 L16.6730945,15.2414831 C19.4346022,11.6248554 19.1694945,6.42060923 15.8654022,3.11648615 C14.0655252,1.31664 11.7098329,0.424178462 9.34617138,0.424178462 Z M9.34617138,1.64534769 C11.3922637,1.64531692 13.4353098,2.42679385 15.0000175,3.99150154 C18.1293406,7.12082462 18.1294022,12.1697908 15.0000175,15.2992062 C11.8706945,18.4284985 6.81204831,18.4285292 3.68272523,15.2992062 C0.5533096,12.1698523 0.553432677,7.12079385 3.68272523,3.99150154 C5.24737138,2.42682462 7.30007908,1.64534769 9.34617138,1.64534769 Z M18.701956,17.7030215 L26.0961714,25.0972677 L24.7884791,26.40496 L17.3942637,19.0107138 L18.701956,17.7030215 Z" id="Shape"></path>
            </g>
        </g>
    </g>
</svg>