<?xml version="1.0" encoding="UTF-8"?>
<svg width="32px" height="32px" viewBox="0 0 32 32" version="1.1" xmlns="http://www.w3.org/2000/svg" xmlns:xlink="http://www.w3.org/1999/xlink">
    <!-- Generator: Sketch 48.2 (47327) - http://www.bohemiancoding.com/sketch -->
    <title>arcitecture</title>
    <desc>Created with Sketch.</desc>
    <defs></defs>
    <g id="Проекты---бцкз" stroke="none" stroke-width="1" fill="none" fill-rule="evenodd" transform="translate(-511.000000, -1705.000000)">
        <g id="процесс-работы" transform="translate(0.000000, 1309.000000)" fill="#D91D00" fill-rule="nonzero">
            <g id="arcitecture" transform="translate(511.000000, 396.000000)">
                <path d="M15.00018,0.0051 C14.7240491,0.00512760895 14.5002076,0.228969062 14.50018,0.5051 L14.50018,3.5051 C14.5002076,3.78123094 14.7240491,4.00507239 15.00018,4.0051 L15.50018,4.0051 L15.50018,5.0559 C13.81057,5.3019 12.50018,6.7493 12.50018,8.5051 C12.50018,9.0136 12.61406,9.4941 12.81073,9.9309 L10.25799,17.2727 C8.88623,16.374 7.7292,15.1802 6.90643,13.7551 L6.0412,14.2551 C6.98428,15.8886 8.32187,17.2524 9.91815,18.2492 L7.26385,25.8821 C7.17617657,26.1352928 7.30365251,26.4125947 7.55291,26.5109 L7.92401,26.6574 L7.18768,28.5188 L7.25018,29.2297 C5.16325,28.3485 3.20817,27.1566 1.45916,25.675 L0.81268,26.4387 C2.5653,27.9233 4.51956,29.1201 6.59979,30.0285 L6.59379,30.0405 L7.33012,30.353 L7.35352,30.363 L7.54102,30.431 L7.88672,29.4935 L7.72266,29.4325 L7.72066,29.4325 L7.57418,29.3705 L8.11715,28.8862 L8.85348,27.0248 L9.22652,27.1733 C9.48270137,27.274753 9.77267918,27.149852 9.87496,26.894 L12.78512,19.5366 C13.58913,19.7707 14.41483,19.9195 15.24996,19.9741 L15.24996,20.7553 C15.24996,21.1708 15.58446,21.5053 15.99996,21.5053 C16.41546,21.5053 16.74996,21.1708 16.74996,20.7553 L16.74996,19.9741 C17.58528,19.9191 18.41056,19.771 19.2148,19.5366 L22.12496,26.894 C22.2272408,27.149852 22.5172186,27.274753 22.7734,27.1733 L23.14644,27.0248 L23.88277,28.8862 L24.42379,29.3705 L24.22066,29.4565 L24.20896,29.4565 L24.19726,29.4665 L24.16016,29.4785 L24.50195,30.418 L24.56445,30.397 L24.58595,30.387 L24.95313,30.2327 C24.97223,30.2227 24.99073,30.2157 25.00973,30.2077 L25.44918,30.0222 L25.44318,30.0082 C27.50719,29.1019 29.44684,27.9122 31.18732,26.4378 L30.54084,25.6742 C28.79204,27.1556 26.83646,28.3457 24.74982,29.2269 L24.81232,28.5179 L24.07599,26.6566 L24.44709,26.51 C24.6963475,26.4116947 24.8238234,26.1343928 24.73615,25.8812 L22.08185,18.2483 C23.67836,17.2514 25.01559,15.8879 25.9588,14.2541 L25.09357,13.7541 C24.27089,15.1791 23.11362,16.3728 21.74201,17.2717 L19.18927,9.9299 C19.38594,9.4931 19.49982,9.0127 19.49982,8.5041 C19.49982,6.7484 18.18943,5.301 16.49982,5.0549 L16.49982,4.0041 L16.99982,4.0041 C17.2759509,4.00407239 17.4997924,3.78023094 17.49982,3.5041 L17.49982,0.5041 C17.4997925,0.22810957 17.2761703,0.00432628815 17.00018,0.0041 L15.00018,0.0041 L15.00018,0.0051 Z M15.50018,1.0051 L16.50018,1.0051 L16.50018,3.0051 L15.50018,3.0051 L15.50018,1.0051 Z M16.00018,6.0051 C17.38682,6.0051 18.50018,7.1185 18.50018,8.5051 C18.50018,8.956 18.37272,9.3714 18.1662,9.7356 C18.0969,9.8575 18.01908,9.9721 17.93182,10.0792 C17.90662,10.1102 17.88222,10.1412 17.85562,10.1712 C17.75722,10.2808 17.64884,10.3797 17.53335,10.47 C17.50885,10.489 17.48635,10.51 17.46105,10.529 C17.31714,10.633 17.16377,10.725 17.00011,10.7965 C16.99911,10.7971 16.99711,10.7975 16.99611,10.7965 C16.83116,10.8685 16.6565,10.9196 16.47658,10.9547 C16.32221,10.9847 16.16335,11.0037 16.00002,11.0037 C15.84007,11.0037 15.68461,10.9847 15.53322,10.9567 C15.16649,10.8867 14.82564,10.7351 14.53127,10.5212 C14.51477,10.5092 14.50057,10.4942 14.48437,10.4822 C14.36153,10.3882 14.24837,10.2835 14.14452,10.1677 C14.11832,10.1387 14.09322,10.1087 14.06832,10.0777 C13.98102,9.9707 13.90326,9.8558 13.83394,9.734 C13.62742,9.3698 13.49996,8.9544 13.49996,8.5035 C13.49996,7.1169 14.61332,6.0035 15.99996,6.0035 L16.00018,6.0051 Z M16.00018,7.5051 C15.4478953,7.5051 15.00018,7.95281525 15.00018,8.5051 C15.00018,9.05738475 15.4478953,9.5051 16.00018,9.5051 C16.5524647,9.5051 17.00018,9.05738475 17.00018,8.5051 C17.00018,7.95281525 16.5524647,7.5051 16.00018,7.5051 Z M13.51385,10.9602 C13.86795,11.3188 14.30144,11.5925 14.78143,11.7727 L9.12909,26.0598 L8.36541,25.759 L13.51385,10.9602 Z M18.48651,10.9602 L23.63495,25.759 L22.87127,26.0598 L17.21698,11.7727 C17.69767,11.5925 18.13199,11.3191 18.48651,10.9602 Z M15.77557,11.9817 C15.85127,11.9917 15.92322,12.0047 16.00018,12.0047 C16.07718,12.0047 16.14904,11.9857 16.22479,11.9817 L18.84588,18.6047 C18.16075,18.7976 17.45978,18.9232 16.75018,18.9739 L16.75018,18.2551 C16.75018,17.8396 16.41568,17.5051 16.00018,17.5051 C15.58468,17.5051 15.25018,17.8396 15.25018,18.2551 L15.25018,18.9739 C14.54058,18.9229 13.83963,18.7977 13.15448,18.6047 L15.77557,11.9817 Z M23.22088,29.8196 L23.16618,29.8396 L22.28922,30.111 L22.58414,31.0661 L23.48454,30.7888 L23.50794,30.7788 L23.56454,30.7578 L23.22079,29.8203 L23.22088,29.8196 Z M8.80487,29.8296 L8.50604,30.7845 L9.45916,31.0815 L9.75799,30.1284 L8.80487,29.8296 Z M21.34784,30.3569 L21.06073,30.4349 L20.39666,30.5716 L20.59393,31.55 L21.25995,31.4153 L21.28335,31.4053 L21.59585,31.3253 L21.34781,30.3565 L21.34784,30.3569 Z M10.70135,30.3689 L10.4494,31.3416 L10.64862,31.3946 L10.67402,31.3946 L11.45331,31.5548 L11.65449,30.5763 L10.87519,30.4142 L10.70136,30.3692 L10.70135,30.3689 Z M19.43573,30.7401 L18.8537,30.8281 L18.842,30.8281 L18.8283,30.8281 L18.46893,30.8631 L18.57049,31.8592 L18.9533,31.8202 L18.9767,31.8202 L19.58608,31.7282 L19.43569,30.7399 L19.43573,30.7401 Z M12.61541,30.7401 L12.46307,31.7302 L12.97284,31.8082 L12.99824,31.8082 L13.47871,31.8592 L13.58027,30.8631 L13.12324,30.8181 L13.12124,30.8181 L12.61538,30.7401 L12.61541,30.7401 Z M14.55096,30.9491 L14.50016,31.9491 L15.3693,31.9961 L15.3927,31.9961 L15.52356,31.9961 L15.52556,30.9941 L15.42009,30.9941 L15.40839,30.9941 L15.39669,30.9941 L14.55099,30.9491 L14.55096,30.9491 Z M17.49823,30.9491 L16.58026,30.9961 L16.52556,30.9961 L16.52556,31.9961 L16.57826,31.9961 L16.60366,31.9961 L17.54897,31.9491 L17.49817,30.9491 L17.49823,30.9491 Z" id="Shape"></path>
            </g>
        </g>
    </g>
</svg>