<?xml version="1.0" encoding="UTF-8"?>
<svg width="35px" height="24px" viewBox="0 0 35 24" version="1.1" xmlns="http://www.w3.org/2000/svg" xmlns:xlink="http://www.w3.org/1999/xlink">
    <!-- Generator: Sketch 48.2 (47327) - http://www.bohemiancoding.com/sketch -->
    <title>audience</title>
    <desc>Created with Sketch.</desc>
    <defs></defs>
    <g id="Проекты---бцкз" stroke="none" stroke-width="1" fill="none" fill-rule="evenodd" transform="translate(-969.000000, -956.000000)">
        <g id="задача" transform="translate(50.000000, 847.000000)" fill="#D91D00" fill-rule="nonzero" stroke="#D91D00" stroke-width="0.25">
            <g id="audience" transform="translate(920.000000, 109.000000)">
                <path d="M7.38037634,0.388433091 C5.45420688,0.388433091 3.8844086,1.95823137 3.8844086,3.88440083 C3.8844086,5.8105703 5.45420688,7.38036858 7.38037634,7.38036858 C9.30654581,7.38036858 10.8763441,5.8105703 10.8763441,3.88440083 C10.8763441,1.95823137 9.30654581,0.388433091 7.38037634,0.388433091 Z M26.0255376,0.388433091 C24.0993682,0.388433091 22.5295699,1.95823137 22.5295699,3.88440083 C22.5295699,5.8105703 24.0993682,7.38036858 26.0255376,7.38036858 C27.9517071,7.38036858 29.5215054,5.8105703 29.5215054,3.88440083 C29.5215054,1.95823137 27.9517071,0.388433091 26.0255376,0.388433091 Z M7.38037634,1.16531481 C8.88668008,1.16531481 10.0994624,2.37808933 10.0994624,3.88440083 C10.0994624,5.39071234 8.88668008,6.60348685 7.38037634,6.60348685 C5.87407649,6.60348685 4.66129032,5.39071234 4.66129032,3.88440083 C4.66129032,2.37808933 5.87407649,1.16531481 7.38037634,1.16531481 Z M16.702957,1.16531481 C14.3477391,1.16531481 12.4301075,3.08293469 12.4301075,5.43816427 C12.4301075,7.79338997 14.3477391,9.71101374 16.702957,9.71101374 C19.0581788,9.71101374 20.9758065,7.79338997 20.9758065,5.43816427 C20.9758065,3.08293469 19.0581788,1.16531481 16.702957,1.16531481 Z M26.0255376,1.16531481 C27.5318414,1.16531481 28.7446237,2.37808933 28.7446237,3.88440083 C28.7446237,5.39071234 27.5318414,6.60348685 26.0255376,6.60348685 C24.5192378,6.60348685 23.3064516,5.39071234 23.3064516,3.88440083 C23.3064516,2.37808933 24.5192378,1.16531481 26.0255376,1.16531481 Z M16.702957,1.94219653 C18.6383247,1.94219653 20.1989247,3.50279265 20.1989247,5.43816427 C20.1989247,7.37353202 18.6383247,8.93413202 16.702957,8.93413202 C14.7675892,8.93413202 13.2069892,7.37353202 13.2069892,5.43816427 C13.2069892,3.50279265 14.7675892,1.94219653 16.702957,1.94219653 Z M7.7688172,9.32257288 C5.66486224,9.32257288 3.76383656,9.7967504 2.35492272,10.6092988 C0.946008871,11.4218005 0,12.6100799 0,13.9838787 L0,19.4220508 C1.9422043e-05,19.6254384 0.185060995,19.8104528 0.38844086,19.8104916 L8.15725806,19.8104916 L8.15725806,23.3064594 C8.15727749,23.509847 8.34231906,23.6948614 8.54569892,23.6949002 L24.8602151,23.6949002 C25.0635949,23.6948614 25.2486365,23.509847 25.2486559,23.3064594 L25.2486559,19.8104916 L33.0174731,19.8104916 C33.220853,19.8104528 33.4058946,19.6254384 33.405914,19.4220508 L33.405914,13.9838787 C33.405914,12.6100799 32.4599051,11.4218005 31.0509913,10.6092988 C29.6420774,9.7967504 27.7410517,9.32257288 25.6370968,9.32257288 C22.4358158,9.32257288 19.6900633,10.4018908 18.4873572,12.150904 C17.9109692,12.0832376 17.3165848,12.0416744 16.702957,12.0416744 C16.0893292,12.0416744 15.4949448,12.0832376 14.9185568,12.150904 C13.7158507,10.4018908 10.9700982,9.32257288 7.7688172,9.32257288 Z M7.7688172,10.0994546 C10.5613924,10.0994546 12.9309204,11.0386813 14.0445649,12.28445 C12.7947797,12.5119598 11.6715602,12.8901458 10.7428175,13.4133368 C9.1925423,14.2866295 8.15725806,15.5764863 8.15725806,17.0914056 L8.15725806,19.0336099 L0.77688172,19.0336099 L0.77688172,13.9838787 C0.77688172,12.966591 1.48427137,12.0030246 2.74336358,11.2769121 C4.00245578,10.5507996 5.78404367,10.0994546 7.7688172,10.0994546 Z M25.6370968,10.0994546 C27.6218703,10.0994546 29.4034582,10.5507996 30.6625504,11.2769121 C31.9216426,12.0030246 32.6290323,12.966591 32.6290323,13.9838787 L32.6290323,19.0336099 L25.2486559,19.0336099 L25.2486559,17.0914056 C25.2486559,15.5764863 24.2133717,14.2866295 22.6630964,13.4133368 C21.7343538,12.8901458 20.6111343,12.5119598 19.3613491,12.28445 C20.4749935,11.0386813 22.8445216,10.0994546 25.6370968,10.0994546 Z M16.702957,12.8185562 C18.9056925,12.8185562 20.8882208,13.3052726 22.2867944,14.0931083 C23.6853679,14.8809441 24.4717742,15.9282972 24.4717742,17.0914056 L24.4717742,22.9180185 L8.93413978,22.9180185 L8.93413978,17.0914056 C8.93413978,15.9282972 9.72054608,14.8809441 11.1191196,14.0931083 C12.5176932,13.3052726 14.5002215,12.8185562 16.702957,12.8185562 Z" id="Shape"></path>
            </g>
        </g>
    </g>
</svg>