<?xml version="1.0" encoding="UTF-8"?>
<svg width="20.5px" height="33.6px" viewBox="0 0 22 35" version="1.1" xmlns="http://www.w3.org/2000/svg" xmlns:xlink="http://www.w3.org/1999/xlink">
    <!-- Generator: Sketch 48.2 (47327) - http://www.bohemiancoding.com/sketch -->
    <title>building</title>
    <desc>Created with Sketch.</desc>
    <defs></defs>
    <g id="Проекты---бцкз" stroke="none" stroke-width="1" fill="none" fill-rule="evenodd" transform="translate(-49.000000, -950.000000)">
        <g id="задача" transform="translate(50.000000, 847.000000)" fill="#D91D00" fill-rule="nonzero" stroke="#D91D00" stroke-width="0.25">
            <g id="building" transform="translate(0.000000, 104.000000)">
                <path d="M0.41311828,0.0475268817 C0.211207726,0.0475268817 0.0475268817,0.211207726 0.0475268817,0.41311828 L0.0475268817,33.3163441 C0.0475268817,33.5182546 0.211207726,33.6819355 0.41311828,33.6819355 L20.1550538,33.6819355 C20.3569643,33.6819355 20.5206452,33.5182546 20.5206452,33.3163441 L20.5206452,0.41311828 C20.5206452,0.211207726 20.3569643,0.0475268817 20.1550538,0.0475268817 L0.41311828,0.0475268817 Z M0.778709677,0.778709677 L19.7894624,0.778709677 L19.7894624,32.9507527 L12.4776344,32.9507527 L12.4776344,26.0045161 C12.4776344,25.8026056 12.3139536,25.6389247 12.112043,25.6389247 L8.45612903,25.6389247 C8.25421848,25.6389247 8.09053763,25.8026056 8.09053763,26.0045161 L8.09053763,32.9507527 L0.778709677,32.9507527 L0.778709677,0.778709677 Z M2.60666667,2.24107527 C2.40475611,2.24107527 2.24107527,2.40475611 2.24107527,2.60666667 L2.24107527,6.26258065 C2.24107527,6.4644912 2.40475611,6.62817204 2.60666667,6.62817204 L6.26258065,6.62817204 C6.4644912,6.62817204 6.62817204,6.4644912 6.62817204,6.26258065 L6.62817204,2.60666667 C6.62817204,2.40475611 6.4644912,2.24107527 6.26258065,2.24107527 L2.60666667,2.24107527 Z M8.45612903,2.24107527 C8.25421848,2.24107527 8.09053763,2.40475611 8.09053763,2.60666667 L8.09053763,6.26258065 C8.09053763,6.4644912 8.25421848,6.62817204 8.45612903,6.62817204 L12.112043,6.62817204 C12.3139536,6.62817204 12.4776344,6.4644912 12.4776344,6.26258065 L12.4776344,2.60666667 C12.4776344,2.40475611 12.3139536,2.24107527 12.112043,2.24107527 L8.45612903,2.24107527 Z M14.3055914,2.24107527 C14.1036808,2.24107527 13.94,2.40475611 13.94,2.60666667 L13.94,6.26258065 C13.94,6.4644912 14.1036808,6.62817204 14.3055914,6.62817204 L17.9615054,6.62817204 C18.1634159,6.62817204 18.3270968,6.4644912 18.3270968,6.26258065 L18.3270968,2.60666667 C18.3270968,2.40475611 18.1634159,2.24107527 17.9615054,2.24107527 L14.3055914,2.24107527 Z M2.97225806,2.97225806 L5.89698925,2.97225806 L5.89698925,5.89698925 L2.97225806,5.89698925 L2.97225806,2.97225806 Z M8.82172043,2.97225806 L11.7464516,2.97225806 L11.7464516,5.89698925 L8.82172043,5.89698925 L8.82172043,2.97225806 Z M14.6711828,2.97225806 L17.595914,2.97225806 L17.595914,5.89698925 L14.6711828,5.89698925 L14.6711828,2.97225806 Z M2.60666667,8.09053763 C2.40475611,8.09053763 2.24107527,8.25421848 2.24107527,8.45612903 L2.24107527,12.112043 C2.24107527,12.3139536 2.40475611,12.4776344 2.60666667,12.4776344 L6.26258065,12.4776344 C6.4644912,12.4776344 6.62817204,12.3139536 6.62817204,12.112043 L6.62817204,8.45612903 C6.62817204,8.25421848 6.4644912,8.09053763 6.26258065,8.09053763 L2.60666667,8.09053763 Z M8.45612903,8.09053763 C8.25421848,8.09053763 8.09053763,8.25421848 8.09053763,8.45612903 L8.09053763,12.112043 C8.09053763,12.3139536 8.25421848,12.4776344 8.45612903,12.4776344 L12.112043,12.4776344 C12.3139536,12.4776344 12.4776344,12.3139536 12.4776344,12.112043 L12.4776344,8.45612903 C12.4776344,8.25421848 12.3139536,8.09053763 12.112043,8.09053763 L8.45612903,8.09053763 Z M14.3055914,8.09053763 C14.1036808,8.09053763 13.94,8.25421848 13.94,8.45612903 L13.94,12.112043 C13.94,12.3139536 14.1036808,12.4776344 14.3055914,12.4776344 L17.9615054,12.4776344 C18.1634159,12.4776344 18.3270968,12.3139536 18.3270968,12.112043 L18.3270968,8.45612903 C18.3270968,8.25421848 18.1634159,8.09053763 17.9615054,8.09053763 L14.3055914,8.09053763 Z M2.97225806,8.82172043 L5.89698925,8.82172043 L5.89698925,11.7464516 L2.97225806,11.7464516 L2.97225806,8.82172043 Z M8.82172043,8.82172043 L11.7464516,8.82172043 L11.7464516,11.7464516 L8.82172043,11.7464516 L8.82172043,8.82172043 Z M14.6711828,8.82172043 L17.595914,8.82172043 L17.595914,11.7464516 L14.6711828,11.7464516 L14.6711828,8.82172043 Z M2.60666667,13.94 C2.40475611,13.94 2.24107527,14.1036808 2.24107527,14.3055914 L2.24107527,17.9615054 C2.24107527,18.1634159 2.40475611,18.3270968 2.60666667,18.3270968 L6.26258065,18.3270968 C6.4644912,18.3270968 6.62817204,18.1634159 6.62817204,17.9615054 L6.62817204,14.3055914 C6.62817204,14.1036808 6.4644912,13.94 6.26258065,13.94 L2.60666667,13.94 Z M8.45612903,13.94 C8.25421848,13.94 8.09053763,14.1036808 8.09053763,14.3055914 L8.09053763,17.9615054 C8.09053763,18.1634159 8.25421848,18.3270968 8.45612903,18.3270968 L12.112043,18.3270968 C12.3139536,18.3270968 12.4776344,18.1634159 12.4776344,17.9615054 L12.4776344,14.3055914 C12.4776344,14.1036808 12.3139536,13.94 12.112043,13.94 L8.45612903,13.94 Z M14.3055914,13.94 C14.1036808,13.94 13.94,14.1036808 13.94,14.3055914 L13.94,17.9615054 C13.94,18.1634159 14.1036808,18.3270968 14.3055914,18.3270968 L17.9615054,18.3270968 C18.1634159,18.3270968 18.3270968,18.1634159 18.3270968,17.9615054 L18.3270968,14.3055914 C18.3270968,14.1036808 18.1634159,13.94 17.9615054,13.94 L14.3055914,13.94 Z M2.97225806,14.6711828 L5.89698925,14.6711828 L5.89698925,17.595914 L2.97225806,17.595914 L2.97225806,14.6711828 Z M8.82172043,14.6711828 L11.7464516,14.6711828 L11.7464516,17.595914 L8.82172043,17.595914 L8.82172043,14.6711828 Z M14.6711828,14.6711828 L17.595914,14.6711828 L17.595914,17.595914 L14.6711828,17.595914 L14.6711828,14.6711828 Z M2.60666667,19.7894624 C2.40475611,19.7894624 2.24107527,19.9531432 2.24107527,20.1550538 L2.24107527,23.8109677 C2.24107527,24.0128783 2.40475611,24.1765591 2.60666667,24.1765591 L6.26258065,24.1765591 C6.4644912,24.1765591 6.62817204,24.0128783 6.62817204,23.8109677 L6.62817204,20.1550538 C6.62817204,19.9531432 6.4644912,19.7894624 6.26258065,19.7894624 L2.60666667,19.7894624 Z M8.45612903,19.7894624 C8.25421848,19.7894624 8.09053763,19.9531432 8.09053763,20.1550538 L8.09053763,23.8109677 C8.09053763,24.0128783 8.25421848,24.1765591 8.45612903,24.1765591 L12.112043,24.1765591 C12.3139536,24.1765591 12.4776344,24.0128783 12.4776344,23.8109677 L12.4776344,20.1550538 C12.4776344,19.9531432 12.3139536,19.7894624 12.112043,19.7894624 L8.45612903,19.7894624 Z M14.3055914,19.7894624 C14.1036808,19.7894624 13.94,19.9531432 13.94,20.1550538 L13.94,23.8109677 C13.94,24.0128783 14.1036808,24.1765591 14.3055914,24.1765591 L17.9615054,24.1765591 C18.1634159,24.1765591 18.3270968,24.0128783 18.3270968,23.8109677 L18.3270968,20.1550538 C18.3270968,19.9531432 18.1634159,19.7894624 17.9615054,19.7894624 L14.3055914,19.7894624 Z M2.97225806,20.5206452 L5.89698925,20.5206452 L5.89698925,23.4453763 L2.97225806,23.4453763 L2.97225806,20.5206452 Z M8.82172043,20.5206452 L11.7464516,20.5206452 L11.7464516,23.4453763 L8.82172043,23.4453763 L8.82172043,20.5206452 Z M14.6711828,20.5206452 L17.595914,20.5206452 L17.595914,23.4453763 L14.6711828,23.4453763 L14.6711828,20.5206452 Z M8.82172043,26.3701075 L11.7464516,26.3701075 L11.7464516,32.9507527 L8.82172043,32.9507527 L8.82172043,26.3701075 Z" id="Shape"></path>
            </g>
        </g>
    </g>
</svg>