<?xml version="1.0" encoding="UTF-8"?>
<svg width="36px" height="19px" viewBox="0 0 36 19" version="1.1" xmlns="http://www.w3.org/2000/svg" xmlns:xlink="http://www.w3.org/1999/xlink">
    <!-- Generator: Sketch 48.2 (47327) - http://www.bohemiancoding.com/sketch -->
    <title>code</title>
    <desc>Created with Sketch.</desc>
    <defs></defs>
    <g id="Проекты---бцкз" stroke="none" stroke-width="1" fill="none" fill-rule="evenodd" transform="translate(-509.000000, -1856.000000)">
        <g id="процесс-работы" transform="translate(0.000000, 1309.000000)" fill="#D91D00" fill-rule="nonzero" stroke="#D91D00" stroke-width="0.5">
            <g id="code" transform="translate(510.000000, 547.000000)">
                <path d="M19.7303779,0.382994186 C19.5753056,0.399862492 19.4446443,0.506327302 19.3968023,0.654796512 L13.8619186,17.2594477 C13.7951553,17.3963737 13.8129924,17.5594762 13.9077726,17.6787357 C14.0025527,17.7979951 14.1574163,17.8521973 14.3058806,17.8180734 C14.4543449,17.7839496 14.5700009,17.6675697 14.6031977,17.5188953 L20.1380814,0.914244186 C20.1854178,0.786726896 20.1638853,0.643830591 20.0810739,0.535924789 C19.9982624,0.428018988 19.8657999,0.37025505 19.7303779,0.382994186 Z M9.85901163,3.15043605 C9.79730707,3.15716515 9.73805354,3.17832712 9.68604651,3.2122093 L0.197674419,8.74709302 C0.0779076991,8.81838395 0.00452335016,8.94746708 0.00452335016,9.08684593 C0.00452335016,9.22622478 0.0779076991,9.35530791 0.197674419,9.42659884 L9.68604651,14.9614826 C9.8080003,15.0513745 9.97059697,15.0636757 10.1046868,14.9931547 C10.2387765,14.9226336 10.320779,14.7816918 10.3158199,14.6302696 C10.3108607,14.4788474 10.219812,14.3435731 10.0813953,14.2819767 L1.17369186,9.09302326 L10.0813953,3.89171512 C10.2457144,3.80230625 10.3248879,3.60997568 10.2711341,3.43079639 C10.2173803,3.25161711 10.0454113,3.13462932 9.85901163,3.15043605 Z M24.0915698,3.15043605 C23.9146464,3.15843382 23.7646227,3.28310588 23.7243795,3.45557711 C23.6841362,3.62804833 23.7634911,3.80624207 23.9186047,3.89171512 L32.8263081,9.09302326 L23.9186047,14.2819767 C23.780188,14.3435731 23.6891393,14.4788474 23.6841801,14.6302696 C23.679221,14.7816918 23.7612235,14.9226336 23.8953132,14.9931547 C24.029403,15.0636757 24.1919997,15.0513745 24.3139535,14.9614826 L33.8023256,9.42659884 C33.9220923,9.35530791 33.9954766,9.22622478 33.9954766,9.08684593 C33.9954766,8.94746708 33.9220923,8.81838395 33.8023256,8.74709302 L24.3139535,3.2122093 C24.247619,3.16995926 24.1701916,3.14845165 24.0915698,3.15043605 Z" id="Shape"></path>
            </g>
        </g>
    </g>
</svg>