<?xml version="1.0" encoding="UTF-8"?>
<svg width="34px" height="14px" viewBox="0 0 34 14" version="1.1" xmlns="http://www.w3.org/2000/svg" xmlns:xlink="http://www.w3.org/1999/xlink">
    <!-- Generator: Sketch 48.2 (47327) - http://www.bohemiancoding.com/sketch -->
    <title>goals</title>
    <desc>Created with Sketch.</desc>
    <defs></defs>
    <g id="Проекты---бцкз" stroke="none" stroke-width="1" fill="none" fill-rule="evenodd" transform="translate(-510.000000, -1412.000000)">
        <g id="процесс-работы" transform="translate(0.000000, 1309.000000)" fill="#D91D00" fill-rule="nonzero">
            <g id="goals" transform="translate(510.000000, 103.000000)">
                <path d="M6.8,13.6 C3.05072727,13.6 0,10.5492727 0,6.8 C0,3.05072727 3.05072727,0 6.8,0 C10.5492727,0 13.6,3.05072727 13.6,6.8 C13.6,10.5492727 10.5492727,13.6 6.8,13.6 Z M6.8,1.23636364 C3.73258182,1.23636364 1.23636364,3.73258182 1.23636364,6.8 C1.23636364,9.86741818 3.73258182,12.3636364 6.8,12.3636364 C9.86741818,12.3636364 12.3636364,9.86741818 12.3636364,6.8 C12.3636364,3.73258182 9.86741818,1.23636364 6.8,1.23636364 Z" id="Shape"></path>
                <path d="M27.2,13.6 C23.4507273,13.6 20.4,10.5492727 20.4,6.8 C20.4,3.05072727 23.4507273,0 27.2,0 C30.9492727,0 34,3.05072727 34,6.8 C34,10.5492727 30.9492727,13.6 27.2,13.6 Z M27.2,1.23636364 C24.1325818,1.23636364 21.6363636,3.73258182 21.6363636,6.8 C21.6363636,9.86741818 24.1325818,12.3636364 27.2,12.3636364 C30.2674182,12.3636364 32.7636364,9.86741818 32.7636364,6.8 C32.7636364,3.73258182 30.2674182,1.23636364 27.2,1.23636364 Z" id="Shape"></path>
                <path d="M13.3416,6.06621818 L12.6226545,5.06043636 L13.0213818,4.77607273 C15.5633455,2.96047273 19.0146545,3.08967273 21.4144364,5.08887273 L20.6231636,6.0384 C18.6554909,4.3996 15.8254545,4.29327273 13.7403273,5.78185455 L13.3416,6.06621818 Z" id="Shape"></path>
            </g>
        </g>
    </g>
</svg>