<?xml version="1.0" encoding="UTF-8"?>
<svg width="28px" height="34px" viewBox="0 0 28 34" version="1.1" xmlns="http://www.w3.org/2000/svg" xmlns:xlink="http://www.w3.org/1999/xlink">
    <!-- Generator: Sketch 48.2 (47327) - http://www.bohemiancoding.com/sketch -->
    <title>magic</title>
    <desc>Created with Sketch.</desc>
    <defs></defs>
    <g id="Проекты---бцкз" stroke="none" stroke-width="1" fill="none" fill-rule="evenodd" transform="translate(-513.000000, -1776.000000)">
        <g id="процесс-работы" transform="translate(0.000000, 1309.000000)" fill="#D91D00" fill-rule="nonzero">
            <g id="magic" transform="translate(513.000000, 467.000000)">
                <path d="M0.0756404494,31.3613708 L3.34880899,33.7482472 L20.9038876,9.67089888 L17.6307191,7.28440449 L0.0756404494,31.3613708 Z M3.09820225,32.146809 L1.67707865,31.110382 L14.0603371,14.1260449 L15.4745843,15.1720225 L3.09820225,32.146809 Z M19.3024494,9.92188764 L16.149618,14.246 L14.7353708,13.2000225 L17.8809438,8.8858427 L19.3024494,9.92188764 Z" id="Shape"></path>
                <rect id="Rectangle-path" transform="translate(22.908334, 15.294404) rotate(-124.355953) translate(-22.908334, -15.294404) " x="21.4255993" y="14.721403" width="2.96546953" height="1.14600137"></rect>
                <rect id="Rectangle-path" transform="translate(25.959244, 10.380464) rotate(-80.484927) translate(-25.959244, -10.380464) " x="25.386235" y="8.91527912" width="1.14601844" height="2.93036914"></rect>
                <rect id="Rectangle-path" transform="translate(24.734481, 4.774651) rotate(55.812536) translate(-24.734481, -4.774651) " x="24.1614502" y="3.29088243" width="1.14606252" height="2.96753788"></rect>
                <rect id="Rectangle-path" transform="translate(19.846644, 1.746779) rotate(10.422202) translate(-19.846644, -1.746779) " x="19.2734199" y="0.267016667" width="1.14644775" height="2.95952374"></rect>
                <rect id="Rectangle-path" transform="translate(14.324672, 2.931280) rotate(56.365550) translate(-14.324672, -2.931280) " x="12.9042924" y="2.35823795" width="2.84075883" height="1.14608344"></rect>
                <rect id="Rectangle-path" transform="translate(11.282378, 7.904748) rotate(9.137349) translate(-11.282378, -7.904748) " x="9.80893258" y="7.33171998" width="2.94689001" height="1.14605523"></rect>
            </g>
        </g>
    </g>
</svg>