<?xml version="1.0" encoding="UTF-8"?>
<svg width="33.8px" height="33.6px" viewBox="0 0 35 34" version="1.1" xmlns="http://www.w3.org/2000/svg" xmlns:xlink="http://www.w3.org/1999/xlink">
    <!-- Generator: Sketch 48.2 (47327) - http://www.bohemiancoding.com/sketch -->
    <title>megaphone</title>
    <desc>Created with Sketch.</desc>
    <defs></defs>
    <g id="Проекты---бцкз" stroke="none" stroke-width="1" fill="none" fill-rule="evenodd" transform="translate(-509.000000, -951.000000)">
        <g id="задача" transform="translate(50.000000, 847.000000)" fill="#D91D00" fill-rule="nonzero" stroke="#D91D00" stroke-width="0.25">
            <g id="megaphone" transform="translate(460.000000, 104.000000)">
                <path d="M29.5057471,0.195402299 C29.4512858,0.191945634 29.3967043,0.199933179 29.3455172,0.218850575 L16.2183908,6.05747126 L7.62068966,6.05747126 C3.51981674,5.9797706 0.13241355,9.24119606 0.0547128002,13.342069 C-0.0229879497,17.4429419 3.23843744,20.8303451 7.33931034,20.908046 L9.92643678,28.3333333 C10.3914943,29.8222989 11.0206897,31.4050575 12.0524138,32.3586207 C13.0665401,33.326481 14.4263797,33.8473305 15.8275862,33.8045977 C18.6531034,33.8045977 20.5172414,31.4832184 20.5172414,28.7241379 C20.5172414,27.3767162 19.9819802,26.0844814 19.0292092,25.1317104 C18.0764381,24.1789393 16.7842033,23.6436782 15.4367816,23.6436782 L15.3273563,23.6436782 L14.4245977,20.908046 L16.2183908,20.908046 L29.3455172,26.7349425 C29.4665272,26.7794857 29.6014369,26.7645566 29.7097799,26.6946331 C29.8181229,26.6247096 29.8872964,26.5079254 29.8965517,26.3793103 L29.8965517,17.7816092 L32.2413793,17.7816092 C33.104721,17.7816092 33.8045977,17.0817325 33.8045977,16.2183908 L33.8045977,10.7471264 C33.8045977,9.88378476 33.104721,9.18390805 32.2413793,9.18390805 L29.8965517,9.18390805 L29.8965517,0.586206897 C29.8965517,0.370371477 29.7215825,0.195402299 29.5057471,0.195402299 Z M29.1149425,1.17241379 L29.1149425,25.7696552 L16.6091954,20.2514943 L16.6091954,6.7062069 L29.1149425,1.17241379 Z M7.62068966,6.83908046 L15.8275862,6.83908046 L15.8275862,20.1264368 L7.62068966,20.1264368 C3.95148752,20.1264368 0.977011494,17.1519608 0.977011494,13.4827586 C0.977011494,9.81355649 3.95148752,6.83908046 7.62068966,6.83908046 Z M29.8965517,9.96551724 L32.2413793,9.96551724 C32.6730501,9.96551724 33.0229885,10.3154556 33.0229885,10.7471264 L33.0229885,16.2183908 C33.0229885,16.6500616 32.6730501,17 32.2413793,17 L29.8965517,17 L29.8965517,9.96551724 Z M8.17172414,20.908046 L13.5921839,20.908046 L14.6786207,24.1556322 C14.730573,24.3149971 14.8783674,24.4234845 15.045977,24.4252874 L15.4367816,24.4252874 C17.8109712,24.4252874 19.7356322,26.3499483 19.7356322,28.7241379 C19.7356322,31.1432184 18.2349425,33.0229885 15.8275862,33.0229885 C14.6289085,33.0714255 13.4630461,32.6248649 12.6034483,31.788046 C11.5248276,30.7211494 11.2121839,29.6464368 10.7588506,28.3372414 L8.17172414,20.908046 Z" id="Shape"></path>
            </g>
        </g>
    </g>
</svg>