<?xml version="1.0" encoding="UTF-8"?>
<svg width="21px" height="34px" viewBox="0 0 21 34" version="1.1" xmlns="http://www.w3.org/2000/svg" xmlns:xlink="http://www.w3.org/1999/xlink">
    <!-- Generator: Sketch 48.2 (47327) - http://www.bohemiancoding.com/sketch -->
    <title>writing</title>
    <desc>Created with Sketch.</desc>
    <defs></defs>
    <g id="Проекты---бцкз" stroke="none" stroke-width="1" fill="none" fill-rule="evenodd" transform="translate(-517.000000, -1608.000000)">
        <g id="процесс-работы" transform="translate(0.000000, 1309.000000)" fill="#D91D00" fill-rule="nonzero" stroke="#D91D00" stroke-width="0.25">
            <g id="writing" transform="translate(517.000000, 299.000000)">
                <path d="M7.45416309,0.382241136 C7.25619036,0.384172955 7.08993809,0.544166136 7.05570627,0.672013864 L6.30712673,3.46107636 C6.24295173,3.70065659 6.26926309,3.81863273 6.319104,3.89573545 C6.36917673,3.97286909 6.47731991,4.04631682 6.68135855,4.10099114 L7.055629,4.19758205 L6.95903809,4.57187182 L6.62096991,5.80340591 L6.51228582,6.20184341 L6.12592218,6.06903091 C5.89132218,5.99314523 5.78932218,6.02407364 5.71544945,6.06903091 C5.64153809,6.11399205 5.56190855,6.21399068 5.51017445,6.40709909 L0.282171795,25.9184782 L0.270194523,25.9424327 L0.270194523,25.9663873 C0.244694523,26.0308327 0.24971725,26.0890191 0.25821725,26.2803077 L0.25821725,26.292285 L0.58419225,33.2347373 L0.58419225,33.2467145 C0.589214977,33.3914077 0.734024068,33.5709895 0.873964977,33.6089305 C1.01386725,33.6467941 1.2188718,33.562335 1.29653089,33.4398964 L5.13605855,27.4633532 L5.14803582,27.4513759 L5.14803582,27.4393986 C5.16387673,27.4177623 5.18049036,27.3413395 5.23257218,27.1858282 L9.97758127,9.48554795 L10.0741722,9.11125818 L10.4605358,9.20784909 L11.0280267,9.36480932 L11.390204,9.47347409 L11.2936131,9.83569 L10.0862267,14.3392411 C10.0428381,14.5047632 10.1986585,14.778212 10.3639449,14.8221957 C10.5293472,14.8662257 10.7907995,14.7099764 10.8348449,14.5444968 L12.1991722,9.42517864 L12.2111495,9.37688318 L12.2354904,9.34068091 C12.2594449,9.2946225 12.2679449,9.24759432 12.2718085,9.19579455 L12.2718085,9.15959227 L12.2837858,9.12339 L13.6601676,3.96785023 C13.7252699,3.71092614 13.6941676,3.60343591 13.6481904,3.53319114 C13.6020972,3.46290773 13.4928722,3.38267159 13.2738813,3.32793545 L12.1268835,3.014015 L11.7526131,2.90535023 L11.849204,2.54313432 L11.9940904,1.99981045 C12.039604,1.83411068 11.8829335,1.55904295 11.7163722,1.51685591 L7.53881536,0.393986591 C7.51022445,0.387804773 7.48167218,0.381661591 7.45431764,0.381932045 L7.45416309,0.382241136 Z M7.69564036,1.25155932 L8.06991082,1.34815023 L10.7623631,2.06050818 L11.1366722,2.15709909 L11.0400813,2.53138886 C10.9074426,3.01527455 10.7887131,3.47347864 10.6537176,3.96817864 L10.5450722,4.34246841 L10.1828176,4.2458775 L7.49036536,3.52144568 L7.11609491,3.42485477 L7.21268582,3.050565 L7.59904945,1.62584909 L7.69564036,1.25155932 Z M11.5471835,3.66633205 L11.921454,3.76292295 L12.4768904,3.90780932 L12.8511608,4.00440023 L12.7545699,4.37869 L11.6920699,8.33891727 L11.595479,8.71320705 L11.2091154,8.61661614 L10.6416631,8.45965591 L10.2794085,8.35099114 L10.3759995,7.98877523 C10.4629313,7.66441523 10.4525381,7.46725386 10.4123176,7.37300818 C10.3720199,7.2787625 10.3036722,7.20670568 10.0501017,7.13153091 L9.68788582,7.02286614 L9.78447673,6.66065023 L10.1104904,5.44119 L10.2070813,5.06690023 L10.5813517,5.16349114 C10.9589063,5.26464886 11.1593904,5.11352659 11.2333404,4.83749682 L11.4506699,4.04062182 L11.5472608,3.66633205 L11.5471835,3.66633205 Z M7.79223127,4.41491159 L8.16650173,4.5115025 L9.08411536,4.75297977 L9.45838582,4.84957068 L9.36179491,5.22386045 L9.03581991,6.45539455 L8.939229,6.82968432 L8.55286536,6.73309341 L7.63525173,6.47954227 L7.27303582,6.3708775 L7.36962673,6.00866159 L7.69564036,4.78920136 L7.79223127,4.41491159 Z M6.17429491,6.89005364 L6.548604,6.98664455 L9.25314945,7.71107636 L9.62745855,7.80766727 L9.53086764,8.18195705 L4.65302634,26.4014327 L4.55643543,26.7757032 L4.18212634,26.6791123 L1.47758089,25.9546805 L1.1032718,25.8580895 L1.1998627,25.4838191 L6.077704,7.26434341 L6.17429491,6.89005364 Z M1.53793089,26.7757032 L3.68711725,27.3431941 L4.20627407,27.4759873 L3.91650134,27.9227395 L1.94848089,30.9895009 L1.29645361,32.0037055 L1.23610361,30.8083736 L1.05497634,27.17416 L1.0310218,26.64291 L1.53793089,26.7757032 Z" id="Shape"></path>
                <path d="M20.3696813,32.8289782 C20.4167404,32.8480259 20.4612495,32.8770418 20.497104,32.9123941 C20.5329199,32.9475532 20.5627858,32.9919077 20.5822199,33.0383486 C20.6018472,33.0845964 20.612279,33.1365236 20.6123176,33.1865964 C20.6123176,33.2369395 20.6018858,33.2891373 20.5824904,33.3355782 C20.5630949,33.3820191 20.5332676,33.4261418 20.4974904,33.4615327 C20.4616745,33.4966918 20.4172426,33.5262486 20.3706085,33.5450645 C20.3239358,33.5639964 20.2715449,33.5736555 20.2212404,33.5728827 L3.82300134,33.5809964 C3.76782861,33.5809964 3.71551498,33.57211 3.66880361,33.5531782 C3.62213089,33.5342464 3.5776218,33.5051918 3.54180589,33.4698395 C3.50595134,33.4346805 3.47608543,33.3903645 3.45668998,33.3439236 C3.43710134,33.2977145 3.42666952,33.2458259 3.42663089,33.1957918 C3.42663089,33.1453327 3.4370627,33.0930964 3.45641952,33.0466555 C3.47581498,33.0002145 3.50564225,32.9561305 3.54141952,32.9207395 C3.57723543,32.8851941 3.62166725,32.8560236 3.66833998,32.8371691 C3.7150127,32.8182373 3.76736498,32.8085782 3.81766952,32.8093509 L20.2157926,32.8012373 C20.2708108,32.80116 20.3230472,32.8100464 20.3696813,32.8289782 Z" id="Shape"></path>
            </g>
        </g>
    </g>
</svg>