<?xml version="1.0" encoding="UTF-8"?>
<svg width="15px" height="17px" viewBox="0 0 15 17" version="1.1" xmlns="http://www.w3.org/2000/svg" xmlns:xlink="http://www.w3.org/1999/xlink">
    <!-- Generator: Sketch 47.1 (45422) - http://www.bohemiancoding.com/sketch -->
    <title>имя</title>
    <desc>Created with Sketch.</desc>
    <defs></defs>
    <g id="Symbols" stroke="none" stroke-width="1" fill="none" fill-rule="evenodd">
        <g id="имя" fill-rule="nonzero" fill="#24BEB1">
            <g id="user">
                <path d="M7.5,9 C3.3646073,9 0,12.3325566 0,16.4285561 C0,16.7439833 0.258478946,17 0.576939719,17 C0.895400492,17 1.15387944,16.7439297 1.15387944,16.4285026 C1.15387944,12.9622323 4.00039303,10.1428342 7.5,10.1428342 C10.999607,10.1428342 13.8461206,12.9622323 13.8461206,16.4285026 C13.8461206,16.7439297 14.1045995,16.9999464 14.4230603,16.9999464 C14.7415211,16.9999464 15,16.7439297 15,16.4285026 C15,12.3325566 11.6353927,9 7.5,9 Z" id="Shape"></path>
                <path d="M7.5,0 C5.29431342,0 3.5,1.79425985 3.5,4 C3.5,6.20574015 5.29425985,8 7.5,8 C9.70574015,8 11.5,6.20568658 11.5,4 C11.5,1.79431342 9.70574015,0 7.5,0 Z M7.5,6.85711225 C5.92516774,6.85711225 4.64288775,5.57483226 4.64288775,4 C4.64288775,2.42516774 5.92516774,1.14288775 7.5,1.14288775 C9.07483226,1.14288775 10.3571122,2.42516774 10.3571122,4 C10.3571122,5.57483226 9.07488583,6.85711225 7.5,6.85711225 Z" id="Shape"></path>
            </g>
        </g>
    </g>
</svg>