<?xml version="1.0" encoding="UTF-8"?>
<svg width="59px" height="91px" viewBox="0 0 59 91" version="1.1" xmlns="http://www.w3.org/2000/svg" xmlns:xlink="http://www.w3.org/1999/xlink">
    <!-- Generator: Sketch 47.1 (45422) - http://www.bohemiancoding.com/sketch -->
    <title>преимущество_3_безопасность</title>
    <desc>Created with Sketch.</desc>
    <defs></defs>
    <g id="Symbols" stroke="none" stroke-width="1" fill="none" fill-rule="evenodd">
        <g id="преимущество_3_безопасность" fill-rule="nonzero" fill="#022A4C">
            <g id="doctor">
                <ellipse id="Oval" cx="35.8916667" cy="40.0597826" rx="1.475" ry="1.48369565"></ellipse>
                <path d="M35.2286887,37.4897855 C35.2493457,37.4813168 37.3580789,36.6780956 39.6558234,37.2958202 C40.3409465,37.4796882 41.0555058,37.1033207 41.2505421,36.45449 C41.4454062,35.8056592 41.0470708,35.1301195 40.3612592,34.945763 C37.1602883,34.0857039 34.3394058,35.1929831 34.2208003,35.2403751 C33.5642527,35.5037184 33.2578409,36.2207871 33.5360215,36.841769 C33.8142022,37.4622623 34.570764,37.7532915 35.2286887,37.4897855 Z" id="Shape"></path>
                <ellipse id="Oval" cx="22.125" cy="40.0597826" rx="1.475" ry="1.48369565"></ellipse>
                <path d="M24.7826227,35.2404407 C24.6637934,35.1927221 21.8413398,34.085749 18.6391491,34.9458233 C17.9530392,35.1301831 17.5545306,35.8055719 17.7494795,36.454577 C17.9444284,37.1034192 18.6587817,37.4804448 19.3448917,37.2959221 C21.8756108,36.6161361 23.7677518,37.5869565 24.2778566,37.5869565 C25.6729812,37.5869565 26.0757952,35.7591562 24.7826227,35.2404407 Z" id="Shape"></path>
                <path d="M46.703286,62.3557284 C44.6809477,62.3557284 39.0259038,62.3557284 37.1001596,62.3557284 L37.1001596,59.5980125 C38.403565,58.9121382 39.6256281,58.0549286 40.730411,57.0324268 C41.30717,56.4986925 41.2992812,55.5773211 40.7193666,55.0531844 C40.2227227,54.6026295 39.4603138,54.5980085 38.9575342,55.063493 C30.1748432,63.1923208 15.942743,57.5267041 14.9606748,45.4880907 L43.5921177,45.4880907 C43.3987544,47.881097 42.644059,50.1249848 41.4233984,52.0820104 C41.0349187,52.7040783 41.2175883,53.5275185 41.8311618,53.9211986 C42.4442094,54.3150564 43.2569313,54.1300357 43.645411,53.50779 C45.1719818,51.0623523 46.0718312,48.2310547 46.2380219,45.3407495 C48.9536982,44.7119277 50.7383206,42.1893535 50.7383206,39.7240096 L50.7383206,30.7242867 C51.2898355,30.1103945 51.6292293,29.2976184 51.6292293,28.4036179 L51.6292293,23.5729941 C51.6292293,22.6996108 51.3050872,21.9030084 50.7758362,21.2942705 C50.9495652,19.2050111 51.1599332,13.0145468 48.0699771,9.21193461 C46.6915404,7.51528885 44.8595853,6.51215993 42.6175877,6.22369816 C38.7433094,-0.0997108921 30.2179686,-0.771011021 23.033549,0.581542323 C16.3524348,1.9189883 10.2891016,7.24673325 8.86210493,13.82128 C8.41367036,15.9265355 8.17542854,18.3150985 8.14667823,20.9229849 C7.39811857,21.5569609 6.92058309,22.5096135 6.92058309,23.5731718 L6.92058309,28.4037957 C6.92058309,29.2976184 7.2603275,30.11075 7.81184241,30.7248199 C7.81184241,40.4600047 7.79624012,39.8078999 7.8481309,40.0302447 C8.01449697,42.632799 9.86959261,44.7748454 12.3112645,45.3405717 C12.6867715,51.721922 16.5023221,57.1794125 21.8998404,59.8260448 L21.8998404,62.3559061 C19.9537606,62.3559061 14.279433,62.3559061 12.296714,62.3559061 C5.51620101,62.3559061 0,67.948652 0,74.8230354 L0,87.546279 C0,89.4506955 1.52814861,91 3.40638473,91 C5.70553226,91 54.0789653,91 55.5936153,91 C57.4720267,91 59,89.4505177 59,87.546279 L59,74.8230354 C59,67.9484742 53.4836237,62.3557284 46.703286,62.3557284 Z M46.270629,42.5288248 L46.270629,36.7727417 C48.6793432,37.9086377 48.6993282,41.3840422 46.270629,42.5288248 Z M48.1087199,34.7638179 C47.5402002,34.3845342 46.9003307,34.1131348 46.2704537,33.9625944 L46.2704537,31.8571612 L48.1087199,31.8571612 L48.1087199,34.7638179 Z M48.3988305,22.8581492 C48.4946596,22.8920964 48.5472851,22.9207115 48.5472851,22.9207115 C48.8175368,23.062543 48.9956363,23.3019502 48.9956363,23.5731718 C48.9956363,28.765306 49.1406438,28.7324253 48.5601542,29.0479025 C48.1421374,29.2729134 40.1367371,29.1916891 24,29.1916891 C24,27.0592975 24,25.7403833 24,22.8099834 C39.8395981,22.8099834 48.0145951,22.7717707 48.2184329,22.8099834 C48.2855362,22.8227802 48.3397704,22.8364657 48.3988305,22.8581492 Z M11.4266668,14.4102894 C13.1045274,7.87395543 18.9839639,2.6745342 29.0143128,2.6745342 C33.0051701,2.6745342 38.2655986,3.61936647 40.664145,8.12064978 C40.8806488,8.52694899 41.2891135,8.79088351 41.7438591,8.81789903 C43.579145,8.92702751 44.9830012,9.60899166 46.0364192,10.9027152 C48.1462355,13.4937168 48.2980511,17.8291746 48.2093459,20.1194509 L10.7897775,20.1194509 C10.8530633,18.0273477 11.0662362,16.1119117 11.4266668,14.4102894 Z M12.279534,42.5288248 C9.83172636,41.3758664 9.89641453,37.8976182 12.279534,36.7727417 L12.279534,42.5288248 Z M12.279534,33.9627721 C11.6379114,34.1161563 11.0050542,34.3884443 10.4412678,34.7639956 L10.4412678,31.8575166 L12.279534,31.8575166 L12.279534,33.9627721 Z M9.94458174,29.0480803 C9.75629319,28.9633013 9.55035908,28.6906578 9.55035908,28.4036179 L9.55035908,23.5729941 C9.55035908,23.1478551 9.94645009,22.8026963 10.4388651,22.7879444 C10.4716651,22.7861671 23.9667848,22.7879444 24,22.7879444 C24,25.9954626 24.0154913,25.9929743 24,29.1915114 C9.58814135,29.1915114 10.2839994,29.2542514 9.94458174,29.0480803 Z M14.9091347,31.8575166 L43.640853,31.8575166 C43.640853,33.177367 43.640853,41.551645 43.640853,42.8224409 L30.5894436,42.8224409 L30.5894436,40.9478837 C30.5894436,40.211533 30.0009389,39.6148811 29.2746432,39.6148811 C28.5483475,39.6148811 27.9598429,40.211533 27.9598429,40.9478837 L27.9598429,42.8224409 L14.9087841,42.8224409 C14.9091347,41.5518228 14.9091347,33.1771893 14.9091347,31.8575166 Z M23.2146408,65.0217336 C23.9409365,65.0217336 24.5294411,64.4250817 24.5294411,63.688731 L24.5294411,60.8538787 C27.7161665,61.7932012 31.2422858,61.7676076 34.4705589,60.714891 L34.4705589,63.688731 C34.4705589,64.4250817 35.0590635,65.0217336 35.7853592,65.0217336 L36.0909188,65.0217336 C32.4929238,69.2901858 26.0602193,69.294096 22.4595948,65.0217336 L23.2146408,65.0217336 L23.2146408,65.0217336 Z M25.5705877,88.3336393 L12.1051038,88.3336393 L12.1051038,79.9463866 C12.1051038,79.210036 11.5165992,78.613384 10.7903035,78.613384 C10.0640077,78.613384 9.47550312,79.210036 9.47550312,79.9463866 L9.47550312,88.3336393 L3.40638473,88.3336393 C2.97811043,88.3336393 2.62942538,87.9803047 2.62942538,87.5459236 L2.62942538,74.82268 C2.62942538,69.4183318 6.96598753,65.0215559 12.2965387,65.0215559 L13.4965132,65.0215559 C15.4583706,70.4243045 20.0447448,74.506314 25.5705877,75.7763989 L25.5705877,88.3336393 Z M56.3707499,87.5461013 L56.3707499,87.5461013 C56.3705746,87.9804824 56.0220649,88.3339947 55.5936153,88.3339947 L49.5248475,88.3339947 L49.5248475,79.9467421 C49.5248475,79.2103915 48.9363429,78.6137395 48.2100472,78.6137395 C47.4837514,78.6137395 46.8952468,79.2103915 46.8952468,79.9467421 L46.8952468,88.3339947 L33.4297629,88.3339947 L33.4297629,83.0938725 C33.4297629,82.3575218 32.8412583,81.7608698 32.1149626,81.7608698 C31.3886669,81.7608698 30.8001622,82.3575218 30.8001622,83.0938725 L30.8001622,88.3339947 L28.2001884,88.3339947 L28.2001884,74.675161 C28.2001884,74.0180796 27.7279121,73.4589294 27.0873414,73.3579767 C22.3368801,72.6088292 18.2802827,69.4137107 16.3328005,65.0222668 L19.2492029,65.0222668 C23.7175957,72.8313518 34.8290611,72.8359728 39.30096,65.0222668 L42.2150835,65.0222668 C40.3258031,69.2637035 36.4296114,72.4268299 31.8742665,73.28635 C31.251577,73.403832 30.7999869,73.9546287 30.7999869,74.5967805 L30.7999869,78.8286195 C30.7999869,79.5649702 31.3884916,80.1616221 32.1147873,80.1616221 C32.841083,80.1616221 33.4295876,79.5649702 33.4295876,78.8286195 L33.4295876,75.6672704 C38.7783707,74.2825473 43.144735,70.2853167 45.0536498,65.0222668 L46.703286,65.0222668 C52.0338372,65.0222668 56.3705746,69.418865 56.3705746,74.8233909 L56.3705746,87.5461013 L56.3707499,87.5461013 Z" id="Shape"></path>
            </g>
        </g>
    </g>
</svg>