<?xml version="1.0" encoding="UTF-8"?>
<svg width="73px" height="91px" viewBox="0 0 73 91" version="1.1" xmlns="http://www.w3.org/2000/svg" xmlns:xlink="http://www.w3.org/1999/xlink">
    <!-- Generator: Sketch 47.1 (45422) - http://www.bohemiancoding.com/sketch -->
    <title>преимущество_2_технологии</title>
    <desc>Created with Sketch.</desc>
    <defs></defs>
    <g id="Symbols" stroke="none" stroke-width="1" fill="none" fill-rule="evenodd">
        <g id="преимущество_2_технологии" fill-rule="nonzero" fill="#022A4C">
            <g id="implants">
                <path d="M72.6055138,20.9293127 C69.6568104,2.40731119 51.6507541,-5.33033259 36.5166417,3.98274417 C21.2578178,-5.42968582 3.36233779,2.48746917 0.426338241,20.9291349 C-1.5429232,31.7605921 3.38685068,45.2786743 13.6196384,52.7701567 C11.8835178,68.2072315 18.3125141,83.4535979 23.6276949,83.011396 C26.1026017,83.011396 26.6291815,83.1066614 27.5891204,82.7254222 C27.5903729,82.7579475 27.6601541,84.5406182 27.662659,84.5729657 C27.7100745,85.263995 28.2175091,91 31.9678016,91 L41.0645871,91 C43.1410254,91 44.2220973,89.2418566 44.782673,87.5551622 C46.9480375,88.0579713 47.2622319,85.3924966 45.6286359,85.0133902 L45.3360916,84.9454959 C45.3793918,84.5386631 45.3656145,84.6973794 45.4432684,82.7257777 C45.9351365,82.9211072 46.5064477,83.011396 46.8059701,83.011396 C49.7333812,83.011396 49.6344351,83.0215268 49.6344351,83.0215268 C54.8896756,83.0215268 61.1257895,68.0010602 59.4123925,52.7705122 C62.7933814,50.2950349 65.6261406,47.1711845 67.8405309,43.5846929 C68.227906,42.9571146 68.0300137,42.1363396 67.3980465,41.7513681 C66.7659003,41.3665743 65.9399771,41.5633256 65.5522441,42.1909039 C63.2764821,45.8776375 60.3519338,48.8932479 57.220189,51.0505816 C56.8079431,51.3346003 56.5894743,51.8231907 56.6540666,52.3172908 C58.662334,67.7118872 52.1898586,80.0738107 49.673441,80.3528529 C49.6727253,80.3517865 49.5515922,80.345388 46.8641211,80.345388 C46.4688732,80.3053979 46.1929691,80.1321074 46.0027705,79.8854128 C47.7682351,80.3007768 48.3352521,77.6886222 46.6272229,77.2922757 L45.6656736,77.0692197 L45.8691127,71.9017853 C47.8806007,72.3674481 48.2833635,69.7238346 46.6272229,69.339574 L45.9757527,69.1883224 L46.1791918,64.0201771 L46.7827097,64.1602314 C47.5075397,64.3280122 48.2266439,63.8797674 48.3948345,63.1652772 C48.5632041,62.4482988 48.114994,61.7314982 47.3932058,61.5638951 L46.2858318,61.3070697 L46.4890919,56.1392799 C46.7977395,56.2107289 46.9002642,56.2425432 47.0890313,56.2425432 C47.698275,56.2425432 48.2499043,55.8271792 48.3946556,55.2123978 C48.5630251,54.4954193 48.1148151,53.7786187 47.3930269,53.6110156 L46.5957319,53.4261724 C46.6653342,51.6614529 46.6834057,51.5299298 46.6388531,50.9357655 C46.2761697,46.0598147 42.1766133,42.2305386 37.1928037,42.2305386 C37.0371379,42.2305386 35.9920302,42.2305386 35.8383326,42.2305386 C31.6620168,42.2305386 28.0183643,44.9440015 26.7961196,48.8322852 L25.7023439,48.5784813 C24.9807346,48.4117669 24.2591254,48.856457 24.0902191,49.5734354 C23.9218496,50.2904138 24.3700596,51.0072145 25.0918478,51.1748176 L26.3697385,51.4712776 C26.3643707,51.7584956 26.3412892,51.0203668 26.5660205,56.7316668 L25.7025228,56.531183 C24.9809136,56.3641132 24.2593043,56.8089811 24.090398,57.5261372 C23.9220285,58.2431156 24.3702385,58.9599163 25.0920267,59.1275193 L26.6749866,59.4947175 L26.8821831,64.75955 C26.1716672,64.613275 25.469382,65.0544105 25.3035174,65.7605471 C25.1351479,66.4773478 25.583358,67.1943262 26.3051462,67.3619292 L26.9909702,67.5211788 L27.1976299,72.7837008 C24.9680309,72.2670284 24.6726238,74.9358801 26.3047883,75.314631 L27.306417,75.5471069 L27.4159198,78.3295305 C27.4264765,79.1975827 27.2153436,80.2389255 26.1675519,80.3448548 C23.4212141,80.3448548 23.341592,80.3699153 23.1626658,80.2950894 C20.2229088,79.0848995 14.4698956,66.9421219 16.3777854,52.3167576 C16.4421988,51.8226575 16.2239089,51.3340671 15.811663,51.0500484 C4.60605361,43.3315999 -0.538789529,27.3972257 4.94458193,14.9377264 L4.94458193,14.9379041 C10.3299018,2.75940198 24.0581913,-1.04730193 35.7735613,6.67718955 C36.2233817,6.97364964 36.8081124,6.97364964 37.257575,6.67718955 C50.4013126,-1.98413713 66.9394587,3.74564719 69.9615217,21.3896434 C70.8225145,26.1047451 70.1638872,32.6090936 67.4801736,38.5596233 C67.1770726,39.2314573 67.4794579,40.0202402 68.1557988,40.3213214 C68.8317819,40.6222248 69.6262141,40.3222101 69.929315,39.6501983 C72.8320343,33.2197871 73.5575799,26.1630418 72.6055138,20.9293127 Z M40.7798754,88.0957447 L31.7888256,88.0957447 C30.9415543,88.0957447 30.2357601,85.7138938 30.1733333,84.2234043 L41.8533333,86.793524 C41.5659579,87.5387688 41.1894518,88.0957447 40.7798754,88.0957447 Z M42.6268023,84.2234043 L30.3767134,81.4762771 L30.1733333,76.4787234 L42.8266667,79.3163132 L42.6268023,84.2234043 Z M43.5947362,76.4787234 L30.3822078,73.2897384 L30.1733333,67.7659574 L43.8,71.0551171 L43.5947362,76.4787234 Z M43.5898177,68.7340426 L29.4140643,65.4500494 L29.2,60.0212766 L43.8,63.4031681 L43.5898177,68.7340426 Z M35.2642068,44.5419562 C35.5025185,44.5292559 35.5012623,44.5322135 36.9923254,44.5322135 C40.7277892,44.5322135 43.7860028,47.4590173 43.8,51.1078228 L43.7528042,52.2765957 L29.2,48.9813101 C30.1159208,46.4052427 32.536543,44.6853127 35.2642068,44.5419562 Z M43.8,55.7487249 L43.5987318,60.9893617 L29.4048086,57.6134803 L29.2,52.2765957 L43.8,55.7487249 Z" id="Shape"></path>
            </g>
        </g>
    </g>
</svg>