<?xml version="1.0" encoding="UTF-8"?>
<svg width="49px" height="75px" viewBox="0 0 49 75" version="1.1" xmlns="http://www.w3.org/2000/svg" xmlns:xlink="http://www.w3.org/1999/xlink">
    <!-- Generator: Sketch 47.1 (45422) - http://www.bohemiancoding.com/sketch -->
    <title>doctor</title>
    <desc>Created with Sketch.</desc>
    <defs></defs>
    <g id="Symbols" stroke="none" stroke-width="1" fill="none" fill-rule="evenodd">
        <g id="преимущество_3_безопасность" fill-rule="nonzero" fill="#022A4C">
            <g id="doctor">
                <ellipse id="Oval" cx="29.581044" cy="33.0163043" rx="1.21565934" ry="1.22282609"></ellipse>
                <path d="M29.0346336,30.8981748 C29.0516585,30.8911952 30.7896254,30.2291996 32.6833709,30.7383134 C33.2480328,30.8898529 33.8369553,30.57966 33.9976995,30.0449093 C34.1583018,29.5101587 33.8300034,28.9533952 33.264774,28.801453 C30.6266112,28.0926131 28.3017081,29.0052059 28.2039563,29.0442652 C27.6628457,29.2613063 27.4103084,29.8522971 27.6395782,30.3640953 C27.8688479,30.8754909 28.4923879,31.1153502 29.0346336,30.8981748 Z" id="Shape"></path>
                <ellipse id="Oval" cx="18.2348901" cy="33.0163043" rx="1.21565934" ry="1.22282609"></ellipse>
                <path d="M20.4252385,29.0443192 C20.3273023,29.0049907 18.0011042,28.0926503 15.3619361,28.8015027 C14.7964609,28.9534476 14.4680197,29.5100867 14.6286919,30.044981 C14.789364,30.5797411 15.3781168,30.8904765 15.943592,30.7383973 C18.0293496,30.1781341 19.5888064,30.9782609 20.0092225,30.9782609 C21.1590504,30.9782609 21.49104,29.471832 20.4252385,29.0443192 Z" id="Shape"></path>
                <path d="M38.4917192,51.3920838 C36.8249569,51.3920838 32.1642064,51.3920838 30.5770546,51.3920838 L30.5770546,49.1192411 C31.6512898,48.5539601 32.6584847,47.8474687 33.56902,47.0047473 C34.0443709,46.5648565 34.0378692,45.8054844 33.5599176,45.3735037 C33.1505956,45.0021672 32.5222367,44.9983586 32.1078578,45.3819997 C24.8693763,52.0815831 13.1396234,47.4121188 12.3302265,37.4901846 L35.9275696,37.4901846 C35.7682042,39.4624426 35.1462025,41.3118007 34.1401635,42.9247339 C33.819988,43.4374272 33.9705398,44.1160867 34.4762323,44.4405483 C34.9814912,44.7651564 35.651317,44.6126668 35.9714926,44.099827 C37.2296554,42.0843563 37.9712894,39.7508692 38.1082598,37.3687496 C40.3464546,36.8504899 41.8172972,34.7714452 41.8172972,32.7395683 L41.8172972,25.3222143 C42.2718424,24.8162592 42.5515626,24.1463888 42.5515626,23.4095752 L42.5515626,19.4282918 C42.5515626,18.7084704 42.2844125,18.05193 41.8482166,17.550223 C41.9913998,15.8283058 42.1647801,10.7262748 39.618113,7.5922538 C38.4820388,6.19391938 36.9721857,5.36716478 35.1243855,5.12942156 C31.9312989,-0.0821793067 24.9049192,-0.635448644 18.9836942,0.479293124 C13.4772815,1.58158377 8.48002876,5.97258235 7.30393263,11.3911648 C6.9343437,13.1262655 6.73799055,15.0948614 6.71429525,17.2442183 C6.09735047,17.766726 5.70377727,18.5518792 5.70377727,19.4284383 L5.70377727,23.4097217 C5.70377727,24.1463888 5.9837864,24.8165522 6.43833166,25.3226537 C6.43833166,33.3461578 6.42547262,32.8087087 6.46823976,32.9919599 C6.60535465,35.1369223 8.13427962,36.9023451 10.1466466,37.3686031 C10.4561303,42.6279577 13.6008149,47.1258894 18.049319,49.3071798 L18.049319,51.3922303 C16.4454071,51.3922303 11.7687634,51.3922303 10.1346544,51.3922303 C4.54631952,51.3922303 0,56.0016362 0,61.6673369 L0,72.1535267 C0,73.7231007 1.25946314,75 2.80745994,75 C4.70236176,75 44.5705758,75 45.8189137,75 C47.367055,75 48.6263736,73.7229542 48.6263736,72.1535267 L48.6263736,61.6673369 C48.6263736,56.0014897 44.0799096,51.3920838 38.4917192,51.3920838 Z M38.1351338,35.0512293 L38.1351338,30.3072047 C40.1203378,31.2433827 40.1368089,34.1077271 38.1351338,35.0512293 Z M39.6500439,28.6514982 C39.1814837,28.3389018 38.6541187,28.115221 38.1349893,27.9911492 L38.1349893,26.2559021 L39.6500439,26.2559021 L39.6500439,28.6514982 Z M39.889146,18.839134 C39.968126,18.8671124 40.0114987,18.8906963 40.0114987,18.8906963 C40.2342336,19.0075904 40.3810189,19.204904 40.3810189,19.4284383 C40.3810189,23.7076698 40.5005306,23.6805703 40.0221051,23.940579 C39.6775858,24.1260275 33.0797284,24.0590844 19.7802198,24.0590844 C19.7802198,22.3016188 19.7802198,21.2146016 19.7802198,18.7994369 C32.8348336,18.7994369 39.5724685,18.7679428 39.7404667,18.7994369 C39.7957716,18.8099837 39.8404701,18.821263 39.889146,18.839134 Z M9.41758255,11.8766122 C10.8004346,6.4895237 15.6461241,2.20428643 23.9128951,2.20428643 C27.2020632,2.20428643 31.5375812,2.98299434 33.5144052,6.69284323 C33.6928424,7.02770521 34.0294891,7.24523366 34.4042794,7.2674992 C35.9168778,7.35744026 37.0739021,7.91949862 37.9421038,8.98575425 C39.6809633,11.1211952 39.8060861,14.6943747 39.7329774,16.581965 L8.8926738,16.581965 C8.94483236,14.8577041 9.12052436,13.2790481 9.41758255,11.8766122 Z M10.120495,35.0512293 C8.10307117,34.1009888 8.1563856,31.2343007 10.120495,30.3072047 L10.120495,35.0512293 Z M10.120495,27.9912957 C9.59168523,28.1177112 9.0700996,28.3421244 8.60544049,28.6516447 L8.60544049,26.256195 L10.120495,26.256195 L10.120495,27.9912957 Z M8.19608385,23.9407255 C8.04090098,23.8708527 7.87117507,23.6461466 7.87117507,23.4095752 L7.87117507,19.4282918 C7.87117507,19.0779026 8.1976237,18.793431 8.60346027,18.7812729 C8.63049323,18.779808 19.7528446,18.7812729 19.7802198,18.7812729 C19.7802198,21.4248318 19.7929873,21.422781 19.7802198,24.0589379 C7.9023143,24.0589379 8.47582364,24.1106467 8.19608385,23.9407255 Z M12.2877484,26.256195 L35.967736,26.256195 C35.967736,27.3439838 35.967736,34.2458613 35.967736,35.2932205 L25.2110799,35.2932205 L25.2110799,33.7482558 C25.2110799,33.1413734 24.7260486,32.6496273 24.1274532,32.6496273 C23.5288578,32.6496273 23.0438265,33.1413734 23.0438265,33.7482558 L23.0438265,35.2932205 L12.2874594,35.2932205 C12.2877484,34.2460078 12.2877484,27.3438373 12.2877484,26.256195 Z M19.1329457,53.5893409 C19.7315411,53.5893409 20.2165724,53.0975948 20.2165724,52.4907124 L20.2165724,50.1542956 C22.8429944,50.9284626 25.7491366,50.9073689 28.4098013,50.0397453 L28.4098013,52.4907124 C28.4098013,53.0975948 28.8948326,53.5893409 29.4934279,53.5893409 L29.7452628,53.5893409 C26.7798823,57.107296 21.4782028,57.1105186 18.510655,53.5893409 L19.1329457,53.5893409 L19.1329457,53.5893409 Z M21.0746602,72.8024499 L9.9767339,72.8024499 L9.9767339,65.8898791 C9.9767339,65.2829967 9.49170261,64.7912506 8.89310725,64.7912506 C8.29451188,64.7912506 7.80948059,65.2829967 7.80948059,65.8898791 L7.80948059,72.8024499 L2.80745994,72.8024499 C2.45448662,72.8024499 2.16710883,72.5112401 2.16710883,72.1532337 L2.16710883,61.6670439 C2.16710883,57.2129108 5.74119851,53.5891944 10.1345099,53.5891944 L11.1234999,53.5891944 C12.7404153,58.0420092 16.5203941,61.4063028 21.0746602,62.453076 L21.0746602,72.8024499 Z M46.4594093,72.1533802 L46.4594093,72.1533802 C46.4592648,72.5113866 46.1720315,72.8027429 45.8189137,72.8027429 L40.817182,72.8027429 L40.817182,65.8901721 C40.817182,65.2832897 40.3321507,64.7915435 39.7335553,64.7915435 C39.13496,64.7915435 38.6499287,65.2832897 38.6499287,65.8901721 L38.6499287,72.8027429 L27.5520024,72.8027429 L27.5520024,68.4839608 C27.5520024,67.8770784 27.0669711,67.3853323 26.4683757,67.3853323 C25.8697804,67.3853323 25.3847491,67.8770784 25.3847491,68.4839608 L25.3847491,72.8027429 L23.2419135,72.8027429 L23.2419135,61.5454624 C23.2419135,61.0039117 22.8526748,60.5430737 22.3247319,60.4598709 C18.4095165,59.8424416 15.0661671,57.2091023 13.4610993,53.5897804 L15.8647277,53.5897804 C19.547469,60.0258394 28.7052701,60.0296479 32.3909011,53.5897804 L34.7926512,53.5897804 C33.235552,57.0854699 30.024405,59.6924422 26.2699998,60.4008379 C25.7567942,60.4976637 25.3846046,60.951617 25.3846046,61.480863 L25.3846046,64.9686424 C25.3846046,65.5755249 25.8696359,66.067271 26.4682313,66.067271 C27.0668266,66.067271 27.5518579,65.5755249 27.5518579,64.9686424 L27.5518579,62.363135 C31.9601956,61.2218796 35.5588475,57.9274588 37.132129,53.5897804 L38.4917192,53.5897804 C42.8850306,53.5897804 46.4592648,57.2133503 46.4592648,61.6676299 L46.4592648,72.1533802 L46.4594093,72.1533802 Z" id="Shape"></path>
            </g>
        </g>
    </g>
</svg>