<?xml version="1.0" encoding="UTF-8"?>
<svg width="80px" height="91px" viewBox="0 0 80 91" version="1.1" xmlns="http://www.w3.org/2000/svg" xmlns:xlink="http://www.w3.org/1999/xlink">
    <!-- Generator: Sketch 47.1 (45422) - http://www.bohemiancoding.com/sketch -->
    <title>преимущество_1_подход</title>
    <desc>Created with Sketch.</desc>
    <defs></defs>
    <g id="Symbols" stroke="none" stroke-width="1" fill="none" fill-rule="evenodd">
        <g id="преимущество_1_подход" fill-rule="nonzero" fill="#022A4C">
            <g id="chair">
                <path d="M69.8235794,61.8609964 C69.3316375,61.3110421 68.4886895,61.2658526 67.9409422,61.7609722 C67.393728,62.2557346 67.3489413,63.1029036 67.8414164,63.6530365 L74.7549052,71.3786528 C76.0579823,72.8311465 75.0286012,75.1615309 73.0816276,75.1615309 C72.4435961,75.1615309 71.8329343,74.8887865 71.4062174,74.4131358 L57.7781135,59.2221446 C57.2037075,58.5818114 58.5945806,58.7698925 33.9950009,58.9376116 C33.3557254,58.9415411 32.7471962,58.6743337 32.3181689,58.2045774 L13.944106,38.1020425 C13.5367611,37.6565777 13.3263351,37.0780451 13.3521052,36.4734348 C13.4365244,34.4749163 15.899788,33.5436198 17.2645356,35.0364805 C35.8465363,55.3663917 34.7162076,54.3950857 35.5442267,54.3950857 C35.5627101,54.3950857 58.3450552,54.2368331 58.3640717,54.2368331 C59.0077904,54.2368331 59.6212959,54.5092204 60.0483682,54.9852282 L64.9647652,60.4653021 C65.4575956,61.0148991 66.3007214,61.0584811 66.8475801,60.5631829 C67.3942611,60.0678846 67.4378037,59.2203585 66.9449732,58.67094 L62.028754,53.1910448 C61.1035194,52.159367 59.785158,51.5595792 58.3905527,51.5579717 L58.3905527,46.2758028 C58.3905527,44.6811318 57.3234939,43.3347352 55.8704171,42.9124903 L55.8704171,42.3327074 C55.8704171,40.3057891 54.2298409,38.656998 52.2130216,38.656998 L36.2321988,38.656998 C34.2152018,38.656998 32.5744478,40.3057891 32.5744478,42.3327074 L32.5744478,42.7729923 L27.956806,42.7729923 L19.2287484,33.2237211 C17.6644161,31.511879 15.2123491,31.1803704 13.307674,32.1949012 L12.092926,30.8660087 C13.2403164,29.0387816 13.0976035,26.5792588 11.5506881,24.8874216 L8.54518657,21.5991272 C6.72102076,19.6031093 3.60692946,19.4430706 1.59313145,21.3028056 C-0.409825347,23.1516451 -0.542052486,26.277043 1.29810853,28.2898507 L4.30378781,31.5777878 C5.77268204,33.185319 8.14495066,33.6461446 10.1146729,32.6625141 L11.3743853,34.0405256 C10.3005729,35.8497127 10.4607028,38.2502926 11.9814927,39.9144446 L30.3557333,60.0164437 C31.2605295,61.0065043 32.5348152,61.5827149 33.8711268,61.613258 C35.6419753,65.3736307 39.2720012,67.9699722 43.3689098,68.438121 L43.3689098,76.7831727 L36.7381809,76.7831727 C34.7211838,76.7831727 33.0804299,78.4319638 33.0804299,80.4588821 L33.0804299,80.9047041 C31.209167,80.963111 29.7036615,82.5074127 29.7036615,84.4019775 L29.7036615,87.4966537 C29.7036615,89.4281917 31.267283,90.9996428 33.1890196,90.9996428 L49.0632076,90.9996428 C49.7995208,90.9996428 50.3963202,90.4000336 50.3963202,89.6598548 C50.3963202,88.919676 49.7996986,88.3200669 49.0632076,88.3200669 L33.1890196,88.3200669 C32.7372436,88.3200669 32.3698867,87.9506919 32.3698867,87.4966537 L32.3698867,84.4023347 C32.3698867,83.9482965 32.7372436,83.5791001 33.1890196,83.5791001 C34.6060183,83.5791001 55.0621254,83.5791001 56.2678095,83.5791001 C56.7195855,83.5791001 57.0869424,83.9482965 57.0869424,84.4023347 L57.0869424,87.4970109 C57.0869424,87.9510492 56.7195855,88.3204241 56.2678095,88.3204241 L53.7439417,88.3204241 C53.0076285,88.3204241 52.4108291,88.9200332 52.4108291,89.6602121 C52.4108291,90.4003909 53.0074508,91 53.7439417,91 L56.2678095,91 C58.1897238,91 59.7531676,89.4285489 59.7531676,87.4970109 L59.7531676,84.4023347 C59.7531676,82.5075913 58.2474843,80.9632896 56.3762215,80.9050613 L56.3762215,80.4592393 C56.3762215,78.4323211 54.7354675,76.7835299 52.7186482,76.7835299 L46.0349573,76.7835299 L46.0349573,68.4388355 C50.1986904,67.9669357 53.8580409,65.3127231 55.6029415,61.466794 L56.1995632,61.4626859 L69.4270757,76.2066048 C71.2336467,78.2206628 74.3461385,78.4076723 76.3764649,76.5679421 C78.391507,74.7419653 78.552881,71.608887 76.7370682,69.5848266 L69.8235794,61.8609964 Z M35.2399621,42.332886 C35.2399621,41.7836462 35.6848069,41.3367525 36.2316656,41.3367525 L52.2124884,41.3367525 C52.7589917,41.3367525 53.2038365,41.7836462 53.2038365,42.332886 L53.2038365,42.7731709 L35.2399621,42.7731709 L35.2399621,42.332886 Z M54.9046614,45.4527468 C55.3564374,45.4527468 55.7237943,45.8219432 55.7237943,46.2759814 L55.7237943,51.5754759 L36.1257417,51.7115802 L30.4051407,45.4527468 C31.7293671,45.4527468 53.6085155,45.4527468 54.9046614,45.4527468 Z M7.92723796,30.4984199 C7.2879624,30.4984199 6.69809429,30.2379999 6.26622339,29.7655643 L3.26036639,26.4774485 C2.41777383,25.5556187 2.47784476,24.1238442 3.39579257,23.2761395 C4.29792289,22.4434383 5.72274141,22.4736242 6.58079602,23.4118865 L9.58647529,26.7003595 C10.9035927,28.1416006 9.895183,30.4984199 7.92723796,30.4984199 Z M52.7177596,79.4632844 C53.2644406,79.4632844 53.7091077,79.9101781 53.7091077,80.4595965 L53.7091077,80.8998815 L35.7457664,80.8998815 L35.7457664,80.4595965 C35.7457664,79.9103567 36.1906112,79.4632844 36.7372923,79.4632844 L52.7177596,79.4632844 Z M36.9103961,61.5966468 L52.5647387,61.4882278 C48.9395113,67.2160401 40.6399478,67.2964166 36.9103961,61.5966468 Z" id="Shape"></path>
                <path d="M76.6467672,1.8698135 L73.5494956,1.8698135 C72.8191601,1.8698135 72.2272057,2.47741119 72.2272057,3.22745135 C72.2272057,3.97749151 72.8189838,4.5850892 73.5494956,4.5850892 L76.6467672,4.5850892 C77.037584,4.5850892 77.3555964,4.91160282 77.3555964,5.31286707 C77.3555964,5.71431231 77.037584,6.04082593 76.6467672,6.04082593 L55.043959,6.04082593 C55.109007,5.55250345 55.1049525,5.02273329 55.043959,4.5849082 L69.0246939,4.5849082 C69.7548532,4.5849082 70.3469838,3.97731052 70.3469838,3.22727036 C70.3469838,2.4772302 69.7550295,1.86963251 69.0246939,1.86963251 L53.8547619,1.86963251 C51.146368,-1.3924268 45.9894196,-0.186462136 44.9144531,3.94074968 C42.1667483,1.77388655 38.2859041,1.92284482 35.7130709,4.36880107 L35.1043698,4.94725869 C33.7078652,6.27720441 33.6244839,8.52641992 34.918745,9.96116132 L44.7501584,20.8626258 C46.0327849,22.2848786 48.2216763,22.4005339 49.6352802,21.0553847 L50.2416897,20.479099 C53.0084328,17.8490716 53.2929517,13.4983319 50.9603907,10.5189856 C52.1095718,10.2760913 53.1201955,9.64007752 53.8547619,8.75555864 L76.6465909,8.75555864 C78.4956109,8.75555864 80,7.21095374 80,5.31232408 C79.9998237,3.41405642 78.4956109,1.8698135 76.6467672,1.8698135 Z M48.4452016,18.4870763 C47.8084717,19.0921401 47.6778469,19.2856229 47.2872064,19.2856229 C46.7791622,19.2856229 47.4093697,19.8153931 36.859079,8.11664895 C36.5548166,7.77945667 36.5745602,7.25077247 36.9017392,6.93891938 C37.5654403,6.30815443 38.5959838,5.1325968 40.5613498,5.1325968 C41.828111,5.1325968 42.9995037,5.65766111 43.8599352,6.61186278 L48.6895282,11.9669396 C50.3767215,13.8384201 50.2679557,16.7544184 48.4452016,18.4870763 Z M52.1301968,6.57077708 C50.8646696,8.90958474 47.38328,7.98506613 47.38328,5.31286707 C47.38328,3.87884965 48.51924,2.71252272 49.915392,2.71252272 C51.8172966,2.71252272 53.070484,4.81639985 52.1301968,6.57077708 Z" id="Shape"></path>
                <path d="M40.424265,33.2659556 L44.8745449,23.8509032 C45.1787417,23.2073038 44.9107426,22.4355358 44.276008,22.1271732 C43.6409335,21.8188105 42.8797618,22.0904798 42.575565,22.7339068 L38.1254551,32.1489593 C37.8212583,32.7925586 38.0892574,33.5643266 38.723992,33.8726892 C39.3597463,34.1815687 40.1204082,33.9088659 40.424265,33.2659556 Z" id="Shape"></path>
                <path d="M22.8023325,16.8847403 L32.2422003,12.5280011 C32.8873128,12.230258 33.1766836,11.4485502 32.8883366,10.7822399 C32.6001601,10.116282 31.8431212,9.81783418 31.1976675,10.1150487 L21.7577997,14.4717879 C21.1126872,14.769531 20.8233164,15.5512388 21.1116634,16.2175491 C21.399328,16.8819214 22.1544901,17.1830119 22.8023325,16.8847403 Z" id="Shape"></path>
            </g>
        </g>
    </g>
</svg>