<?xml version="1.0" encoding="UTF-8"?>
<svg width="61px" height="75px" viewBox="0 0 61 75" version="1.1" xmlns="http://www.w3.org/2000/svg" xmlns:xlink="http://www.w3.org/1999/xlink">
    <!-- Generator: Sketch 47.1 (45422) - http://www.bohemiancoding.com/sketch -->
    <title>implants</title>
    <desc>Created with Sketch.</desc>
    <defs></defs>
    <g id="Symbols" stroke="none" stroke-width="1" fill="none" fill-rule="evenodd">
        <g id="преимущество_2_технологии" fill-rule="nonzero" fill="#022A4C">
            <g id="implants">
                <path d="M59.8397091,17.2494335 C57.4094592,1.98404769 42.5693028,-4.39313125 30.0961333,3.28248146 C17.5201795,-4.47501578 2.77115752,2.05011195 0.351377671,17.249287 C-1.27164,26.1763122 2.79136045,37.3175887 11.2249767,43.4918874 C9.79410807,56.2147512 15.0927314,68.7804378 19.4733749,68.4159857 C21.5131333,68.4159857 21.9471276,68.4945011 22.738286,68.180293 C22.7393183,68.2070996 22.7968303,69.6763337 22.7988948,69.7029937 C22.8379735,70.2725233 23.2561888,75 26.3470893,75 L33.8444399,75 C35.5557901,75 36.4467835,73.5509807 36.9087964,72.160848 C38.6934375,72.5752511 38.9523889,70.3784312 37.6060186,70.065981 L37.3649107,70.0100241 C37.4005976,69.6747223 37.3892427,69.8055325 37.4532432,68.180586 C37.8586289,68.3415719 38.3294899,68.4159857 38.576349,68.4159857 C40.9890505,68.4159857 40.9075014,68.4243353 40.9075014,68.4243353 C45.2387437,68.4243353 50.3783979,56.0448299 48.9662575,43.4921804 C51.7527869,41.4519519 54.0874785,38.8773499 55.9125254,35.9214502 C56.2317907,35.4042153 56.0686926,34.7277524 55.5478405,34.4104682 C55.0268409,34.0933304 54.346135,34.2554882 54.0265748,34.772723 C52.1509468,37.8112397 49.7406048,40.2966329 47.1594965,42.0746552 C46.8197334,42.3087365 46.6396766,42.7114209 46.6929121,43.1186463 C48.3480775,55.8065005 43.0136198,65.9948989 40.9396491,66.2248787 C40.9390593,66.2239998 40.8392244,66.2187264 38.6242757,66.2187264 C38.2985219,66.1857675 38.0711284,66.0429457 37.9143713,65.8396259 C39.3694245,66.1819589 39.8367463,64.0290843 38.4290299,63.702425 L37.6365442,63.5185877 L37.8042138,59.2597132 C39.4620336,59.6435012 39.7939809,57.4646988 38.4290299,57.1480005 L37.8921039,57.0233427 L38.0597734,52.7638823 L38.5571783,52.8793116 C39.1545656,53.0175925 39.747234,52.6481599 39.8858526,52.0592944 C40.0246187,51.4683782 39.6552148,50.8776084 39.0603345,50.739474 L38.1476635,50.5278047 L38.3151856,46.2686372 C38.5695655,46.3275238 38.6540639,46.3537444 38.8096412,46.3537444 C39.3117651,46.3537444 39.7664047,46.0114114 39.8857052,45.5047234 C40.0244713,44.9138071 39.6550674,44.3230374 39.060187,44.184903 L38.4030757,44.0325597 C38.4604402,42.5781205 38.4753344,42.4697224 38.4386152,41.9800265 C38.1397003,37.9613857 34.760945,34.8053889 30.6534096,34.8053889 C30.5251137,34.8053889 29.6637611,34.8053889 29.5370873,34.8053889 C26.0950688,34.8053889 23.0920585,37.0417595 22.0847139,40.2463889 L21.1832505,40.0372098 C20.5885176,39.8998079 19.9937847,40.2663107 19.8545762,40.857227 C19.7158101,41.4481433 20.085214,42.0389131 20.6800943,42.1770474 L21.733301,42.4213827 C21.728877,42.6581007 21.7098538,42.0497529 21.8950719,46.7568683 L21.1833979,46.5916344 C20.588665,46.4539394 19.9939321,46.8205888 19.8547236,47.4116515 C19.7159575,48.0025678 20.0853614,48.5933376 20.6802418,48.731472 L21.984879,49.0341078 L22.1556454,53.3732555 C21.5700554,53.2526992 20.9912489,53.6162724 20.8545473,54.1982531 C20.7157813,54.7890229 21.0851852,55.3799392 21.6800655,55.5180736 L22.2453051,55.6493232 L22.415629,59.9865666 C20.5780474,59.5607377 20.33458,61.7603408 21.6797706,62.0724981 L22.5052887,62.2640991 L22.5955383,64.5573054 C22.6042389,65.272733 22.4302282,66.1309825 21.5666637,66.218287 C19.3031985,66.218287 19.2375758,66.2389412 19.0901092,66.1772714 C16.6672325,65.1798622 11.9257381,55.1720785 13.4981748,43.1182068 C13.5512627,42.7109814 13.3713535,42.3082971 13.0315904,42.0742157 C3.79619803,35.712857 -0.444057304,22.5801311 4.07520489,12.3113129 L4.07520489,12.3114594 C8.51365537,2.2742324 19.8281796,-0.863160928 29.4837044,5.5031782 C29.8544355,5.74751344 30.3363564,5.74751344 30.7067926,5.5031782 C41.5395434,-1.63527785 55.1698835,3.08707186 57.6605948,17.628827 C58.3702042,21.5148998 57.8273796,26.8756266 55.6155277,31.7799093 C55.3657192,32.3336187 55.6149378,32.9837145 56.1723616,33.2318583 C56.7294906,33.4798556 57.3842424,33.2325907 57.6340508,32.6787349 C60.0264019,27.3789454 60.6243791,21.5629465 59.8397091,17.2494335 Z M33.6097875,72.606383 L26.1995815,72.606383 C25.501281,72.606383 24.9195825,70.643319 24.8681319,69.4148936 L34.4945055,71.5331242 C34.2576576,72.1473369 33.9473504,72.606383 33.6097875,72.606383 Z M35.1319799,69.4148936 L25.0357528,67.1507778 L24.8681319,63.0319149 L35.2967033,65.3705878 L35.1319799,69.4148936 Z M35.9297276,63.0319149 L25.0402812,60.4036305 L24.8681319,55.8510638 L36.0989011,58.5619097 L35.9297276,63.0319149 Z M35.9256739,56.6489362 L24.2423607,53.9423484 L24.0659341,49.4680851 L36.0989011,52.2553583 L35.9256739,56.6489362 Z M29.0639067,36.7104035 C29.2603174,36.6999362 29.2592821,36.7023738 30.4881803,36.7023738 C33.5668592,36.7023738 36.0873649,39.1145747 36.0989011,42.121832 L36.0600035,43.0851064 L24.0659341,40.3692116 C24.8208138,38.2460791 26.8158321,36.8285544 29.0639067,36.7104035 Z M36.0989011,45.9467513 L35.9330207,50.2659574 L24.2347323,47.4836376 L24.0659341,43.0851064 L36.0989011,45.9467513 Z" id="Shape"></path>
            </g>
        </g>
    </g>
</svg>