<?xml version="1.0" encoding="UTF-8"?>
<svg width="80px" height="76px" viewBox="0 0 80 76" version="1.1" xmlns="http://www.w3.org/2000/svg" xmlns:xlink="http://www.w3.org/1999/xlink">
    <!-- Generator: Sketch 47.1 (45422) - http://www.bohemiancoding.com/sketch -->
    <title>services1</title>
    <desc>Created with Sketch.</desc>
    <defs></defs>
    <g id="Symbols" stroke="none" stroke-width="1" fill="none" fill-rule="evenodd">
        <g id="services1" fill-rule="nonzero" fill="#FFFFFF">
            <g id="diagnostics">
                <path d="M41.6525602,38.3471944 C41.1892545,37.8844267 40.4383797,37.8841104 39.9749158,38.3471944 L13.3488348,64.9606874 C12.5992254,65.710096 13.1403551,66.9847231 14.1874988,66.9847231 C14.902467,66.9847231 13.1140974,68.548837 41.6522439,40.0240358 C42.115866,39.5609518 42.115866,38.8104364 41.6525602,38.3471944 Z" id="Shape"></path>
                <path d="M56.1845749,28.9590647 C58.6408268,30.4757463 61.4409853,31.2718438 64.3558313,31.2718438 C76.1153717,31.2718438 83.6908463,18.6734281 78.1492795,8.29210959 C77.8444355,7.72098933 77.13506,7.50507992 76.5638095,7.81026107 C75.9930278,8.11528588 75.7774027,8.82555124 76.0822467,9.3966715 C80.7892816,18.2165944 74.3525578,28.9270145 64.355675,28.9270145 C61.7653605,28.9270145 59.2812961,28.1873567 57.1269194,26.7807405 C57.2508258,24.7213931 55.5184807,22.9681649 53.3964478,23.1368588 C47.3805056,14.3871338 53.673323,2.34482936 64.355675,2.34482936 C68.0338029,2.34482936 71.4573993,3.82117445 73.9956825,6.50182815 C74.4408391,6.97195096 75.1824022,6.99196284 75.6522463,6.5465422 C76.1220904,6.10112155 76.1420905,5.35911861 75.6969339,4.8889958 C72.711619,1.73634317 68.6838034,0 64.3558313,0 C51.9851967,0 44.5178471,13.7956889 51.2400398,24.1268214 C48.9958193,26.3715913 51.1925398,24.1732552 51.2330086,24.1327624 C51.2048836,24.1609041 49.5837886,25.7829607 42.4823768,32.8885848 C41.3648759,32.3248126 39.9604998,32.4996039 39.0137803,33.4475103 L37.0009663,35.4615183 L28.3228345,26.778239 C27.2853337,25.7412172 25.7445513,25.5870632 24.5626753,26.2233784 L19.0250148,20.6821204 C17.7323575,19.3888527 15.767356,19.2808199 14.3659487,20.2212218 L2.54718948,20.2212218 C2.256408,20.2212218 2.34359557,20.86895 2.34359557,7.80541445 C2.34359557,7.1579989 1.81890766,6.63299977 1.17187591,6.63299977 C0.524687908,6.63315611 0,7.1579989 0,7.80557079 L0,20.0176635 C0,21.4228726 1.14250089,22.5662075 2.54703323,22.5662075 L12.7962599,22.5662075 C12.562041,23.7470647 12.9028225,25.0006213 13.8061045,25.9044391 L19.3453275,31.4471041 C18.6992333,32.6539142 18.8829834,34.1920147 19.899078,35.2088683 L28.576116,43.8910532 C3.53125275,68.9504594 5.02922266,67.4106391 4.78250372,67.7849238 C4.01469062,68.9496777 4.14265947,70.5364008 5.16656652,71.5609152 C9.00641325,75.4030396 8.84969438,75.2762455 9.1942259,75.504506 C9.1948509,75.5048187 9.1954759,75.5051314 9.19594465,75.5056004 C10.3670393,76.2799663 11.949228,76.1395705 12.9678226,75.1203718 L15.4470433,72.6396805 C15.4471995,72.6395242 15.4471995,72.6395242 15.4471995,72.6393678 L28.6808035,59.3979141 C29.1384602,58.9398297 29.1384602,58.1976704 28.6808035,57.7397423 C28.2231469,57.2819706 27.4812714,57.2819706 27.023771,57.7397423 L14.6184489,70.1522665 L10.1315704,65.6627266 C42.8378458,32.9373637 40.7312817,34.9125987 41.1358132,34.9125987 C41.3114384,34.9125987 41.4765947,34.9810768 41.6008136,35.1055257 C45.4697229,38.9765735 45.3506603,38.7664488 45.3506603,39.1299458 C45.3506603,39.5272129 46.5012862,38.2506739 29.6798668,55.0825401 C29.2222102,55.5406245 29.2222102,56.2827838 29.6798668,56.7407118 C30.1375234,57.1984836 30.879399,57.1984836 31.3368994,56.7407118 L36.3776845,51.6967803 L39.7098746,55.0307906 C40.3117501,55.6331794 41.111907,55.9649388 41.9631576,55.9649388 C42.4983143,55.9649388 43.0128459,55.8334545 43.4709713,55.5865893 C44.1000343,56.2160254 62.3161422,74.4430947 62.9383302,75.0656518 C63.5405182,75.6680406 64.340675,75.9996437 65.1917694,75.9996437 C66.6856768,75.9996437 67.3752086,75.135537 68.1570842,74.3530413 C69.4027102,73.1069891 69.4030227,71.0893853 68.1572405,69.8436458 C63.5050494,65.1879135 67.6792714,69.3647678 54.5620737,56.2399458 C54.1042608,55.7821741 53.3625415,55.7821741 52.9048849,56.2399458 C52.4472283,56.6980302 52.4472283,57.4401895 52.9048849,57.8981176 L62.9411427,67.9398595 L61.0362975,69.8458346 L45.2230039,54.0237866 L47.1276929,52.1179678 L50.2483203,55.2406026 C50.7061332,55.6983744 51.4478525,55.6983744 51.9055091,55.2406026 C52.3631657,54.7825182 52.3631657,54.0403589 51.9055091,53.5824309 L48.6897254,50.3647396 C49.3287884,49.1770034 49.1678507,47.635307 48.1337874,46.6012557 L44.8017536,43.2674017 L46.8142551,41.2537064 C47.7615996,40.3065817 47.9365998,38.901529 47.3731618,37.7825835 C57.3158258,27.8340219 55.9989498,29.1549623 56.1845749,28.9590647 Z M12.9614163,71.8105946 C11.1661024,73.6069734 11.3009463,73.4861204 11.1946962,73.5531915 C10.9562585,73.7026552 10.7200083,73.6424632 10.7200083,73.6424632 C10.4614144,73.5933716 10.6120395,73.6935873 6.82359906,69.9028997 C6.56719261,69.6461849 6.56719261,69.2289059 6.82359906,68.9725037 L8.47438159,67.320742 L12.9614163,71.8105946 Z M15.4632933,24.2461109 C14.9368866,23.7198611 14.9364179,22.8668547 15.4628245,22.3402922 C15.9895437,21.8134169 16.8414193,21.8135733 17.3679823,22.3401358 L22.8104865,27.786181 L20.9057975,29.6919998 L15.4632933,24.2461109 Z M30.2333048,42.2328814 L21.556423,33.5506965 C21.2275165,33.2215949 21.2275165,32.6862772 21.5562668,32.3573319 C22.0426734,31.8707931 24.8842381,29.0276992 25.4740823,28.4371925 C25.8068951,28.1041823 26.3404892,28.1107487 26.6661145,28.4365671 L35.3437775,37.1193773 C34.776902,37.686589 30.7793989,41.686307 30.2333048,42.2328814 Z M64.598019,69.5985003 L66.5000517,71.5019739 C66.828802,71.8304502 66.8303645,72.3642045 66.4997392,72.6950259 C65.7628636,73.4323385 65.6266135,73.6548143 65.1914569,73.6548143 C64.7389566,73.6548143 64.7564566,73.5692948 62.6931737,71.5043191 L64.598019,69.5985003 Z M46.7242551,48.8560316 C46.7242551,49.3249036 46.8423802,49.0872626 42.5592518,53.3726188 C42.2294078,53.7026585 41.6964387,53.7028148 41.3667509,53.3726188 L38.0344046,50.0384522 L43.144721,44.9249481 C46.7672239,48.549756 46.7239426,48.3904427 46.7242551,48.8560316 Z M45.8245669,36.0155972 L44.2478469,34.4377856 C53.5716042,25.1088105 52.9583224,25.6632021 53.2775414,25.5414111 C54.4778549,25.1422679 55.2703555,26.563893 54.4625423,27.3721853 L45.8245669,36.0155972 Z" id="Shape"></path>
                <path d="M71.0267446,22.9523093 C71.53389,23.3486144 72.2665544,23.2587853 72.6627278,22.7513593 C78.2938609,15.542803 73.1019534,5 63.9949387,5 C57.9321956,5 53,9.93190017 53,15.9941246 C53,24.3839809 62.0807482,29.6940027 69.3809697,25.576626 C69.9415807,25.2605145 70.1397451,24.5498073 69.82377,23.9889191 C69.5073286,23.4283417 68.7968898,23.2298783 68.2358125,23.5463007 C62.4817397,26.7911845 55.3310352,22.5995201 55.3310352,15.9938138 C55.3310352,11.2170165 59.2176998,7.3305847 63.9949387,7.3305847 C71.1734639,7.3305847 75.2606244,15.6394704 70.8257825,21.3161133 C70.4296091,21.8236946 70.5195991,22.5561597 71.0267446,22.9523093 Z" id="Shape"></path>
            </g>
        </g>
    </g>
</svg>