<?xml version="1.0" encoding="UTF-8"?>
<svg width="60px" height="75px" viewBox="0 0 60 75" version="1.1" xmlns="http://www.w3.org/2000/svg" xmlns:xlink="http://www.w3.org/1999/xlink">
    <!-- Generator: Sketch 47.1 (45422) - http://www.bohemiancoding.com/sketch -->
    <title>implants</title>
    <desc>Created with Sketch.</desc>
    <defs></defs>
    <g id="Symbols" stroke="none" stroke-width="1" fill="none" fill-rule="evenodd">
        <g id="services5" fill-rule="nonzero" fill="#FFFFFF">
            <g id="implants">
                <path d="M59.6757647,17.2494335 C57.252173,1.98404769 42.4526746,-4.39313125 30.0136781,3.28248146 C17.472179,-4.47501578 2.76356531,2.05011195 0.350414993,17.249287 C-1.26815606,26.1763122 2.78371289,37.3175887 11.1942234,43.4918874 C9.7672749,56.2147512 15.0513814,68.7804378 19.4200232,68.4159857 C21.4541932,68.4159857 21.8869985,68.4945011 22.6759893,68.180293 C22.6770188,68.2070996 22.7343732,69.6763337 22.7364321,69.7029937 C22.7754037,70.2725233 23.1924732,75 26.2749055,75 L33.7517155,75 C35.458377,75 36.3469293,73.5509807 36.8076764,72.160848 C38.5874281,72.5752511 38.84567,70.3784312 37.5029884,70.065981 L37.2625411,70.0100241 C37.2981302,69.6747223 37.2868064,69.8055325 37.3506316,68.180586 C37.7549067,68.3415719 38.2244776,68.4159857 38.4706604,68.4159857 C40.8767517,68.4159857 40.7954261,68.4243353 40.7954261,68.4243353 C45.1148019,68.4243353 50.2403749,56.0448299 48.8321034,43.4921804 C51.6109984,41.4519519 53.9392936,38.8773499 55.7593404,35.9214502 C56.077731,35.4042153 55.9150797,34.7277524 55.3956546,34.4104682 C54.8760824,34.0933304 54.1972414,34.2554882 53.8785568,34.772723 C52.0080675,37.8112397 49.6043292,40.2966329 47.0302924,42.0746552 C46.6914601,42.3087365 46.5118967,42.7114209 46.5649863,43.1186463 C48.215617,55.8065005 42.8957742,65.9948989 40.8274857,66.2248787 C40.8268975,66.2239998 40.7273361,66.2187264 38.5184557,66.2187264 C38.1935944,66.1857675 37.9668239,66.0429457 37.8104963,65.8396259 C39.2615631,66.1819589 39.7276045,64.0290843 38.3237448,63.702425 L37.5334304,63.5185877 L37.7006406,59.2597132 C39.3539184,59.6435012 39.6849563,57.4646988 38.3237448,57.1480005 L37.7882899,57.0233427 L37.9555001,52.7638823 L38.4515422,52.8793116 C39.0472929,53.0175925 39.6383375,52.6481599 39.7765763,52.0592944 C39.9149622,51.4683782 39.5465704,50.8776084 38.9533199,50.739474 L38.0431494,50.5278047 L38.2102125,46.2686372 C38.4638955,46.3275238 38.5481624,46.3537444 38.7033134,46.3537444 C39.2040616,46.3537444 39.6574556,46.0114114 39.7764293,45.5047234 C39.9148152,44.9138071 39.5464234,44.3230374 38.9531728,44.184903 L38.2978618,44.0325597 C38.3550692,42.5781205 38.3699225,42.4697224 38.3333039,41.9800265 C38.035208,37.9613857 34.6657096,34.8053889 30.5694277,34.8053889 C30.4414832,34.8053889 29.5824905,34.8053889 29.4561638,34.8053889 C26.0235755,34.8053889 23.0287925,37.0417595 22.0242079,40.2463889 L21.1252142,40.0372098 C20.5321107,39.8998079 19.9390072,40.2663107 19.8001801,40.857227 C19.6617942,41.4481433 20.030186,42.0389131 20.6234365,42.1770474 L21.6737577,42.4213827 C21.6693458,42.6581007 21.6503747,42.0497529 21.8350854,46.7568683 L21.1253612,46.5916344 C20.5322577,46.4539394 19.9391542,46.8205888 19.8003271,47.4116515 C19.6619412,48.0025678 20.030333,48.5933376 20.6235836,48.731472 L21.9246465,49.0341078 L22.094945,53.3732555 C21.5109594,53.2526992 20.9337386,53.6162724 20.7974116,54.1982531 C20.6590257,54.7890229 21.0274175,55.3799392 21.6206681,55.5180736 L22.184359,55.6493232 L22.3542164,59.9865666 C20.5216692,59.5607377 20.2788689,61.7603408 21.620374,62.0724981 L22.4436304,62.2640991 L22.5336327,64.5573054 C22.5423094,65.272733 22.3687756,66.1309825 21.5075769,66.218287 C19.250313,66.218287 19.1848701,66.2389412 19.0378075,66.1772714 C16.6215689,65.1798622 11.8930649,55.1720785 13.4611935,43.1182068 C13.514136,42.7109814 13.3347196,42.3082971 12.9958874,42.0742157 C3.78579749,35.712857 -0.442840709,22.5801311 4.06403994,12.3113129 L4.06403994,12.3114594 C8.49033028,2.2742324 19.7738559,-0.863160928 29.4029271,5.5031782 C29.7726425,5.74751344 30.2532431,5.74751344 30.6226644,5.5031782 C41.4257364,-1.63527785 55.0187332,3.08707186 57.5026206,17.628827 C58.2102859,21.5148998 57.6689484,26.8756266 55.4631564,31.7799093 C55.2140323,32.3336187 55.4625681,32.9837145 56.0184648,33.2318583 C56.5740673,33.4798556 57.2270253,33.2325907 57.4761493,32.6787349 C59.861946,27.3789454 60.4582849,21.5629465 59.6757647,17.2494335 Z M33.7515684,72.8024477 L26.2747584,72.8024477 C25.5701814,72.8024477 24.9832546,70.7083131 24.9313415,69.3978677 L34.6442384,71.6575291 C34.4052617,72.3127519 34.0921654,72.8024477 33.7515684,72.8024477 Z M35.0905734,69.5046545 L24.8419274,67.1203351 L24.671776,62.7827988 L35.2577836,65.2456335 L35.0905734,69.5046545 Z M35.3454329,63.0095559 L24.5823619,60.5054127 L24.4122105,56.1678764 L35.5126431,58.7506815 L35.3454329,63.0095559 Z M35.6004395,56.5143109 L24.3229435,53.8903439 L24.152645,49.552661 L35.7676497,52.2548505 L35.6004395,56.5143109 Z M29.1538031,37.0111443 C29.3491022,37.000451 29.3480728,37.0029412 30.570016,37.0029412 C33.6312712,37.0029412 36.1375121,39.4672408 36.148983,42.5394487 L36.1103055,43.5235279 L24.1841164,40.7489754 C24.9347239,38.5799875 26.9184514,37.1318471 29.1538031,37.0111443 Z M36.0225092,45.7596055 L35.855299,50.018773 L24.0632309,47.2751285 L23.8930795,42.9377386 L36.0225092,45.7596055 Z" id="Shape"></path>
            </g>
        </g>
    </g>
</svg>