<?xml version="1.0" encoding="UTF-8"?>
<svg width="52px" height="75px" viewBox="0 0 52 75" version="1.1" xmlns="http://www.w3.org/2000/svg" xmlns:xlink="http://www.w3.org/1999/xlink">
    <!-- Generator: Sketch 47.1 (45422) - http://www.bohemiancoding.com/sketch -->
    <title>services3</title>
    <desc>Created with Sketch.</desc>
    <defs></defs>
    <g id="Symbols" stroke="none" stroke-width="1" fill="none" fill-rule="evenodd">
        <g id="services3" fill-rule="nonzero" fill="#FFFFFF">
            <g id="children">
                <path d="M27,33.062119 L27,30.937881 C27,30.4197955 26.5524,30 26,30 C25.4476,30 25,30.4197955 25,30.937881 L25,33.062119 C25,33.5802045 25.4476,34 26,34 C26.5524,34 27,33.5802045 27,33.062119 Z" id="Shape"></path>
                <circle id="Oval" cx="31.5" cy="31.5" r="1.5"></circle>
                <path d="M34.8886612,30 C35.3049517,30 35.7042174,29.7581964 35.8935615,29.3457616 C36.1552975,28.7760784 35.9176921,28.096291 35.3631317,27.8274176 C32.6455485,26.5104244 29.9605342,27.153257 29.8475792,27.1815434 C29.2533438,27.3289068 28.8894598,27.9413238 29.0302465,28.5525242 C29.1708851,29.1632683 29.7677853,29.5427023 30.3640932,29.4002054 C30.3843748,29.395491 32.4252639,28.9260271 34.4153751,29.8908082 C34.5687452,29.964718 34.7298135,30 34.8886612,30 Z" id="Shape"></path>
                <circle id="Oval" cx="19.5" cy="31.5" r="1.5"></circle>
                <path d="M21.6333527,29.3999013 C22.2290247,29.5451355 22.8251408,29.168591 22.968694,28.5579989 C23.1126912,27.9457339 22.7462605,27.3293629 22.1504404,27.1815433 C22.0376697,27.1534089 19.3538158,26.5102722 16.6366633,27.8274175 C16.0822814,28.0962909 15.8447525,28.7759263 16.1064042,29.3457616 C16.2958353,29.7581964 16.6948246,30 17.1109811,30 C17.2696296,30 17.4307941,29.964718 17.5838189,29.8906561 C19.5593781,28.9327184 21.584219,29.3883433 21.6333527,29.3999013 Z" id="Shape"></path>
                <path d="M21.5660159,42.4285612 C21.5742589,42.4357158 21.5807664,42.4440152 21.5892986,42.4508836 C21.837021,42.650068 22.0980477,42.8305073 22.3691974,42.9932031 C22.375705,42.9970666 22.3823572,43.000787 22.3888648,43.0046505 C22.4692697,43.0524433 22.5502531,43.0988052 22.6323933,43.14345 C22.6682574,43.1630536 22.7046999,43.1816556 22.7409978,43.2005438 C22.7927693,43.2275882 22.8446855,43.2540602 22.89718,43.2798168 C22.9506869,43.3061458 23.0046276,43.3314731 23.0588576,43.3565143 C23.0925524,43.3719682 23.1265365,43.387136 23.1605206,43.4020176 C23.2284888,43.4319239 23.2967462,43.4611147 23.3657267,43.4888746 C23.3817787,43.4953137 23.3979754,43.5013236 23.4140275,43.5077628 C23.8455531,43.6781856 24.2980477,43.8071117 24.766739,43.889819 C24.7894432,43.8938256 24.8120029,43.8981183 24.8348518,43.9018387 C24.9064353,43.9138585 24.978308,43.9244473 25.0506146,43.9343207 C25.0908171,43.9397582 25.1311641,43.9446233 25.1715112,43.9496315 C25.2322487,43.9567861 25.2931309,43.9636546 25.3544469,43.9692352 C25.4135936,43.9746727 25.472885,43.9785362 25.532321,43.9826858 C25.5787419,43.9858339 25.6250181,43.9895543 25.6717281,43.9917007 C25.7809111,43.996852 25.8905278,44 26,44 C26.1096168,44 26.2190889,43.9969951 26.3282719,43.9917007 C26.3751265,43.9895543 26.4215474,43.9858339 26.468402,43.9826858 C26.5274042,43.9786793 26.5864064,43.9746727 26.6452639,43.9692352 C26.7070137,43.9636546 26.7681851,43.9567861 26.8293565,43.9494884 C26.8691251,43.9447664 26.9090383,43.9399013 26.9486623,43.9344638 C27.0215474,43.9247335 27.0939986,43.9140016 27.1661605,43.9018387 C27.1878525,43.8982614 27.2096891,43.8941118 27.2315257,43.8902483 C27.7020969,43.8072548 28.1563268,43.6778994 28.5895879,43.5064749 C28.6039046,43.5008943 28.6180766,43.4954568 28.6322487,43.4897331 C28.7026753,43.4614009 28.7725235,43.4316377 28.8419378,43.401016 C28.8743312,43.3867067 28.9064353,43.3723975 28.938684,43.357659 C28.9943601,43.3320455 29.0497469,43.3060027 29.1046999,43.2789583 C29.1556038,43.2540602 29.2060738,43.2281605 29.2565437,43.2018316 C29.2939986,43.1822279 29.3317426,43.1630536 29.3686189,43.1428776 C29.4496023,43.0988052 29.5295734,43.0531588 29.6088214,43.0059383 C29.6163413,43.0015025 29.6238612,42.9973528 29.6313811,42.9927738 C29.9022415,42.8302211 30.1631236,42.6499249 30.4107014,42.4510267 C30.4195228,42.4440152 30.4260304,42.4355727 30.4345625,42.428275 C31.9997108,41.1569006 33,39.2287329 33,37.0731917 C33,36.4803606 32.514389,36 31.9154013,36 L20.0845987,36 C19.4854664,36 19,36.4803606 19,37.0731917 C19,39.228876 20.0005785,41.157473 21.5660159,42.4285612 Z M27.053073,41.7388567 C27.0420824,41.7412893 27.0310918,41.7434356 27.0199566,41.7458682 C26.925235,41.7660442 26.8292119,41.7829291 26.7324657,41.7975245 C26.696457,41.8028189 26.6605929,41.8089719 26.6244396,41.8134077 C26.5866956,41.8182729 26.5486623,41.8218502 26.5106291,41.8257137 C26.4574114,41.8312943 26.4041938,41.8360163 26.3505423,41.8400229 C26.3200289,41.8421693 26.2895155,41.8441726 26.2587129,41.8458897 C26.1728127,41.8503255 26.0867679,41.8534736 26,41.8534736 C25.9132321,41.8534736 25.8273319,41.8504686 25.7415763,41.8458897 C25.7103398,41.8441726 25.6793926,41.8421693 25.64859,41.8398798 C25.5958062,41.8363025 25.5434563,41.8312943 25.4911063,41.8259999 C25.4520607,41.8219933 25.4130152,41.8182729 25.3742589,41.8132646 C25.3434563,41.8095443 25.3132321,41.8041067 25.2825741,41.7996709 C25.1784526,41.78436 25.0750542,41.7663304 24.9732466,41.7442942 C24.9654375,41.7425771 24.9576283,41.7411462 24.9498192,41.7394291 C24.5347795,41.6479931 24.1398409,41.5031838 23.7723789,41.3133004 C24.337961,40.7078772 25.1438901,40.3448523 25.9997108,40.3448523 C26.8553868,40.3448523 27.6614606,40.707591 28.2271873,41.3133004 C27.8607375,41.5030407 27.4671005,41.6475639 27.053073,41.7388567 Z M30.708026,38.1466695 C30.5561822,38.799027 30.2686913,39.4001574 29.877368,39.9207269 C28.9042661,38.845675 27.4967462,38.198612 26,38.198612 C24.5029646,38.198612 23.0955893,38.8458181 22.1227766,39.9207269 C21.7313087,39.4001574 21.4439624,38.7988839 21.2921186,38.1466695 L30.708026,38.1466695 Z" id="Shape"></path>
                <path d="M41.1992297,50.152002 L32.6512002,50.152002 L32.6512002,47.6436035 C33.5549612,47.1783691 34.4140684,46.6220215 35.2099285,45.9766113 C35.6810613,45.5947266 35.7533856,44.9027344 35.3715602,44.4312012 C34.9900275,43.9601074 34.2987009,43.8874512 33.8269825,44.2694824 C31.7149373,45.9821777 29.087252,46.9751953 26.3724555,47.0979492 C26.3518123,47.0988281 26.3313156,47.0995605 26.3108188,47.1004395 C26.1411349,47.1073242 25.9713045,47.1114258 25.8011814,47.1114258 C25.607487,47.1114258 25.4143781,47.1058594 25.2220014,47.0972168 C25.1656353,47.0947266 25.109562,47.090918 25.0534887,47.0876953 C24.9097185,47.0793457 24.7663876,47.0690918 24.6234958,47.0559082 C24.5706435,47.0512207 24.5174983,47.0465332 24.4646459,47.0409668 C23.2273733,46.9125 22.0233348,46.6063477 20.8717094,46.1230957 C20.8329119,46.1068359 20.7935289,46.0936523 20.7537066,46.0819336 C17.6917827,44.7719238 15.2122598,42.2821289 13.9300407,39.028125 C13.9047126,38.9638184 13.8804093,38.8983398 13.8558131,38.8330078 C13.8517138,38.8199707 13.8492249,38.8064941 13.8445399,38.79375 L13.8086706,38.6978027 C13.7769006,38.6131348 13.7448378,38.5284668 13.7157031,38.442041 C13.6483566,38.2431152 13.5856951,38.0416992 13.529329,37.8432129 C13.4915563,37.7102051 13.456419,37.5766113 13.4230386,37.4424316 C13.4098621,37.3896973 13.3982961,37.3365234 13.3858516,37.2836426 C13.3668189,37.2024902 13.3477862,37.1216309 13.3303639,37.0401855 C13.3161626,36.9744141 13.3034253,36.9083496 13.2905416,36.8421387 C13.2770723,36.7740234 13.263603,36.7059082 13.251305,36.6376465 C13.2379821,36.5641113 13.225684,36.4899902 13.2136788,36.4160156 C13.2038696,36.3555176 13.1942068,36.2950195 13.1854225,36.234375 C13.1737101,36.155127 13.1627297,36.0757324 13.1523349,35.9961914 C13.1453074,35.9412598 13.1387192,35.8861816 13.1324237,35.8311035 C13.122761,35.7467285 13.1132446,35.6623535 13.1051923,35.5776855 C13.1005074,35.5286133 13.0965544,35.4793945 13.0924551,35.4301758 C13.0849884,35.3403809 13.0775217,35.2504395 13.0719583,35.1603516 C13.069323,35.1199219 13.0678589,35.0791992 13.0656629,35.038623 C13.0603923,34.9400391 13.0551217,34.8414551 13.0520471,34.7428711 C13.0480942,34.6114746 13.0453125,34.4800781 13.0453125,34.3485352 L13.0453125,34.2193359 L13.0453125,27.1800293 C15.5970133,26.784375 22.2514345,25.2108398 25.7985461,19.3199707 C25.8105513,19.3382812 25.8229958,19.3560059 25.8358795,19.3731445 C29.3903113,25.2203613 36.0126697,26.7855469 38.5573431,27.1800293 L38.5573431,34.2193359 L38.5573431,34.3485352 C38.5573431,34.472168 38.554415,34.5955078 38.5510476,34.7188477 C38.5509012,34.7200195 38.5506084,34.7211914 38.5506084,34.7222168 C38.5470947,34.8457031 38.5413849,34.9688965 38.5343574,35.0917969 C38.5336254,35.104248 38.5331862,35.1165527 38.5324541,35.1290039 C38.5257195,35.2400391 38.5170816,35.3507812 38.5075652,35.461377 C38.5050763,35.4900879 38.5028802,35.5189453 38.5000985,35.5475098 C38.4907286,35.6484375 38.4797482,35.7492187 38.4680357,35.8498535 C38.4634972,35.8891113 38.4588122,35.9282227 38.4538344,35.967334 C38.442122,36.0603516 38.4293847,36.1532227 38.4156226,36.2456543 C38.4084487,36.2935547 38.4008356,36.3413086 38.3932226,36.3890625 C38.3796068,36.4740234 38.3656983,36.5591309 38.3503258,36.6437988 C38.3397846,36.7018066 38.3283649,36.759375 38.3170917,36.8170898 C38.3023048,36.8926758 38.2878106,36.9681152 38.2715596,37.0434082 C38.2558942,37.1169434 38.238472,37.1901855 38.2213425,37.2634277 C38.207434,37.3231934 38.1942575,37.383252 38.1794706,37.4430176 C38.1460901,37.5769043 38.1110992,37.7103516 38.0733266,37.8430664 C38.0169605,38.0414062 37.954299,38.2428223 37.8868061,38.4429199 C37.8865132,38.4439453 37.886074,38.4449707 37.8857812,38.4459961 C37.8414204,38.5768066 37.7941314,38.7074707 37.745232,38.8375488 C37.7371797,38.8589355 37.7301522,38.8785645 37.7219535,38.9002441 C37.7219535,38.9002441 37.7219535,38.9003906 37.7218071,38.9005371 C37.6686619,39.0402832 37.6131742,39.1791504 37.5551977,39.3161133 C37.1705905,40.2259277 36.6786682,41.0920898 36.0927535,41.8904297 C35.7339137,42.3796875 35.8393256,43.0671387 36.3280271,43.4263184 C36.8171677,43.7853516 37.5041022,43.6800293 37.8630884,43.190918 C38.1115384,42.8520996 38.3452016,42.5027344 38.5640777,42.1445801 C38.7756336,42.6345703 39.0112,43.1244141 39.2696057,43.6069336 C40.8683533,46.5900879 43.5524047,49.6003418 45.9451092,49.6004883 L45.9452556,49.6004883 C46.3822759,49.6004883 46.7894295,49.5011719 47.1547112,49.3051758 C47.8272979,48.9443848 48.9146512,47.9307129 48.6397018,45.1955566 C48.4692858,43.499707 47.8072403,41.5056152 46.775521,39.5805176 C45.6979768,37.5692871 44.1263141,35.5475098 42.4834984,34.4430176 C43.7245775,33.5939941 44.5667018,32.2032715 44.6684536,30.613916 C44.6886575,30.5310059 44.70037,30.4445801 44.70037,30.3552246 L44.70037,22.2624023 C44.7213059,22.1774414 44.7338968,22.0889648 44.7338968,21.9975586 L44.7338968,18.9291504 C44.7340432,8.49169922 36.2470649,0 25.8149435,0 C15.3829685,0 6.89599018,8.49169922 6.89599018,18.9295898 L6.89599018,21.997998 C6.89599018,22.036084 6.89803986,22.0737305 6.90169999,22.110791 L6.90169999,30.3556641 C6.90169999,30.4442871 6.91326602,30.530127 6.93317717,30.6127441 C7.03361132,32.1884766 7.86197343,33.5685059 9.08533749,34.4197266 C7.43007731,35.5192383 5.84450613,37.5556641 4.75905602,39.5808105 C3.72762953,41.5060547 3.06573042,43.5 2.89531446,45.1958496 C2.620365,47.9311523 3.70771838,48.9446777 4.38030509,49.3054687 C4.74558672,49.5013184 5.15244751,49.6007812 5.58976063,49.6007812 C5.58990703,49.6007812 5.58990703,49.6007812 5.59005344,49.6007812 C7.98275794,49.6007812 10.6666629,46.5905273 12.2654106,43.6072266 C12.5355287,43.1030273 12.780465,42.5916504 12.9990484,42.0802734 C14.0842057,43.8796875 15.538744,45.435498 17.2920958,46.6517578 C17.9493099,47.1076172 18.6372692,47.5054687 19.3487998,47.8467773 L19.3487998,50.1518555 L10.8007703,50.1518555 C4.84528884,50.1518555 0,54.9997559 0,60.9585937 L0,68.4153809 L0,72.052002 C0,73.6775391 1.32145572,74.999707 2.94597075,74.999707 L9.46935903,74.999707 L14.8664501,74.999707 C15.4730079,74.999707 15.964491,74.507959 15.964491,73.9010742 C15.964491,73.2941895 15.4730079,72.8024414 14.8664501,72.8024414 L10.5676928,72.8024414 L10.5676928,65.4259277 C10.5676928,64.819043 10.0762097,64.3272949 9.46965184,64.3272949 C8.863094,64.3272949 8.37161085,64.819043 8.37161085,65.4259277 L8.37161085,67.316748 L2.19622837,67.316748 L2.19622837,60.9587402 C2.19622837,56.2116211 6.05606203,52.3494141 10.8007703,52.3494141 L19.4465986,52.3494141 C19.4574326,52.4125488 19.4707555,52.4748047 19.4834928,52.5370605 C19.4902274,52.570459 19.4957908,52.6040039 19.5031111,52.6371094 C19.5249255,52.7368652 19.5490824,52.8357422 19.5754354,52.9338867 C19.5852446,52.9706543 19.5968106,53.0068359 19.6073518,53.0433105 C19.6253597,53.1061523 19.6432211,53.1688477 19.6629859,53.2308105 C19.676748,53.273291 19.6916814,53.3151855 19.7061755,53.357373 C19.7249154,53.4124512 19.7438017,53.4676758 19.7640057,53.522168 C19.7802567,53.5658203 19.7975325,53.6088867 19.8148083,53.6520996 C19.8354515,53.7041016 19.8560947,53.7561035 19.8780555,53.8075195 C19.896649,53.8510254 19.9159745,53.8940918 19.9354465,53.9371582 C19.9579929,53.9872559 19.9809786,54.0370605 20.0048426,54.0865723 C20.0254858,54.1293457 20.0464218,54.1719727 20.0680898,54.2143066 C20.0928323,54.2629395 20.1183069,54.3111328 20.1440742,54.3590332 C20.1666207,54.4006348 20.1891671,54.4420898 20.2124456,54.4833984 C20.239677,54.5311523 20.2677869,54.5783203 20.2960431,54.6256348 C20.3199072,54.665332 20.3434785,54.7051758 20.368221,54.7442871 C20.3985269,54.7924805 20.4300041,54.8397949 20.4614813,54.8871094 C20.4860774,54.9240234 20.5099415,54.9612305 20.5352696,54.9975586 C20.5712854,55.0494141 20.6089116,55.1002441 20.6463914,55.1512207 C20.668645,55.181543 20.690313,55.2124512 20.7130059,55.242334 C20.7728857,55.3208496 20.8345224,55.3980469 20.897916,55.4737793 C20.9197304,55.5 20.9428625,55.5251953 20.9651161,55.5508301 C21.0085985,55.6015137 21.0520809,55.6517578 21.0970274,55.7009766 C21.1257229,55.7324707 21.155736,55.7629395 21.1851635,55.7938477 C21.2251322,55.8360352 21.2652473,55.8780762 21.3062408,55.9192383 C21.3381572,55.9510254 21.3706592,55.9819336 21.4031612,56.0131348 C21.4435691,56.0519531 21.4841235,56.0904785 21.5255562,56.1282715 C21.5592295,56.1591797 21.5936347,56.1893555 21.62804,56.2195312 C21.6696192,56.2558594 21.7113447,56.292041 21.7539487,56.3273437 C21.7892324,56.3569336 21.8249554,56.3859375 21.8609711,56.4147949 C21.9043071,56.4493652 21.947936,56.4833496 21.9921504,56.516748 C22.028459,56.5442871 22.0650603,56.5719727 22.1021009,56.5989258 C22.1477794,56.6321777 22.1938971,56.6642578 22.2401613,56.6963379 C22.276909,56.7218262 22.3136568,56.7473145 22.3509902,56.7719238 C22.400036,56.8044434 22.4501067,56.8356445 22.500031,56.8668457 C22.5359003,56.8892578 22.5714768,56.9121094 22.6077854,56.9337891 C22.6642979,56.967334 22.7216888,56.9995605 22.7792262,57.0316406 C22.8102641,57.0489258 22.8407165,57.0669434 22.8720473,57.0837891 C22.9606226,57.1313965 23.0502227,57.1772461 23.1411405,57.2208984 C23.1592948,57.2296875 23.1780347,57.2373047 23.1963354,57.2458008 C23.2702701,57.2805176 23.3446441,57.314502 23.4198965,57.346582 C23.4548874,57.361377 23.4904639,57.3748535 23.5258941,57.3890625 C23.5854811,57.4132324 23.6450681,57.4372559 23.70568,57.459668 C23.7452094,57.4743164 23.7854709,57.487793 23.8252932,57.501709 C23.8826842,57.5217773 23.9399287,57.5415527 23.9979053,57.5600098 C24.0397772,57.5733398 24.0820884,57.5856445 24.1242532,57.5982422 C24.1814977,57.6150879 24.2385959,57.6316406 24.296426,57.646875 C24.3396156,57.6584473 24.3830981,57.6694336 24.4267269,57.680127 C24.4847034,57.6943359 24.5429728,57.7078125 24.6013886,57.7202637 C24.6451638,57.7296387 24.6890855,57.7390137 24.7330071,57.7475098 C24.7927405,57.7592285 24.8530596,57.7694824 24.913525,57.7797363 C24.9568611,57.7869141 25.0000507,57.7942383 25.0436795,57.8005371 C25.1067803,57.8097656 25.1701738,57.8172363 25.2338602,57.824707 C25.2754394,57.8293945 25.3168721,57.8348145 25.3588905,57.838916 C25.4294579,57.8458008 25.5007574,57.8504883 25.5719104,57.8550293 C25.6071941,57.857373 25.642185,57.8605957 25.6776152,57.8623535 C25.7844912,57.8674805 25.8920992,57.8705566 26.0002928,57.8705566 C26.1084864,57.8705566 26.2160945,57.8674805 26.3229705,57.8623535 C26.3584006,57.8605957 26.3932451,57.857373 26.4286752,57.8550293 C26.4998283,57.8504883 26.5711277,57.8456543 26.6416952,57.838916 C26.6835671,57.8349609 26.7249999,57.8293945 26.7667254,57.824707 C26.8304118,57.8172363 26.8938054,57.8096191 26.9569061,57.8005371 C27.0005349,57.7940918 27.0437246,57.7867676 27.0870606,57.7797363 C27.147526,57.7696289 27.2078451,57.7592285 27.2675785,57.7475098 C27.3116466,57.7388672 27.3555682,57.7296387 27.399197,57.7202637 C27.4576128,57.707666 27.5158822,57.6941895 27.5738587,57.680127 C27.6174876,57.6695801 27.66097,57.6585937 27.7041596,57.646875 C27.7619898,57.6316406 27.8190879,57.6150879 27.8763324,57.5982422 C27.9184972,57.5856445 27.9608084,57.5733398 28.0026803,57.5600098 C28.0606569,57.5415527 28.1179014,57.5217773 28.1752924,57.501709 C28.2151147,57.487793 28.2553762,57.4741699 28.2949057,57.459668 C28.3555175,57.4372559 28.4153974,57.4130859 28.4752772,57.3890625 C28.5101217,57.374707 28.5455518,57.3615234 28.5803963,57.3467285 C28.6560879,57.3146484 28.7304619,57.2806641 28.8045431,57.2458008 C28.8226974,57.2373047 28.8412908,57.2296875 28.8592987,57.2210449 C28.9502165,57.1773926 29.0398167,57.1316895 29.128392,57.0839355 C29.1595763,57.0672363 29.1900287,57.0492187 29.2207738,57.0319336 C29.278604,56.9998535 29.3361413,56.967627 29.3928002,56.9337891 C29.4289624,56.9124023 29.4640997,56.8895508 29.4998226,56.8674316 C29.5500397,56.8359375 29.6002568,56.8047363 29.6495954,56.7722168 C29.686636,56.7476074 29.723091,56.7222656 29.7595459,56.6969238 C29.8062493,56.6646973 29.8528062,56.6323242 29.8986311,56.5989258 C29.9352325,56.5721191 29.971541,56.544873 30.0077032,56.517334 C30.052064,56.4837891 30.0961321,56.4495117 30.1394681,56.4147949 C30.1753374,56.3862305 30.2107676,56.3572266 30.2461977,56.3277832 C30.2888017,56.292334 30.33082,56.2560059 30.3725456,56.2195312 C30.4066581,56.189502 30.4410634,56.1594727 30.4745902,56.1287109 C30.5161694,56.090625 30.5570165,56.0518066 30.5977172,56.0128418 C30.6299264,55.9819336 30.6621356,55.9513184 30.6937592,55.9198242 C30.7351919,55.8783691 30.7755998,55.8357422 30.8161542,55.7931152 C30.844996,55.7625 30.8745699,55.7326172 30.903119,55.7015625 C30.9489439,55.6513184 30.9933048,55.5999023 31.037812,55.5481934 C31.0591872,55.5234375 31.0812944,55.4992676 31.102084,55.4742187 C31.165624,55.3981934 31.2272607,55.3208496 31.2874333,55.242041 C31.3093942,55.2131836 31.3303301,55.1834473 31.3517053,55.1540039 C31.3900636,55.1021484 31.4284218,55.050293 31.465316,54.9971191 C31.4899121,54.9616699 31.5134834,54.9251953 31.5374939,54.8891602 C31.5695567,54.8409668 31.6016195,54.7929199 31.6323646,54.7439941 C31.6566679,54.7053223 31.6798,54.6662109 31.7033713,54.6270996 C31.7319203,54.5793457 31.7606158,54.5314453 31.7879936,54.482959 C31.8109793,54.4425293 31.8333793,54.4013672 31.8554865,54.3603516 C31.8816931,54.3117187 31.9073141,54.2629395 31.9323494,54.2135742 C31.9535782,54.1718262 31.9743678,54.1299316 31.9947181,54.0877441 C32.018875,54.0376465 32.0421535,53.9871094 32.0649928,53.9364258 C32.0841719,53.8940918 32.1032046,53.8516113 32.1213589,53.8086914 C32.1436125,53.7563965 32.1646949,53.7038086 32.1856309,53.6510742 C32.2024675,53.6085937 32.2195969,53.5662598 32.2355551,53.5231934 C32.2561983,53.4678223 32.2753774,53.4115723 32.2944101,53.3554687 C32.3084651,53.3141602 32.3231056,53.273291 32.3364285,53.2316895 C32.3567789,53.1679687 32.3752259,53.1035156 32.393673,53.039209 C32.4036286,53.0043457 32.4147554,52.9697754 32.4241254,52.9346191 C32.4506248,52.8361816 32.4747817,52.7370117 32.4967425,52.6369629 C32.5036235,52.6053223 32.5088941,52.5733887 32.5154824,52.541748 C32.5283661,52.4778809 32.5419818,52.4143066 32.5531086,52.349707 L41.1989369,52.349707 C45.9434988,52.349707 49.8034788,56.2117676 49.8034788,60.9590332 L49.8034788,67.317041 L43.628682,67.317041 L43.628682,65.4262207 C43.628682,64.8193359 43.1371988,64.3275879 42.530641,64.3275879 C41.9240831,64.3275879 41.4326,64.8193359 41.4326,65.4262207 L41.4326,68.4156738 L41.4326,72.8027344 L18.7387282,72.8027344 C18.1321703,72.8027344 17.6406872,73.2944824 17.6406872,73.9013672 C17.6406872,74.508252 18.1321703,75 18.7387282,75 L42.530641,75 L49.0540292,75 C50.6785443,75 52,73.677832 52,72.0522949 L52,68.4156738 L52,60.9588867 C51.9998536,54.9999023 47.1547112,50.152002 41.1992297,50.152002 Z M44.8403336,40.6192383 C45.7260866,42.272168 46.3144902,44.020459 46.4547466,45.4158691 C46.5787521,46.6494141 46.3207856,47.2598145 46.1171356,47.3689453 C46.1011774,47.3775879 46.0527172,47.4035156 45.945402,47.4035156 C45.0785353,47.4035156 42.9724927,45.8668945 41.2053787,42.5690918 C40.6297124,41.4944824 40.1805405,40.3885254 39.8968067,39.3502441 C39.9212564,39.2813965 39.9446813,39.2137207 39.9673741,39.1467773 C40.0461402,38.9135742 40.1197822,38.677002 40.1859575,38.4437988 C40.2396883,38.2543945 40.2885877,38.0636719 40.3348518,37.8723633 C40.3474427,37.8202148 40.3587159,37.7674805 40.3707212,37.7151855 C40.4041016,37.570166 40.4354324,37.4248535 40.4644207,37.2788086 C40.4749619,37.2256348 40.4852102,37.172168 40.4951658,37.1188477 C40.5247397,36.9609375 40.5516783,36.8027344 40.5759816,36.6439453 C40.5816914,36.6073242 40.5878405,36.5708496 40.5931111,36.5342285 C40.6223922,36.3344238 40.6487451,36.1340332 40.6698275,35.9329102 C41.7034501,36.3861328 43.3866737,37.9066406 44.8403336,40.6192383 Z M42.4834984,30.3010254 C42.4791063,31.467627 41.7661116,32.470459 40.7531322,32.8987793 L40.7531322,27.684375 C40.7733362,27.6930176 40.793833,27.7006348 40.8137441,27.7097168 C40.8389258,27.7209961 40.8638148,27.7325684 40.8882645,27.7445801 C40.9343822,27.7669922 40.9799143,27.7910156 41.0247144,27.815918 C41.0466752,27.8280762 41.0689288,27.8399414 41.0904504,27.8526855 C41.1427172,27.8837402 41.1936663,27.9165527 41.2437369,27.9508301 C41.256035,27.9591797 41.2690651,27.9667969 41.2812167,27.9754395 C41.3434391,28.0192383 41.4036117,28.0655273 41.4620275,28.1141602 C41.474472,28.1245605 41.486038,28.1358398 41.4984825,28.1465332 C41.5432825,28.1852051 41.5870578,28.2247559 41.6295153,28.2660645 C41.6473768,28.2834961 41.6645062,28.3018066 41.6820749,28.3198242 C41.7173586,28.3564453 41.7520567,28.3936523 41.7855836,28.4320313 C41.8032986,28.4523926 41.8205745,28.4729004 41.8377039,28.4937012 C41.8697667,28.532666 41.9006583,28.5725098 41.9306714,28.6130859 C41.9458975,28.6338867 41.9615629,28.6543945 41.9762035,28.6756348 C42.0087055,28.7220703 42.0393042,28.7699707 42.0688781,28.8183105 C42.0788337,28.8345703 42.0895213,28.8503906 42.0991841,28.8667969 C42.1378351,28.9328613 42.1739973,29.0005371 42.2072313,29.0698242 C42.2111843,29.0783203 42.2145516,29.0869629 42.2183581,29.0956055 C42.2466144,29.155957 42.2729674,29.217627 42.2969779,29.2804687 C42.3056158,29.3028809 42.3130825,29.3261719 42.3212812,29.3490234 C42.3388498,29.3989746 42.35554,29.4495117 42.3704734,29.5006348 C42.3782329,29.527002 42.3851139,29.5533691 42.391995,29.5800293 C42.4050251,29.630127 42.4164447,29.6805176 42.4266931,29.7316406 C42.4319637,29.7584473 42.4375271,29.7851074 42.4420657,29.812207 C42.4514356,29.8675781 42.4587559,29.9236816 42.4649049,29.9799316 C42.4673938,30.0026367 42.4707611,30.0251953 42.4726644,30.0480469 C42.4795455,30.1280273 42.4836448,30.2085937 42.4836448,30.2901855 L42.4834984,30.3010254 Z M10.3297839,42.5689453 C8.56237717,45.8671875 6.45677379,47.4036621 5.59005344,47.4035156 C5.48259183,47.4035156 5.43413162,47.3774414 5.41802702,47.3689453 C5.21437702,47.2598145 4.9567034,46.6495605 5.08056242,45.4158691 C5.22067245,44.0206055 5.80922242,42.272168 6.69468267,40.6192383 C8.17894126,37.8496582 9.90213358,36.3225586 10.9293143,35.9046387 C10.9502503,36.1072266 10.9766033,36.309082 11.005738,36.5103516 C11.011887,36.5537109 11.0193537,36.5969238 11.0260883,36.6402832 C11.0495132,36.7933594 11.0752806,36.9461426 11.1033904,37.0983398 C11.1145172,37.1581055 11.1259369,37.2178711 11.1377957,37.2776367 C11.1657591,37.4188477 11.1960651,37.5594727 11.2281279,37.6998047 C11.241158,37.7569336 11.253456,37.8140625 11.2672181,37.8710449 C11.3134823,38.0629395 11.3623817,38.2539551 11.4162589,38.4437988 C11.4824342,38.677002 11.5560761,38.9135742 11.6348422,39.1467773 C11.6368919,39.1524902 11.6389416,39.1582031 11.6408449,39.163916 C11.6496292,39.1896973 11.6582671,39.2151855 11.6674907,39.2405273 C11.3858066,40.3116211 10.926679,41.4552246 10.3297839,42.5689453 Z M9.11798591,30.285498 C9.11813232,30.272168 9.11930356,30.2592773 9.11959637,30.2460938 C9.12062121,30.178418 9.12354932,30.1114746 9.12925913,30.0451172 C9.13160162,30.0177246 9.13540816,29.9910645 9.13848268,29.9638184 C9.1444853,29.9119629 9.15121995,29.8605469 9.15985787,29.8095703 C9.16483566,29.7802734 9.17069188,29.7512695 9.1766945,29.7221191 C9.18650367,29.6736328 9.19777689,29.6254395 9.21022135,29.577832 C9.21754163,29.549707 9.22500831,29.5214355 9.23306061,29.49375 C9.24770115,29.4440918 9.26409856,29.3953125 9.281228,29.3468262 C9.28971952,29.3228027 9.29733261,29.2986328 9.30655615,29.2749023 C9.33129867,29.2107422 9.35838368,29.1479004 9.38751837,29.086084 C9.39059289,29.0791992 9.39337459,29.0720215 9.3964491,29.0651367 C9.42939033,28.9970215 9.46540608,28.9306641 9.50332509,28.865625 C9.51533034,28.8451172 9.52865324,28.8256348 9.5410977,28.8054199 C9.56847552,28.7611816 9.59643897,28.7175293 9.62601287,28.6749023 C9.64211747,28.6517578 9.65910051,28.6290527 9.67593714,28.6064941 C9.7043398,28.5681152 9.73376729,28.5306152 9.76407323,28.4937012 C9.78237391,28.4714355 9.80111381,28.4490234 9.82014652,28.4273437 C9.85206291,28.3910156 9.88515054,28.3557129 9.91897021,28.3208496 C9.93785651,28.3013672 9.9563036,28.2815918 9.97577553,28.2626953 C10.0161834,28.223291 10.0582018,28.1856445 10.1009522,28.1487305 C10.1151535,28.1365723 10.1286228,28.1235352 10.1428242,28.1115234 C10.2003615,28.063916 10.2596557,28.0185059 10.3208532,27.975293 C10.3371042,27.9638672 10.3545265,27.9536133 10.3710703,27.9421875 C10.4168952,27.9114258 10.4631593,27.88125 10.5107411,27.853125 C10.5347516,27.838916 10.5593477,27.8257324 10.5837974,27.8124023 C10.6259622,27.7891113 10.6685662,27.7665527 10.7120486,27.7453125 C10.7386944,27.7324219 10.7653402,27.7198242 10.7924252,27.7078125 C10.8110187,27.6993164 10.8301978,27.6921387 10.8490841,27.6842285 L10.8490841,32.8989258 C9.84430342,32.4742676 9.13511535,31.4838867 9.11915716,30.3292969 C9.11915716,30.3158203 9.11871794,30.3019043 9.11798591,30.285498 Z M11.8689446,25.1126953 C11.6688083,25.1270508 11.4849231,25.1953125 11.3295869,25.3013672 C11.2777593,25.3078125 11.2260782,25.3135254 11.1748363,25.321582 C11.1670768,25.3227539 11.1596101,25.3245117 11.1518506,25.3255371 C11.0457067,25.3425293 10.9411732,25.363623 10.8373717,25.3870605 C10.8117507,25.3929199 10.7861298,25.3986328 10.7606552,25.4047852 C10.6520224,25.4312988 10.5445608,25.4604492 10.4387096,25.4937012 C10.4268508,25.4973633 10.4151383,25.5019043 10.4032795,25.5057129 C10.3066519,25.5370605 10.2114883,25.5714844 10.117496,25.6083984 C10.0946568,25.617627 10.0715247,25.6262695 10.0488319,25.6356445 C9.94708006,25.6773926 9.84679231,25.7217773 9.74855425,25.7698242 C9.7339137,25.777002 9.71971237,25.7847656 9.70521823,25.7919434 C9.61781417,25.8357422 9.53202056,25.8820313 9.44769102,25.9306641 C9.42748706,25.9422363 9.40728311,25.9536621 9.38722556,25.9655273 C9.29381887,26.0210449 9.20231546,26.0791992 9.11300813,26.1404297 C9.10817675,26.1437988 9.10290615,26.1467285 9.09792836,26.1499512 L9.09792836,21.9975586 C9.09792836,21.9594727 9.09587869,21.9218262 9.09221855,21.8847656 L9.09221855,18.9290039 C9.09236496,9.70341797 16.5941809,2.19741211 25.8150899,2.19741211 C35.0359989,2.19741211 42.5379612,9.70341797 42.5379612,18.9295898 L42.5379612,21.7333008 C42.5168789,21.8182617 42.5044344,21.9067383 42.5044344,21.9981445 L42.5044344,26.1505371 C42.4991638,26.1470215 42.4936004,26.1437988 42.4883298,26.1402832 C42.3997545,26.0796387 42.3091295,26.0219238 42.2167477,25.9669922 C42.1953725,25.9541016 42.173558,25.9420898 42.1520364,25.9294922 C42.069903,25.8823242 41.9867447,25.8373535 41.9019759,25.7947266 C41.8852857,25.786377 41.8688883,25.7774414 41.8521981,25.7692383 C41.7551312,25.7217773 41.6561611,25.6779785 41.5558734,25.6368164 C41.5314237,25.6268555 41.5068276,25.617334 41.4822314,25.607666 C41.390728,25.5719238 41.2981998,25.5383789 41.2043539,25.5077637 C41.1902989,25.5032227 41.1766832,25.4980957 41.1624819,25.4935547 C41.0576556,25.4604492 40.9512188,25.4315918 40.8436108,25.4053711 C40.816965,25.3989258 40.7903192,25.3929199 40.763527,25.3869141 C40.6611896,25.3637695 40.5579737,25.3429688 40.4532938,25.3262695 C40.4446559,25.3248047 40.436018,25.3230469 40.4273801,25.321582 C40.3761382,25.3136719 40.3246034,25.307959 40.2730687,25.3015137 C40.1175861,25.195459 39.9339937,25.1271973 39.733711,25.1128418 C39.6506991,25.1068359 31.3883067,24.4456055 27.6369595,18.1056152 C27.6330065,18.098877 27.6287608,18.0922852 27.6248078,18.0855469 C27.3192596,17.5631836 26.6734651,16.9795898 25.8013278,16.9795898 C24.9309473,16.9795898 24.2819319,17.5671387 23.9727235,18.0938965 C23.9683314,18.1012207 23.9637928,18.1086914 23.9592542,18.1160156 C20.2196195,24.4211426 11.950346,25.106543 11.8689446,25.1126953 Z M8.37131804,69.5141602 L8.37131804,72.8024414 L2.94597075,72.8024414 C2.53252172,72.8024414 2.19622837,72.4658203 2.19622837,72.0521484 L2.19622837,69.5141602 L8.37131804,69.5141602 Z M30.4551183,51.2071289 C30.4546791,51.2192871 30.4543863,51.2315918 30.4542398,51.2438965 C30.4390137,53.686377 28.4408719,55.673291 26,55.673291 C23.5591281,55.673291 21.5608399,53.6862305 21.5456137,51.2438965 C21.5454673,51.2315918 21.5451745,51.2192871 21.5447353,51.2069824 L21.5447353,48.6943359 C21.5871929,48.7069336 21.6300897,48.717627 21.6726937,48.7299316 C21.7769344,48.759668 21.8811751,48.7891113 21.9860014,48.8167969 C22.0685741,48.8384766 22.1512932,48.8586914 22.2340122,48.8790527 C22.3246372,48.9011719 22.4151158,48.923584 22.50618,48.9439453 C22.6045645,48.9660645 22.7033882,48.9862793 22.8020654,49.0063477 C22.8800996,49.022168 22.9581337,49.0387207 23.0364606,49.0533691 C23.1484608,49.0744629 23.2609002,49.0927734 23.373486,49.1112305 C23.4411253,49.1222168 23.5086182,49.1342285 23.5765503,49.1443359 C23.6990917,49.1626465 23.8222187,49.1780273 23.9453457,49.1932617 C24.0052255,49.2007324 24.064959,49.2092285 24.1249852,49.2158203 C24.2551397,49.2304688 24.3858798,49.2418945 24.5167662,49.2528809 C24.5712291,49.2575684 24.6255455,49.2634277 24.6803011,49.2676758 C24.8188007,49.2777832 24.9578859,49.284668 25.0972639,49.2911133 C25.1448457,49.293457 25.1921346,49.2969727 25.2400092,49.298877 C25.4263834,49.3056152 25.6133432,49.3092773 25.8007422,49.3092773 L25.8008886,49.3092773 L25.801035,49.3092773 C25.8019134,49.3092773 25.8027918,49.3091309 25.8036703,49.3091309 C26.0146405,49.3091309 26.224586,49.3042969 26.4339458,49.2956543 C26.449904,49.2949219 26.4660086,49.293457 26.4821132,49.2927246 C27.8438304,49.2322266 29.173192,48.9912598 30.4546791,48.5704102 L30.4546791,51.2071289 L30.4551183,51.2071289 Z M49.8037716,72.0522949 L49.8036252,72.0522949 C49.8036252,72.4659668 49.4673319,72.8025879 49.0538828,72.8025879 L43.628682,72.8025879 L43.628682,69.5143066 L49.8037716,69.5143066 L49.8037716,72.0522949 Z" id="Shape"></path>
            </g>
        </g>
    </g>
</svg>