<?xml version="1.0" encoding="UTF-8"?>
<svg width="62px" height="76px" viewBox="0 0 62 76" version="1.1" xmlns="http://www.w3.org/2000/svg" xmlns:xlink="http://www.w3.org/1999/xlink">
    <!-- Generator: Sketch 47.1 (45422) - http://www.bohemiancoding.com/sketch -->
    <title>services6</title>
    <desc>Created with Sketch.</desc>
    <defs></defs>
    <g id="Symbols" stroke="none" stroke-width="1" fill="none" fill-rule="evenodd">
        <g id="services6" fill-rule="nonzero" fill="#FFFFFF">
            <g id="molar">
                <path d="M56.8885282,20.4665095 C51.7370787,20.4665095 47.546089,16.2703501 47.546089,11.1126945 C47.546089,10.4979601 47.0485942,10 46.4347654,10 C45.8207883,10 45.3234418,10.4981085 45.3234418,11.1126945 C45.3234418,13.2290248 44.6168421,15.1827317 43.428901,16.7516917 C38.4486182,14.220642 32.1736929,14.5027105 26.5674291,17.9630583 C15.9296066,11.3977306 3.03253235,16.3525521 0.390786166,29.8351625 C-1.242781,38.2948455 2.31022388,48.2372802 9.82940474,53.8244932 C8.53520697,65.6808693 13.7789827,77.6961593 17.9579685,75.8013589 L17.9579685,75.8015072 C21.0647545,74.4054088 19.2540929,68.2387756 20.951829,63.4102247 C23.0261318,57.7141015 31.9595494,56.8849594 32.9677284,67.1683692 C33.2082509,69.769899 32.8845903,72.0540461 33.7140447,74.100935 C33.9895415,74.811819 34.5178611,75.5439212 35.2318706,75.824506 C39.4754699,77.6086157 44.5768291,65.4726935 43.3056018,53.8243448 C46.3365113,51.572396 48.8318396,48.5355221 50.5698851,44.9552841 C50.8381203,44.4025721 50.6082679,43.7367954 50.0560887,43.4682293 C49.5037613,43.1990697 48.838953,43.4296507 48.570866,43.9826594 C47.6029963,45.9761319 46.6146756,47.2689586 46.5173107,47.4223825 C42.5471334,52.6343449 40.8399127,52.0400868 41.0221941,53.447462 C42.4309475,64.3358132 37.9195576,73.5109799 36.0847399,73.7679724 C35.8949005,73.6353216 35.741962,73.1806882 35.678534,72.999369 C35.5057372,72.3991757 35.3487974,71.6534226 35.3142677,70.2151845 C35.3035975,69.7998716 35.3934045,65.5278905 34.2699288,62.6441437 C31.6536723,55.1520405 21.3117977,55.1208809 18.7515594,62.9779966 C17.3370263,67.1263779 18.2339099,71.6375461 17.2568521,73.4910971 C17.204687,73.5888789 17.1360722,73.6983826 17.0511557,73.7681208 C15.2401977,73.5143926 10.6965009,64.391307 12.1129606,53.4473137 C12.1663113,53.0348199 11.9855118,52.6269259 11.6440677,52.3899646 C5.92176626,48.4185994 2.15032013,41.2053005 2.23271724,33.7896125 C2.44745359,19.947628 14.98367,12.9244026 25.9531557,20.211446 C26.3257211,20.4586455 26.80973,20.4587938 27.1821472,20.2112976 C32.0508382,16.9766344 37.4176169,16.5314972 41.781848,18.4372777 C40.1001171,19.7755083 38.0498221,20.4668063 35.9814471,20.4668063 C35.3674701,20.4668063 34.8701235,20.9649148 34.8701235,21.5795008 C34.8701235,22.1940868 35.3676183,22.6921952 35.9814471,22.6921952 C41.1327485,22.6921952 45.3237382,26.8883547 45.3237382,32.0461587 C45.3237382,32.6608931 45.8212329,33.1588532 46.4350618,33.1588532 C47.0488906,33.1588532 47.5463854,32.6607447 47.5463854,32.0461587 C47.5463854,30.025978 48.1968187,28.0599556 49.4231426,26.429715 C51.3138302,30.9107622 51.3089397,36.0482383 49.8898125,40.6399763 C49.7082721,41.2271122 50.036675,41.8501558 50.6230875,42.0319201 C51.2093519,42.2139812 51.8317761,41.8848765 52.0133165,41.2977406 C53.7412846,35.7062246 53.3458971,29.9764194 51.6176325,25.9235941 L51.6247459,25.9400642 C51.512265,25.6348485 51.2352862,25.0230817 51.0909431,24.7193498 C52.6852382,23.451896 54.6995215,22.6920469 56.8886764,22.6920469 C57.5026534,22.6920469 58,22.1939384 58,21.5793524 C58,20.9647664 57.5025052,20.4665095 56.8885282,20.4665095 Z M46.4303195,27.0851053 C45.2954327,24.6999121 43.3874061,22.7678685 40.9261629,21.5793524 C43.20305,20.4966305 45.2297817,18.6045009 46.4347654,16.0639549 C47.5794331,18.4768949 49.5334006,20.4332726 51.9433678,21.5793524 C49.5403658,22.7220194 47.5610568,24.7030281 46.4303195,27.0851053 Z" id="Shape"></path>
                <path d="M60.8981283,6.39809216 C58.5292289,6.39809216 56.6020187,4.47080032 56.6020187,2.10183438 C56.6020187,1.4930999 56.1087551,1 55.5001469,1 C54.8915388,1 54.3982752,1.4930999 54.3982752,2.10183438 C54.3982752,4.47080032 52.470918,6.39809216 50.1018717,6.39809216 C49.4931166,6.39809216 49,6.89133899 49,7.49992653 C49,8.10851408 49.4932636,8.60176091 50.1018717,8.60176091 C52.470918,8.60176091 54.3982752,10.5290527 54.3982752,12.8981656 C54.3982752,13.5069001 54.8915388,14 55.5001469,14 C56.1087551,14 56.6020187,13.5067532 56.6020187,12.8981656 C56.6020187,10.5290527 58.5292289,8.60176091 60.8981283,8.60176091 C61.5068834,8.60176091 62,8.10851408 62,7.49992653 C62,6.89133899 61.5067364,6.39809216 60.8981283,6.39809216 Z M55.5,9.28072832 C55.0276013,8.57825198 54.421638,7.97230919 53.7191378,7.49992653 C54.421638,7.02754388 55.0276013,6.42160109 55.5,5.71912474 C55.9723987,6.42160109 56.5782151,7.02754388 57.2807152,7.49992653 C56.5782151,7.97230919 55.9723987,8.57825198 55.5,9.28072832 Z" id="Shape"></path>
                <path d="M33.1471304,6.64717498 C34.9148646,6.64717498 36.3527931,8.08521645 36.3527931,9.8529015 C36.3527931,10.4866432 36.8664701,11 37.4999235,11 C38.1336829,11 38.6470539,10.4864902 38.6470539,9.8529015 C38.6470539,8.08521645 40.0851354,6.64717498 41.8528696,6.64717498 C42.4866289,6.64717498 43,6.13366523 43,5.50007648 C43,4.86648774 42.486476,4.35297799 41.8528696,4.35297799 C40.0851354,4.35297799 38.6470539,2.91493652 38.6470539,1.1470985 C38.6470539,0.513356788 38.1335299,0 37.4999235,0 C36.8663172,0 36.3527931,0.513509755 36.3527931,1.1470985 C36.3527931,2.91493652 34.9148646,4.35297799 33.1471304,4.35297799 C32.5135241,4.35297799 32,4.86664071 32,5.50007648 C31.9998471,6.13366523 32.5135241,6.64717498 33.1471304,6.64717498 Z M37.5000765,4.50548595 C37.7879681,4.87765432 38.122516,5.21219285 38.4946947,5.50007648 C38.122516,5.78780715 37.7879681,6.12249864 37.5000765,6.49451405 C37.2123378,6.12234568 36.877637,5.78765418 36.5054583,5.50007648 C36.877637,5.21203988 37.2124908,4.87765432 37.5000765,4.50548595 Z" id="Shape"></path>
            </g>
        </g>
    </g>
</svg>