<?xml version="1.0" encoding="UTF-8"?>
<svg width="75px" height="75px" viewBox="0 0 75 75" version="1.1" xmlns="http://www.w3.org/2000/svg" xmlns:xlink="http://www.w3.org/1999/xlink">
    <!-- Generator: Sketch 47.1 (45422) - http://www.bohemiancoding.com/sketch -->
    <title>services2</title>
    <desc>Created with Sketch.</desc>
    <defs></defs>
    <g id="Symbols" stroke="none" stroke-width="1" fill="none" fill-rule="evenodd">
        <g id="services2" fill-rule="nonzero" fill="#FFFFFF">
            <g id="therapy">
                <path d="M73.3485451,21.0985394 L73.3516119,21.1054482 C72.4633893,18.8030713 70.9613554,16.3647244 69.0261633,14.4379188 C68.6188544,13.9972289 67.9337751,13.967095 67.4895177,14.3729471 C67.0419014,14.7817392 67.0081659,15.4784938 67.4143065,15.9293263 C67.5467659,16.0761739 68.0901852,16.5816884 68.7694229,17.4507207 C75.9298235,26.5513052 73.1524117,42.3563147 62.6222562,49.7050172 C62.2859233,49.9396206 62.1078991,50.3434149 62.1604739,50.75206 C63.7254515,62.9136606 58.5364613,72.7950806 56.7486248,72.7969915 C56.6027296,72.7969915 56.3201399,72.2822163 56.147081,71.6003082 C55.4988041,69.0790563 56.2928302,64.9620308 54.7221569,60.7278505 C51.9627082,52.7716192 41.1201706,52.7503049 38.3591155,60.7454898 C36.8274353,65.1413642 37.5647973,69.115952 36.9403251,71.6028071 C36.6381659,72.7628887 36.3387814,72.7969915 36.3387814,72.7969915 C34.5912522,72.7950806 29.3502713,63.0050913 30.9273703,50.75206 C30.9799452,50.3437089 30.8019209,49.9396206 30.465442,49.7050172 C22.6875792,44.2769465 18.7062037,33.7505141 20.9266143,24.5887799 C21.2851454,23.1176576 21.6439687,22.2406877 21.9862893,21.3975265 C22.2069576,20.8945109 22.251208,20.6284506 22.8634128,20.6018446 C22.9348269,20.6047845 23.0050728,20.6011096 23.0734201,20.590526 C26.0729605,20.4273619 28.8865905,18.7635297 30.4651499,16.074998 C34.6249878,18.0022445 38.431698,15.527149 39.2917347,12.2857704 C39.3168537,12.1974266 39.3381758,12.0807129 39.3863694,12.0166232 C39.5322645,12.0026587 42.6178232,12.5910782 45.9383623,14.8101092 C46.3050717,15.0554432 46.7821884,15.0552962 47.1491899,14.8102562 C53.0653194,10.8575706 59.6866819,10.7476186 64.6100232,13.7608615 C65.782296,14.4752554 67.1542071,12.6902996 65.5353403,11.7515919 C59.992054,8.50448056 52.8824758,8.62560414 46.5438491,12.5829935 C44.1826548,11.1092254 41.5341975,10.1386199 39.8478596,9.8499224 C38.4592998,9.61796488 37.4675339,10.5384452 37.2318234,11.5087568 C36.6288192,13.966213 33.9076333,15.3394368 31.5359241,14.1505443 C30.2929673,13.5105297 29.1163133,13.9875272 28.6748307,14.787913 C28.6278054,14.8730229 28.5791737,14.9568098 28.5287895,15.0397148 L28.5289355,15.0397148 C28.5046927,15.0795503 28.4829326,15.1211498 28.4639472,15.1637782 C28.3368913,15.3109199 26.6213452,18.2536054 22.839462,18.3951612 C21.6758057,18.4458743 20.6584826,18.9766719 20.2034182,20.0165119 C19.5869782,21.3506352 19.125634,22.7143044 18.7895932,24.1084014 C16.4670998,33.6570256 20.3428875,44.9592956 28.6774594,51.1268963 C27.3798833,62.8508939 32.0961382,74.9960311 36.3370289,75 C39.9197119,75 39.3075071,68.3095395 39.5648317,65.6618722 C39.8909417,62.164576 41.0440832,58.3061139 44.3954369,57.3240428 L44.3954369,57.3237488 C48.4816699,56.1477918 51.5797882,58.1601483 52.7790786,61.8226665 L52.7789326,61.8228135 C54.205171,66.3121764 53.1414069,69.4008276 54.1464625,72.5704728 C54.8138708,74.6838146 56.0623771,75 56.7484787,75 C60.9598691,75 65.7170155,62.9364448 64.4102388,51.1268963 C73.8604195,44.1345087 77.3914039,30.6017422 73.3485451,21.0985394 Z" id="Shape"></path>
                <path d="M21.875,4.79498418 C21.875,4.1820681 21.3839034,3.68548914 20.778081,3.68548914 L16.5920533,3.68548914 L16.5920533,3.32078853 C16.5920533,1.48958886 15.1193488,0 13.3091984,0 L8.05464041,0 C6.24448997,0 4.77178552,1.48958886 4.77178552,3.32078853 L4.77178552,3.68548914 L2.93441697,3.68548914 C1.46185885,3.68548914 0.00773881206,4.8066771 0.00773881206,7.03543595 C0.00773881206,13.3651525 -0.057233443,13.1204893 0.189339192,13.498363 L4.95865392,20.8008119 L3.75388685,20.8008119 C2.07587593,20.8008119 0.710580572,22.1816122 0.710580572,23.8790094 C0.710580572,24.0165122 0.710580572,48.7252747 0.710580572,49.1435555 C0.710580572,50.4493139 1.52009975,51.5648774 2.65696788,52.0114285 L2.65696788,71.9218025 C2.65696788,73.6190517 4.02211691,75 5.70027416,75 L8.29521335,75 C9.97322427,75 11.3385196,73.6191997 11.3385196,71.9218025 L11.3385196,60.3912539 C11.3385196,59.7783378 10.847423,59.2817589 10.241747,59.2817589 C9.63592461,59.2817589 9.14482802,59.7783378 9.14482802,60.3912539 L9.14482802,71.9218025 C9.14482802,72.3955877 8.76377452,72.7811579 8.29521335,72.7811579 L5.70027416,72.7811579 C5.23185932,72.7811579 4.85065949,72.3958837 4.85065949,71.9218025 L4.85065949,52.2214569 L9.14468169,52.2214569 L9.14468169,56.8407513 C9.14468169,57.4536674 9.63577828,57.9502464 10.2416007,57.9502464 C10.847423,57.9502464 11.3385196,57.4536674 11.3385196,56.8407513 L11.3385196,52.0111324 C12.4753878,51.5645814 13.2849069,50.4488699 13.2849069,49.1432595 L13.2849069,33.4691258 C13.2849069,32.8562097 12.7938103,32.3596307 12.187988,32.3596307 C11.5821656,32.3596307 11.091069,32.8562097 11.091069,33.4691258 L11.091069,45.135697 L2.90441852,45.135697 L2.90441852,27.8862758 L11.0912153,27.8862758 L11.0912153,29.7216198 C11.0912153,30.3345358 11.5823119,30.8311148 12.187988,30.8311148 C12.793664,30.8311148 13.2849069,30.3345358 13.2849069,29.7216198 L13.2849069,23.8788614 C13.2849069,22.1816122 11.9197579,20.8006639 10.2416007,20.8006639 L7.58783524,20.8006639 L2.20143042,12.5534569 L2.20143042,7.03543595 C2.20143042,6.09008579 2.58292292,5.92801307 2.96383008,5.90447923 L4.77193185,5.90447923 L4.77193185,6.26917984 C4.77193185,8.10023149 6.2446363,9.58967234 8.05478674,9.58967234 L13.309491,9.58967234 C15.1196415,9.58967234 16.5923459,8.10023149 16.5923459,6.26917984 L16.5923459,5.90447923 L20.7783737,5.90447923 C21.3839034,5.90447923 21.875,5.40790027 21.875,4.79498418 Z M11.091069,47.3545391 L11.091069,49.1435555 C11.091069,49.6173406 10.7101618,50.0029109 10.2414543,50.0029109 L3.75388685,50.0029109 C3.28547201,50.0029109 2.90427218,49.6176367 2.90427218,49.1435555 L2.90427218,47.3545391 L11.091069,47.3545391 Z M7.29238708,23.019654 C7.72685245,23.019654 8.59827087,23.019654 10.241747,23.019654 C10.7101618,23.019654 11.0912153,23.4049282 11.0912153,23.8790094 L11.0912153,25.6677297 L2.90441852,25.6677297 L2.90441852,23.8790094 C2.90441852,23.4052242 3.28547201,23.019654 3.75403319,23.019654 C5.53023416,23.019654 6.45638146,23.019654 6.90869957,23.019654 C7.18790467,23.019654 7.28726539,23.019654 7.29238708,23.019654 Z M14.3983616,6.26903183 C14.3983616,6.87647148 13.9097527,7.37068225 13.3091984,7.37068225 L8.05464041,7.37068225 C7.45408605,7.37068225 6.96547713,6.87647148 6.96547713,6.26903183 L6.96547713,3.32093654 C6.96547713,2.71334887 7.45408605,2.21899009 8.05464041,2.21899009 L13.3093447,2.21899009 C13.9098991,2.21899009 14.398508,2.71334887 14.398508,3.32093654 L14.398508,6.26903183 L14.3983616,6.26903183 Z" id="Shape"></path>
            </g>
        </g>
    </g>
</svg>