<?xml version="1.0" encoding="UTF-8"?>
<svg width="99px" height="50px" viewBox="0 0 99 50" version="1.1" xmlns="http://www.w3.org/2000/svg" xmlns:xlink="http://www.w3.org/1999/xlink">
    <!-- Generator: Sketch 47.1 (45422) - http://www.bohemiancoding.com/sketch -->
    <title>services4</title>
    <desc>Created with Sketch.</desc>
    <defs></defs>
    <g id="Symbols" stroke="none" stroke-width="1" fill="none" fill-rule="evenodd">
        <g id="services4" fill-rule="nonzero" fill="#FFFFFF">
            <g id="prothesis">
                <path d="M86.2332539,0 L78.4132207,0 C77.6121328,0 76.9630254,0.647377129 76.9630254,1.4463296 C76.9630254,2.24528207 77.6121328,2.8926592 78.4132207,2.8926592 L86.2332539,2.8926592 C91.6736133,2.8926592 96.099416,7.30685715 96.099416,12.7323287 L96.099416,21.2926715 C96.099416,24.248005 94.8029414,26.9657548 92.6071523,28.807993 C90.9214453,11.5449886 69.9800449,7.77797491 63.4400508,23.3829071 C58.0143867,10.3339286 41.1801328,10.0587403 35.5957207,23.4700725 C29.0083535,7.55524015 8.09150977,11.7339756 6.3926543,28.807993 C4.19686523,26.9661405 2.90039062,24.2485836 2.90039062,21.2930572 L2.90039062,12.7327144 C2.90039062,7.30685715 7.32638672,2.89304489 12.766166,2.89304489 L73.4498789,2.89304489 C74.2509668,2.89304489 74.9000742,2.24566776 74.9000742,1.44671529 C74.9000742,0.647762817 74.2509668,0.000385687894 73.4498789,0.000385687894 L12.7663594,0.000385687894 C5.72691797,0 0,5.7120377 0,12.7327144 L0,21.2930572 C0,25.8609518 2.39204883,29.9885836 6.30119531,32.2722417 L6.30119531,34.9307883 L6.30119531,37.8234475 L6.30119531,41.3468993 C6.30119531,46.1182442 10.3783711,50 15.389666,50 L22.1439023,50 C22.9449902,50 23.5940977,49.3526229 23.5940977,48.5536704 C23.5940977,47.7547179 22.9449902,47.1073408 22.1439023,47.1073408 L15.389666,47.1073408 C11.9776465,47.1073408 9.20158594,44.5234248 9.20158594,41.3468993 L9.20158594,37.8234475 L34.1091738,37.8234475 L34.1091738,41.3468993 C34.1091738,44.5232319 31.3333066,47.1073408 27.9210937,47.1073408 L27.1710527,47.1073408 C26.3699648,47.1073408 25.7208574,47.7547179 25.7208574,48.5536704 C25.7208574,49.3526229 26.3699648,50 27.1710527,50 L27.9210937,50 C31.1463281,50 33.9821367,48.391103 35.5955273,45.9732255 C37.2091113,48.3909101 40.0451133,50 43.2697676,50 L55.8017754,50 C59.0026465,50 61.8202793,48.4148228 63.4398574,46.027029 C65.0594355,48.4146299 67.8772617,50 71.0781328,50 L83.6101406,50 C88.6214355,50 92.698418,46.1180514 92.698418,41.3468993 L92.698418,37.8234475 L92.698418,34.9307883 L92.698418,32.2722417 C96.6079512,29.9887765 99,25.8609518 99,21.2930572 L99,12.7327144 C99,5.7120377 93.2728887,0 86.2332539,0 Z M34.1093672,37.837329 L9.20158594,37.837329 C9.20158594,35.3292007 9.20158594,33.2069563 9.20158594,30.6947782 C9.20158594,22.7837409 14.7885117,16.3473814 21.6554766,16.3473814 C28.5224414,16.3473814 34.1093672,22.7837409 34.1093672,30.6947782 C34.1093672,32.3250809 34.1093672,36.255623 34.1093672,37.837329 Z M55.8021621,47.1073408 L43.2701543,47.1073408 C39.8581348,47.1073408 37.0822676,44.5234248 37.0822676,41.3468993 L37.0822676,37.8234475 L61.9896621,37.8234475 L61.9896621,41.3468993 C61.9900488,44.5232319 59.2141816,47.1073408 55.8021621,47.1073408 Z M61.9900488,37.8294726 L37.0824609,37.8294726 C37.0824609,36.2489236 37.0824609,32.3243095 37.0824609,30.6947782 C37.0824609,22.7837409 42.6691934,16.3473814 49.5361582,16.3473814 C56.403123,16.3473814 61.9900488,22.7837409 61.9900488,30.6947782 L61.9900488,37.8294726 Z M83.610334,47.1073408 L71.0783262,47.1073408 C67.6663066,47.1073408 64.8902461,44.5234248 64.8902461,41.3468993 L64.8902461,38.0096571 C64.9657852,38.0096571 73.2683789,38.0096571 89.7980273,38.0096571 L89.7980273,41.3468993 C89.7982207,44.5232319 87.0225469,47.1073408 83.610334,47.1073408 Z M64.8906328,38.0172235 L64.8906328,30.6947782 C64.8906328,22.7837409 70.4773652,16.3473814 77.3443301,16.3473814 C83.5832637,16.3473814 89.7984141,21.8133502 89.7984141,31.4098435 L89.7984141,38.0172235 C73.339321,38.0172235 65.0367272,38.0172235 64.8906328,38.0172235 Z" id="Shape"></path>
            </g>
        </g>
    </g>
</svg>