<?xml version="1.0" encoding="UTF-8"?>
<svg width="266px" height="326px" viewBox="0 0 266 326" version="1.1" xmlns="http://www.w3.org/2000/svg" xmlns:xlink="http://www.w3.org/1999/xlink">
    <!-- Generator: Sketch 47.1 (45422) - http://www.bohemiancoding.com/sketch -->
    <title>molar</title>
    <desc>Created with Sketch.</desc>
    <defs></defs>
    <g id="Symbols" stroke="none" stroke-width="1" fill="none" fill-rule="evenodd">
        <g id="о_центре_bg" fill-rule="nonzero" fill="#F7F7F7">
            <g id="molar">
                <path d="M244.228337,87.8791242 C222.112631,87.8791242 204.120279,69.8865012 204.120279,47.771099 C204.120279,45.1351925 201.984482,43 199.349251,43 C196.713384,43 194.578224,45.1358287 194.578224,47.771099 C194.578224,56.845667 191.544719,65.2229253 186.444765,71.9504358 C165.063895,61.0976012 138.124992,62.307077 114.056722,77.1446287 C68.387449,48.9932995 13.0189751,70.2389734 1.67768544,128.050773 C-5.33538738,164.324868 9.91803009,206.956823 42.1986514,230.914115 C36.6425265,281.752818 59.1545984,333.272925 77.0954167,325.148251 L77.0954167,325.148887 C90.4331703,319.162586 82.6598125,292.720811 89.9483693,272.01657 C98.8535657,247.592284 137.205652,244.037023 141.533868,288.131038 C142.566456,299.286082 141.176948,309.080228 144.737881,317.857039 C145.920618,320.905224 148.188748,324.044389 151.254065,325.247503 C169.472276,332.897549 191.372939,280.860186 185.915428,230.913479 C198.927436,221.257395 209.640139,208.235648 217.101748,192.884021 C218.253309,190.514059 217.266529,187.659289 214.895967,186.50771 C212.524768,185.353587 209.670677,186.34229 208.519752,188.713525 C204.364588,197.261293 200.121625,202.804777 199.703627,203.46264 C182.659245,225.810903 175.32997,223.262796 176.112523,229.297451 C182.160447,275.985381 162.792583,315.327384 154.915521,316.429336 C154.100521,315.860545 153.44394,313.911133 153.171637,313.133658 C152.429803,310.560102 151.756044,307.362403 151.607804,301.195412 C151.561996,299.414601 151.947547,281.096864 147.124349,268.731707 C135.89249,236.606477 91.493752,236.472868 80.5023844,270.163228 C74.4296474,287.950984 78.2800616,307.294326 74.0854514,315.242129 C73.8615013,315.661405 73.5669306,316.130944 73.2023755,316.429973 C65.4277452,315.342017 45.9211851,276.223331 52.002193,229.296815 C52.2312328,227.528091 51.4550422,225.779091 49.9891872,224.76303 C25.4227552,207.734297 9.23154677,176.804546 9.58528609,145.006975 C10.5071715,85.6542232 64.3264453,55.539484 111.419582,86.7854425 C113.019044,87.845404 115.096944,87.8460402 116.69577,86.7848063 C137.597564,72.9149625 160.6377,71.0062684 179.373796,79.1780241 C172.153951,84.9161948 163.351822,87.8803967 154.472075,87.8803967 C151.836208,87.8803967 149.701048,90.0162254 149.701048,92.6514957 C149.701048,95.286766 151.836844,97.4225947 154.472075,97.4225947 C176.587144,97.4225947 194.579497,115.415218 194.579497,137.531256 C194.579497,140.167163 196.715293,142.302355 199.350524,142.302355 C201.985754,142.302355 204.121551,140.166527 204.121551,137.531256 C204.121551,128.868966 206.913928,120.438901 212.178664,113.448627 C220.295581,132.662814 220.274586,154.691689 214.182126,174.380504 C213.402755,176.898072 214.812622,179.569607 217.330152,180.348991 C219.847045,181.129647 222.519177,179.718486 223.298548,177.200918 C230.716894,153.225175 229.019455,128.656465 221.599836,111.278441 L221.630375,111.349063 C221.147482,110.040335 219.958384,107.417153 219.338704,106.114788 C226.183178,100.680099 234.830704,97.4219585 244.228973,97.4219585 C246.86484,97.4219585 249,95.2861298 249,92.6508595 C249,90.0155892 246.864203,87.8791242 244.228337,87.8791242 Z M199.330165,116.258861 C194.457978,106.031441 186.266623,97.7470727 175.700251,92.6508595 C185.475163,88.0082792 194.176132,79.8950568 199.349251,69.0015034 C204.263428,79.3478979 212.652013,87.7366084 222.998252,92.6508595 C212.681915,97.5504772 204.184537,106.044802 199.330165,116.258861 Z" id="Shape"></path>
                <path d="M261.253476,28.2533201 C251.048986,28.2533201 242.747157,19.9511398 242.747157,9.74636346 C242.747157,7.12412265 240.62233,5 238.000633,5 C235.378936,5 233.254109,7.12412265 233.254109,9.74636346 C233.254109,19.9511398 224.951647,28.2533201 214.746524,28.2533201 C212.124195,28.2533201 210,30.3780757 210,32.9996835 C210,35.6212914 212.124828,37.746047 214.746524,37.746047 C224.951647,37.746047 233.254109,46.0482272 233.254109,56.2536365 C233.254109,58.8758773 235.378936,61 238.000633,61 C240.62233,61 242.747157,58.8752444 242.747157,56.2536365 C242.747157,46.0482272 251.048986,37.746047 261.253476,37.746047 C263.875805,37.746047 266,35.6212914 266,32.9996835 C266,30.3780757 263.875172,28.2533201 261.253476,28.2533201 Z M238,40.6708297 C235.965052,37.6447777 233.354748,35.0345627 230.328594,32.9996835 C233.354748,30.9648044 235.965052,28.3545893 238,25.3285374 C240.034948,28.3545893 242.644619,30.9648044 245.670773,32.9996835 C242.644619,35.0345627 240.034948,37.6447777 238,40.6708297 Z" id="Shape"></path>
                <path d="M138.797091,27.7972772 C146.189434,27.7972772 152.202589,33.8109051 152.202589,41.2030426 C152.202589,43.8532352 154.350693,46 156.99968,46 C159.649947,46 161.796771,43.8525956 161.796771,41.2030426 C161.796771,33.8109051 167.810566,27.7972772 175.202909,27.7972772 C177.853176,27.7972772 180,25.6498728 180,23.0003198 C180,20.3507669 177.852536,18.2033625 175.202909,18.2033625 C167.810566,18.2033625 161.796771,12.1897345 161.796771,4.79695735 C161.796771,2.14676475 159.649307,0 156.99968,0 C154.350054,0 152.202589,2.14740443 152.202589,4.79695735 C152.202589,12.1897345 146.189434,18.2033625 138.797091,18.2033625 C136.147464,18.2033625 134,20.3514066 134,23.0003198 C133.99936,25.6498728 136.147464,27.7972772 138.797091,27.7972772 Z M157.00032,18.8411231 C158.20423,20.3974635 159.603249,21.7964428 161.159632,23.0003198 C159.603249,24.2035572 158.20423,25.6031761 157.00032,27.1588769 C155.797049,25.6025365 154.397391,24.2029175 152.841007,23.0003198 C154.397391,21.7958031 155.797689,20.3974635 157.00032,18.8411231 Z" id="Shape"></path>
            </g>
        </g>
    </g>
</svg>