<?xml version="1.0" encoding="UTF-8"?>
<svg width="311px" height="241px" viewBox="0 0 311 241" version="1.1" xmlns="http://www.w3.org/2000/svg" xmlns:xlink="http://www.w3.org/1999/xlink">
    <!-- Generator: Sketch 47.1 (45422) - http://www.bohemiancoding.com/sketch -->
    <title>tooth</title>
    <desc>Created with Sketch.</desc>
    <defs></defs>
    <g id="Symbols" stroke="none" stroke-width="1" fill="none" fill-rule="evenodd">
        <g id="записаться_bg" fill-rule="nonzero" fill="#1B3F5E">
            <g id="tooth">
                <path d="M197.683413,155.184976 C200.917017,152.679723 203.906037,149.783045 206.594638,146.546764 C208.204764,144.607922 207.946221,141.724656 206.016255,140.107125 C204.085075,138.490204 201.215616,138.749326 199.606097,140.688168 C192.020965,149.820236 187.755618,149.031286 188.352815,153.652193 C191.032312,174.370367 184.415805,193.392968 179.289863,198.911961 C177.975908,193.977059 179.408817,188.528181 177.336834,179.151015 C173.612242,162.550137 160.402291,157.490856 148.852231,161.278305 C130.380997,167.431995 134.240323,193.042391 132.683605,198.905864 C128.112377,193.940477 120.82463,175.366614 123.618832,153.650974 C123.837319,151.956621 123.096892,150.280559 121.698577,149.30626 C103.660675,136.745856 95.2398311,111.126314 103.241908,90.6892117 L103.241301,90.6892117 C109.420228,75.0540967 123.675275,67.0859436 139.124716,69.9509181 C152.042138,72.406175 153.921731,79.0061641 158.503277,75.9503539 C191.897156,53.7000074 225.018533,90.9397979 206.586748,129.720297 C205.504632,131.999351 206.46658,134.728363 208.734594,135.815456 C211.003215,136.901939 213.719734,135.936786 214.80185,133.657732 C236.561917,87.8022881 197.211239,42.5266679 155.986431,66.7585354 C116.533793,43.5692528 77.4113123,84.6818499 95.5809132,130.01905 C99.6641878,140.207726 106.101657,148.855693 114.288234,155.188024 C111.867887,180.452112 121.733777,208.95248 133.446488,208.962845 C141.011592,208.962845 142.45239,199.513124 142.45239,191.947982 C142.45239,187.35756 142.951268,181.999527 144.50131,177.680421 C148.647703,165.72057 166.834298,165.07246 168.960295,183.859108 C170.058191,191.280971 168.793396,197.237119 171.092362,203.115224 C173.723306,209.840811 179.415493,208.961626 178.52516,208.962845 C189.991466,208.951261 200.128037,180.689894 197.683413,155.184976 Z" id="Shape"></path>
                <path d="M310.990722,117.153294 C311.094492,115.525048 310.321986,113.967278 308.963882,113.065668 C294.845783,103.695965 276.1679,106.055706 264.838831,118.435233 C264.644036,114.0092 264.201651,109.632378 263.518958,105.319957 C287.681447,104.485178 303.014437,79.7066808 293.879696,57.8438374 C293.251012,56.3389252 291.86742,55.285426 290.250195,55.0812877 C274.886257,53.1456195 260.473842,61.5967006 254.51226,75.5309598 C253.050993,72.3558807 251.451367,69.2494553 249.702458,66.2274799 C271.312585,55.0818953 274.655658,25.8482024 256.655614,10.0025772 C255.43162,8.92538338 253.727618,8.58393783 252.185034,9.1100799 C238.995399,13.6029444 229.497769,25.8943765 228.98317,40.2861241 C227.981279,39.3559584 223.534367,35.3375938 222.390476,34.691156 C222.641707,9.64108241 196.727881,-7.42937231 173.755402,3.23016885 C172.277143,3.91609772 171.278894,5.34020513 171.136287,6.96541303 C168.952275,31.8757491 193.397551,50.9061742 217.171058,42.0850925 C217.216571,42.1245835 217.259049,42.1677199 217.30699,42.2059958 C279.955786,92.6676379 262.957025,193.680233 189.576289,220.858569 C187.219328,221.732232 186.015361,224.352614 186.887388,226.712355 C187.759415,229.070881 190.375495,230.277484 192.734277,229.404429 C199.609757,226.858168 206.123562,223.63813 212.221076,219.836663 C221.326081,241.750541 249.760714,248.316988 267.401511,231.56793 C268.583632,230.445169 269.075778,228.776217 268.69347,227.191108 C264.977191,211.805402 251.034468,200.704776 234.953247,200.952051 C238.665885,196.913637 242.082993,192.603646 245.174229,188.057925 C262.19787,204.738329 290.265973,199.273985 300.152586,178.025987 C300.840741,176.5472 300.686604,174.813847 299.749039,173.480265 C290.508708,160.335827 273.36552,155.321681 258.513753,161.587996 C260.261448,156.596937 261.670527,151.459458 262.722179,146.210796 C284.479161,156.085984 309.46513,141.100048 310.990722,117.153294 Z M301.588366,119.277304 C298.676148,136.021502 280.375718,145.170663 265.275148,137.331389 C268.199503,120.52765 286.539377,111.463547 301.588366,119.277304 Z M180.112642,10.4874056 C196.428103,4.98174806 212.934718,17.002211 213.291539,33.8089871 C197.034942,39.2970256 180.469463,27.3658732 180.112642,10.4874056 Z M241.041051,53.4020075 C234.126733,40.4167483 239.730887,24.7643254 252.591616,18.7537902 C264.022027,31.2694099 260.108525,51.2378989 244.792527,58.4975659 C243.592201,56.7660359 242.3409,55.067314 241.041051,53.4020075 Z M259.066583,226.725721 C245.54258,237.07298 225.933806,231.186993 220.185832,215.215604 C233.706801,204.869561 253.319822,210.758585 259.066583,226.725721 Z M290.62158,176.583045 C286.178915,183.924732 278.109176,188.740816 269.084881,188.740816 C269.801557,188.740816 258.513753,189.60172 250.23951,180.175514 C258.998617,165.699924 279.32164,163.713829 290.62158,176.583045 Z M286.397377,63.9278867 C291.176231,80.1149574 279.009725,96.5480876 261.861682,96.2400575 C257.073726,80.0220015 269.245693,63.6490192 286.397377,63.9278867 Z" id="Shape"></path>
                <path d="M121.592519,220.865603 C59.3508563,197.807661 35.5833974,119.473005 73.5587794,64.1063545 C77.7301911,59.3244931 77.9783883,55.816944 93.9491789,42.0984892 C117.742732,50.8290779 142.040568,31.7715159 139.863836,6.92698411 C139.721229,5.30203846 138.721765,3.87641299 137.244719,3.19033833 C132.746828,1.10294554 127.748294,0 122.787385,0 C103.72657,0 88.3626184,15.6721572 88.6083883,34.7582803 C87.9511816,35.1660359 84.7761996,37.8410587 82.0229707,40.407306 C81.5739098,26.0301223 72.1254255,13.606641 58.8138037,9.07210683 C57.2700052,8.54585293 55.5660011,8.88676337 54.3432203,9.96479388 C36.2308947,25.9128394 39.8015358,55.2335678 61.4292801,66.2709231 C59.6603442,69.3336479 58.0431181,72.4826637 56.569106,75.7009555 C50.6578867,61.6507055 36.1853818,53.107891 20.7480027,55.0536935 C19.1313835,55.2578752 17.7477904,56.3115984 17.1191051,57.8168304 C7.89818549,79.8945793 23.5431035,104.590836 47.6497854,105.307903 C46.957382,109.678363 46.5143895,114.115667 46.3232352,118.602802 C34.9753447,106.024362 16.1851798,103.65865 2.0361201,113.050398 C0.678014267,113.950985 -0.0944918654,115.510301 0.00927761513,117.138893 C1.52394793,140.916332 26.4480421,156.246364 48.4332147,146.133295 C49.4921488,151.436549 50.9157933,156.627381 52.685336,161.667508 C37.7534539,155.257055 20.509515,160.305689 11.2515782,173.477837 C10.3140118,174.811702 10.1598747,176.546031 10.8480302,178.024525 C20.6952077,199.193787 48.8397968,204.848282 65.928385,187.957719 C69.0384352,192.543299 72.4786059,196.888843 76.2203755,200.9585 C59.7264897,200.678965 45.9736959,212.013478 42.3065674,227.199488 C41.923652,228.784934 42.4164053,230.454241 43.5985278,231.57724 C61.014809,248.115954 89.6102796,242.079226 98.8136009,219.757796 C104.949351,223.596533 111.509281,226.847032 118.435742,229.413279 C120.793919,230.28652 123.410609,229.079661 124.282637,226.720634 C125.153451,224.360391 123.949482,221.738844 121.592519,220.865603 Z M130.887473,10.4497253 C130.528224,27.365203 113.933603,39.2508844 97.7079401,33.7762638 C98.066582,16.8899549 114.630254,4.96416644 130.887473,10.4497253 Z M58.4078284,18.7178669 C73.9319854,25.9754308 77.7204817,46.1511304 66.3307193,58.5320738 C50.9382463,51.3371013 46.931288,31.2871922 58.4078284,18.7178669 Z M9.41103528,119.262747 C24.4727809,111.441252 42.7987139,120.506067 45.7248919,137.320669 C30.5903256,145.17984 12.3165807,135.968573 9.41103528,119.262747 Z M49.1377548,96.2206039 C31.953893,96.523838 19.8365305,80.0519693 24.6020377,63.9015652 C41.8714638,63.6281076 53.8893047,80.1261067 49.1377548,96.2206039 Z M20.3784377,176.580669 C31.6547213,163.737278 51.9826164,165.66485 60.7611503,180.173901 C49.4885078,193.018507 29.1539375,191.087897 20.3784377,176.580669 Z M51.9328556,226.734003 C57.6717326,210.78778 77.2702071,204.856182 90.8130346,215.221439 C85.0474566,231.246053 65.4149991,237.050038 51.9328556,226.734003 Z" id="Shape"></path>
            </g>
        </g>
    </g>
</svg>