<?xml version="1.0" encoding="UTF-8"?>
<svg width="17px" height="18px" viewBox="0 0 17 18" version="1.1" xmlns="http://www.w3.org/2000/svg" xmlns:xlink="http://www.w3.org/1999/xlink">
    <!-- Generator: Sketch 47.1 (45422) - http://www.bohemiancoding.com/sketch -->
    <title>e-mail</title>
    <desc>Created with Sketch.</desc>
    <defs></defs>
    <g id="Symbols" stroke="none" stroke-width="1" fill="none" fill-rule="evenodd">
        <g id="e-mail" fill-rule="nonzero" fill="#24BEB1">
            <g id="mail" transform="translate(0.000000, 3.000000)">
                <path d="M15.6295627,12 L1.37043725,12 C0.615052238,12 0,11.389849 0,10.6392706 L0,1.36072935 C0,0.610151041 0.615052238,0 1.37043725,0 L15.6295627,0 C16.3849478,0 17,0.610151041 17,1.36072935 L17,10.6392706 C17,11.389849 16.3849478,12 15.6295627,12 Z M1.37043725,0.54429174 C0.917096608,0.54429174 0.5481749,0.910600082 0.5481749,1.36072935 L0.5481749,10.6392706 C0.5481749,11.0893999 0.917096608,11.4557083 1.37043725,11.4557083 L15.6295627,11.4557083 C16.0829034,11.4557083 16.4518251,11.0893999 16.4518251,10.6392706 L16.4518251,1.36072935 C16.4518251,0.910600082 16.0829034,0.54429174 15.6295627,0.54429174 L1.37043725,0.54429174 Z" id="Shape"></path>
                <path d="M8.50081164,7.5 C8.1409857,7.5 7.78115976,7.37796234 7.50736739,7.13443922 L0.592757318,0.984514199 C0.480210257,0.884012596 0.468306241,0.710067514 0.566784919,0.595208539 C0.665263598,0.47924515 0.836248556,0.468201018 0.948795617,0.568150415 L7.86286459,6.71807544 C8.20916324,7.02565452 8.79354221,7.02510231 9.13875868,6.71807544 L16.0512044,0.568702621 C16.1632104,0.467648811 16.3336542,0.47924515 16.4332151,0.595760745 C16.5316938,0.71061972 16.5197897,0.884564803 16.4072427,0.985066406 L9.49425589,7.13388702 C9.22046352,7.37796234 8.86063758,7.5 8.50081164,7.5 Z" id="Shape"></path>
            </g>
        </g>
    </g>
</svg>