<?xml version="1.0" encoding="UTF-8"?>
<svg width="10px" height="22px" viewBox="0 0 10 22" version="1.1" xmlns="http://www.w3.org/2000/svg" xmlns:xlink="http://www.w3.org/1999/xlink">
    <!-- Generator: Sketch 47.1 (45422) - http://www.bohemiancoding.com/sketch -->
    <title>facebook_logo</title>
    <desc>Created with Sketch.</desc>
    <defs></defs>
    <g id="Symbols" stroke="none" stroke-width="1" fill="none" fill-rule="evenodd">
        <g id="facebook_logo" fill-rule="nonzero" fill="#FFFFFF">
            <g id="facebook-letter-logo">
                <path d="M2.16144718,4.26069954 C2.16144718,4.81510862 2.16144718,7.28966874 2.16144718,7.28966874 L0,7.28966874 L0,10.993504 L2.16144718,10.993504 L2.16144718,22 L6.60151852,22 L6.60151852,10.9938109 L9.58101254,10.9938109 C9.58101254,10.9938109 9.8600552,9.21785023 9.99531691,7.27601183 C9.60751686,7.27601183 6.61830791,7.27601183 6.61830791,7.27601183 C6.61830791,7.27601183 6.61830791,5.12123819 6.61830791,4.74355052 C6.61830791,4.36504445 7.1024103,3.85590265 7.58088301,3.85590265 C8.05845896,3.85590265 9.06642022,3.85590265 10,3.85590265 C10,3.35162004 10,1.60921341 10,0 C8.75369915,0 7.3358177,0 6.71082393,0 C2.05169339,-0.00025574734 2.16144718,3.70726229 2.16144718,4.26069954 Z" id="Facebook"></path>
            </g>
        </g>
    </g>
</svg>