<?xml version="1.0" encoding="UTF-8"?>
<svg width="22px" height="22px" viewBox="0 0 22 22" version="1.1" xmlns="http://www.w3.org/2000/svg" xmlns:xlink="http://www.w3.org/1999/xlink">
    <!-- Generator: Sketch 47.1 (45422) - http://www.bohemiancoding.com/sketch -->
    <title>instagram_logo</title>
    <desc>Created with Sketch.</desc>
    <defs></defs>
    <g id="Symbols" stroke="none" stroke-width="1" fill="none" fill-rule="evenodd">
        <g id="instagram_logo" fill-rule="nonzero" fill="#FFFFFF">
            <g id="instagram-logo">
                <path d="M15.9286652,0 L6.07107452,0 C2.72348606,0 0,2.72361619 0,6.07120465 L0,15.9287954 C0,19.2765139 2.72348606,22 6.07107452,22 L15.9286652,22 C19.2765139,22 22,19.2763838 22,15.9287954 L22,6.07120465 C22.0001301,2.72361619 19.2765139,0 15.9286652,0 Z M20.0481835,15.9287954 C20.0481835,18.2002106 18.2002106,20.0480534 15.9287954,20.0480534 L6.07107452,20.0480534 C3.79978943,20.0481835 1.95194662,18.2002106 1.95194662,15.9287954 L1.95194662,6.07120465 C1.95194662,3.79991956 3.79978943,1.95194662 6.07107452,1.95194662 L15.9286652,1.95194662 C18.2000804,1.95194662 20.0480534,3.79991956 20.0480534,6.07120465 L20.0480534,15.9287954 L20.0481835,15.9287954 Z" id="Shape"></path>
                <path d="M10.5,5 C7.46725432,5 5,7.46731096 5,10.5001263 C5,13.5328153 7.46725432,16 10.5,16 C13.5327457,16 16,13.5328153 16,10.5001263 C16,7.46731096 13.5327457,5 10.5,5 Z M10.5,14.1060213 C8.51162684,14.1060213 6.89380897,12.4884188 6.89380897,10.5 C6.89380897,8.51145494 8.51150059,6.89372618 10.5,6.89372618 C12.4884994,6.89372618 14.106191,8.51145494 14.106191,10.5 C14.106191,12.4884188 12.4883732,14.1060213 10.5,14.1060213 Z" id="Shape"></path>
                <path d="M16.5,4 C16.1059091,4 15.7187727,4.15954545 15.4404545,4.43909091 C15.1607727,4.71727273 15,5.10454545 15,5.5 C15,5.89422727 15.1609091,6.28136364 15.4404545,6.56090909 C15.7186364,6.83909091 16.1059091,7 16.5,7 C16.8954545,7 17.2813636,6.83909091 17.5609091,6.56090909 C17.8404545,6.28136364 18,5.89409091 18,5.5 C18,5.10454545 17.8404545,4.71727273 17.5609091,4.43909091 C17.2827273,4.15954545 16.8954545,4 16.5,4 Z" id="Shape"></path>
            </g>
        </g>
    </g>
</svg>