<?xml version="1.0" encoding="UTF-8"?>
<svg width="17px" height="18px" viewBox="0 0 17 18" version="1.1" xmlns="http://www.w3.org/2000/svg" xmlns:xlink="http://www.w3.org/1999/xlink">
    <!-- Generator: Sketch 47.1 (45422) - http://www.bohemiancoding.com/sketch -->
    <title>вопрос</title>
    <desc>Created with Sketch.</desc>
    <defs></defs>
    <g id="Symbols" stroke="none" stroke-width="1" fill="none" fill-rule="evenodd">
        <g id="вопрос" fill-rule="nonzero" fill="#24BEB1">
            <g id="pen" transform="translate(0.000000, 2.000000)">
                <path d="M16.286962,0.780041692 C15.0594584,-0.166767534 13.3083586,0.352363661 12.8506453,0.63210275 L12.0253745,0 L7.7672546,3.2815547 L8.17295495,3.59357138 L12.0253745,0.624033354 L12.4310749,0.93605003 L1.59852874,9.28787573 L0,13.3333333 L5.24636438,12.1014054 L16.286962,3.59357138 C16.7758829,3.21699953 17.6115563,1.79947549 16.286962,0.780041692 Z M0.86341357,12.668953 L1.32459431,11.5015803 L2.37872172,12.3138995 L0.86341357,12.668953 Z M2.99940858,12.1659606 L1.51184063,11.0201062 L1.98342394,9.82045592 L4.55285951,11.8001479 L2.99940858,12.1659606 Z M5.09379331,11.5930334 L2.25735837,9.40622688 L12.8367752,1.25075651 L15.6766777,3.43756304 L5.09379331,11.5930334 Z M16.068508,3.11478717 L13.2598132,0.952188824 C13.6030981,0.750453904 14.9693027,0.390020846 15.8812616,1.09474817 C16.7758829,1.7833367 16.3285723,2.84849707 16.068508,3.11478717 Z" id="Shape"></path>
                <rect id="Rectangle-path" x="2" y="13.3333333" width="15" height="1"></rect>
            </g>
        </g>
    </g>
</svg>