<?xml version="1.0" encoding="UTF-8"?>
<svg width="17px" height="18px" viewBox="0 0 17 18" version="1.1" xmlns="http://www.w3.org/2000/svg" xmlns:xlink="http://www.w3.org/1999/xlink">
    <!-- Generator: Sketch 47.1 (45422) - http://www.bohemiancoding.com/sketch -->
    <title>имя</title>
    <desc>Created with Sketch.</desc>
    <defs></defs>
    <g id="Symbols" stroke="none" stroke-width="1" fill="none" fill-rule="evenodd">
        <g id="имя" fill-rule="nonzero" fill="#24BEB1">
            <g id="user">
                <path d="M8,10 C3.58891445,10 0,13.3325566 0,17.4285561 C0,17.7439833 0.275710876,18 0.615402367,18 C0.955093858,18 1.23080473,17.7439297 1.23080473,17.4285026 C1.23080473,13.9622323 4.2670859,11.1428342 8,11.1428342 C11.7329141,11.1428342 14.7691953,13.9622323 14.7691953,17.4285026 C14.7691953,17.7439297 15.0449061,17.9999464 15.3845976,17.9999464 C15.7242891,17.9999464 16,17.7439297 16,17.4285026 C16,13.3325566 12.4110856,10 8,10 Z" id="Shape"></path>
                <path d="M8,0 C5.79431342,0 4,1.79425985 4,4 C4,6.20574015 5.79425985,8 8,8 C10.2057402,8 12,6.20568658 12,4 C12,1.79431342 10.2057402,0 8,0 Z M8,7 C6.34640842,7 5,5.65359158 5,4 C5,2.34640842 6.34640842,1 8,1 C9.65359158,1 11,2.34640842 11,4 C11,5.65359158 9.65364784,7 8,7 Z" id="Shape"></path>
            </g>
        </g>
    </g>
</svg>