<?xml version="1.0" encoding="utf-8"?>
<!-- Generator: Adobe Illustrator 19.0.0, SVG Export Plug-In . SVG Version: 6.00 Build 0)  -->
<svg version="1.1" id="Layer_1" xmlns="http://www.w3.org/2000/svg" xmlns:xlink="http://www.w3.org/1999/xlink" x="0px" y="0px"
	 viewBox="0 0 394 88.1" style="enable-background:new 0 0 394 88.1;" xml:space="preserve">
<style type="text/css">
	.st0{fill:#FFFFFF;}
</style>
<g>
	<path class="st0" d="M48.3,1.4H3.6C1.3,1.4,0,2.6,0,4.8v79c0,2.1,1.3,3.4,3.6,3.4H14c2.2,0,3.6-1.3,3.6-3.6V52.5
		c0-1.2,0.4-1.2,0.8-1.2H43c2.1,0,3.3-1.3,3.3-3.6v-8.8c0-2.2-1.2-3.6-3.3-3.6H18.2c-0.3,0-0.5,0-0.6,0c0-0.1-0.1-0.3-0.1-0.7V17.7
		c0-0.4,0-0.6,0.8-0.6h30c2.1,0,3.3-1.3,3.3-3.6V4.7C51.6,2.6,50.4,1.4,48.3,1.4z"/>
	<path class="st0" d="M116.4,71.3l-0.2-0.4c-1.6-3.6-3.1-6.7-4.4-9.5c-1.3-2.9-2.4-5.1-3.2-6.9c-0.7-1.6-1-2.2-1.1-2.4l-0.1-0.3
		c-0.1-0.3-0.2-0.5,0-0.7c3.2-2.9,6.1-6.5,8.5-10.6c2.5-4.2,3.8-8.8,3.8-13.8c0-8-2.4-14.3-7.1-18.7c-4.7-4.4-11.4-6.7-19.9-6.7
		H65.9c-2.1,0-3.3,1.3-3.3,3.4v79.3c0,2,1.3,3.2,3.6,3.2h10.3c3.3,0,3.7-2.3,3.7-3.3V55.4c0-0.3,0.1-0.4,0.1-0.4h8.9
		c0.6,0,0.6,0.2,0.7,0.3l12.6,28.3c0.5,1,1.1,1.9,1.8,2.5c0.8,0.8,2.2,1.1,4.4,1.1h10.3c1.6,0,2.4-0.7,2.9-1.3
		c0.5-0.6,0.9-1.7,0-3.3C119.9,78.8,118.1,75,116.4,71.3z M100.5,33.1c-1,2.1-2.5,4-4.4,5.6c-0.1,0.1-0.4,0.2-1,0.4
		c-0.4,0.1-0.8,0.2-1.1,0.2h-13c-0.4,0-0.6,0-0.6,0c0,0,0,0,0,0c0-0.1-0.1-0.3-0.1-0.7V17.9c0-0.6,0.1-0.8,0.1-0.8
		c0,0,0.2-0.1,0.8-0.1h10.4c3.6,0,6.3,1,7.9,2.9c1.7,2,2.5,4.6,2.5,7.6C101.9,29.1,101.4,31,100.5,33.1z"/>
	<path class="st0" d="M184.1,71.3h-30.6c-0.9,0-1.2-0.2-1.2-0.2c0,0-0.1-0.2-0.1-0.7V51.7c0-0.5,0.1-0.8,0.1-0.8
		c0,0,0.2-0.1,0.8-0.1h25.1c2.1,0,3.3-1.3,3.3-3.4v-8.7c0-2.2-1.2-3.6-3.3-3.6h-24.9c-0.7,0-1-0.2-1-1.2V17.7c0-0.4,0-0.5,0-0.5
		c0,0,0.2-0.1,1-0.1h30.2c2.1,0,3.3-1.3,3.3-3.6V4.7c0-1.5-0.6-2.2-1.2-2.6c-0.6-0.5-1.4-0.7-2.3-0.7h-45.1c-2.2,0-3.6,1.3-3.6,3.4
		v79c0,2.1,1.3,3.4,3.6,3.4h46c2.1,0,3.3-1.3,3.3-3.6v-8.9C187.4,72.6,186.1,71.3,184.1,71.3z"/>
	<path class="st0" d="M250.2,43.8c-2.5-1.9-5.3-3.5-8.5-4.8c-3-1.2-6-2.4-8.9-3.5c-1.4-0.5-3-1.1-4.7-1.8c-1.6-0.6-3.1-1.3-4.4-2.2
		c-1.3-0.8-2.4-1.8-3.2-2.9c-0.8-1-1.2-2.2-1.2-3.6c0-3.5,1-5.9,3.1-7.2c3.9-2.5,9.3-2.8,15-0.8c2.6,0.9,5.2,2,7.8,3.3
		c1,0.5,2,0.6,3,0.4c1-0.2,1.9-0.8,2.5-1.9l3.5-6.4c0.7-1.2,1.1-2.1,1.2-2.9c0.1-1-0.5-2-1.9-3c-3.4-2.2-7.2-3.9-11.3-4.9
		c-4-1-8.4-1.5-12.9-1.5c-3.7,0-7.3,0.6-10.5,1.7c-3.3,1.1-6.2,2.8-8.7,5c-2.5,2.2-4.5,4.8-6,7.9c-1.5,3.1-2.2,6.6-2.2,10.5
		c0,3.8,0.7,7.1,2.1,9.8c1.4,2.7,3.2,5,5.3,6.9c2.1,1.9,4.6,3.4,7.2,4.7c2.6,1.2,5.3,2.3,7.9,3.2c2.4,0.8,4.7,1.6,6.8,2.5
		c2,0.8,3.9,1.8,5.4,2.8c1.5,1,2.7,2.1,3.5,3.3c0.8,1.2,1.2,2.6,1.2,4.3c0,2.8-1,5-2.9,6.7c-2,1.8-5.3,2.7-9.9,2.7
		c-2.5,0-5.3-0.6-8.5-1.8c-3.2-1.2-5.9-2.8-8.2-4.8c-1-0.8-1.9-1.3-2.6-1.6c-1-0.3-2.1,0.1-3.3,1.4l-5.3,6c-1,1.3-1.5,2.3-1.3,3.3
		c0.1,0.9,0.7,1.8,1.7,2.7c3.5,3.6,7.9,6.3,12.9,8c4.9,1.7,10,2.5,15.1,2.5c4.2,0,8.1-0.6,11.8-1.7c3.7-1.1,6.9-2.8,9.6-5
		c2.7-2.2,4.8-4.9,6.4-8.1c1.6-3.2,2.4-6.9,2.4-11c0-4.3-0.8-8-2.5-11C254.9,48.2,252.7,45.8,250.2,43.8z"/>
	<path class="st0" d="M322.3,69.6l-8.1-5c-1.4-0.8-2.6-0.8-3.5,0.1l-1.5,1.5c-1.4,1.7-3.2,3.1-5.2,4.3c-2,1.1-4.2,1.7-6.5,1.7
		c-3.5,0-6.1-0.9-7.9-2.7c-1.8-1.8-2.7-4-2.7-6.6v-37c0-2.7,0.9-5,2.6-7c1.7-2,4.3-2.9,7.8-2.9c5.2,0,9.1,2.1,11.9,6.2
		c0.5,0.9,1.2,1.5,2.1,1.8c1,0.4,2,0.3,3.2-0.4l7.3-5.5c1.1-0.7,1.7-1.6,1.8-2.6c0.1-0.9-0.2-1.8-0.8-2.5c-3.5-5-7.6-8.5-12.1-10.2
		c-4.4-1.7-9.1-2.6-13.9-2.6c-3.9,0-7.6,0.6-10.9,1.8c-3.3,1.2-6.3,2.9-8.7,5.1c-2.5,2.2-4.4,4.9-5.8,8c-1.4,3.1-2.1,6.6-2.1,10.4
		v37.5c0,3.8,0.7,7.4,2.1,10.5c1.4,3.1,3.3,5.8,5.8,8c2.4,2.2,5.4,3.9,8.8,5c3.4,1.2,7.1,1.8,11.2,1.8c5.3,0,10.3-1,14.8-3.1
		c4.6-2.1,8.5-5.6,11.8-10.6c0.5-0.9,0.6-1.9,0.3-2.8C323.8,70.7,323.2,70.1,322.3,69.6z"/>
	<path class="st0" d="M391.7,15c-1.5-3.2-3.6-6-6.3-8.2c-2.6-2.2-5.7-3.9-9.2-5.1c-3.5-1.2-7.2-1.8-11.2-1.8
		c-4.1,0-7.9,0.6-11.4,1.8c-3.5,1.2-6.6,2.9-9.2,5.2c-2.6,2.3-4.7,5-6.1,8.2c-1.5,3.2-2.2,6.8-2.2,10.8v36.3c0,4,0.8,7.7,2.3,10.9
		c1.5,3.2,3.6,5.9,6.2,8.1c2.6,2.2,5.7,3.8,9.2,5c3.5,1.2,7.3,1.8,11.4,1.8c4.1,0,7.9-0.6,11.4-1.8c3.5-1.2,6.6-2.9,9.1-5.1
		c2.6-2.2,4.6-5,6.1-8.2c1.5-3.2,2.2-6.8,2.2-10.8V25.9C394,21.9,393.3,18.2,391.7,15z M376.3,62.1c0,2.9-1,5.2-3,7.1
		c-2,1.9-4.7,2.9-8.2,2.9c-3.7,0-6.6-1-8.5-2.9c-1.9-1.9-2.9-4.3-2.9-7.1V26.1c0-2.9,1-5.2,2.9-7.2c1.9-1.9,4.8-2.9,8.6-2.9
		c3.7,0,6.5,1,8.3,2.9c1.8,2,2.7,4.3,2.7,7.2V62.1z"/>
</g>
</svg>
